<?xml version="1.0" standalone="no"?>
<!DOCTYPE svg PUBLIC "-//W3C//DTD SVG 1.1//EN" "http://www.w3.org/Graphics/SVG/1.1/DTD/svg11.dtd" >
<svg>
<metadata>
Created by FontForge 20090914 at Tue May  8 09:21:50 2018
 By www-data
Copyright (c) 2002, 2005 Parachute&#194;&#168;, www.parachute.gr.  All rights reserved.
</metadata>
<defs>
<font id="PFDinDisplayPro-Bold" horiz-adv-x="1818" >
  <font-face 
    font-family="PF DinDisplay Pro"
    font-weight="700"
    font-stretch="normal"
    units-per-em="1000"
    panose-1="2 0 8 6 0 0 0 2 0 4"
    ascent="750"
    descent="-250"
    x-height="494"
    cap-height="689"
    bbox="-204 -318.004 1760 947"
    underline-thickness="50"
    underline-position="-50"
    unicode-range="U+0020-U+FB05"
  />
<missing-glyph horiz-adv-x="454" 
d="M0 700h454v-700h-454v700zM335 80l-108 196l-108 -196h216zM335 620h-218l110 -195zM80 164l102 187l-102 187v-374zM373 164v373l-101 -188z" />
    <glyph glyph-name="fj" unicode="fj" horiz-adv-x="537" 
d="M478 -52c0 -48 -14.667 -84.832 -44 -110.499s-67.333 -38.5 -114 -38.5h-56v109h32c22.667 0 37.667 5.66699 45 17s11 25.666 11 42.999v424h-149v-392h-124v392h-57v104h57v74c0 24 3.83301 44.667 11.5 62s18 31.833 31 43.5s28.5 20.334 46.5 26.001s37 8.5 57 8.5
h80v-106h-58c-16 0 -27.333 -4.33301 -34 -13s-10 -20.334 -10 -35.001v-60h275v-548zM344 633.001c0 20 7 36.833 21 50.5s30.667 20.5 50 20.5s36 -6.83301 50 -20.5s21 -30.5 21 -50.5s-7 -37 -21 -51s-30.667 -21 -50 -21s-36 7 -50 21s-21 31 -21 51z" />
    <glyph glyph-name="ffj" unicode="ffj" horiz-adv-x="808" 
d="M750 -52c0 -48 -14.668 -84.833 -44.001 -110.5s-67.666 -38.5 -114.999 -38.5h-56v109h32c22.667 0 37.667 5.66699 45 17s11 25.666 11 42.999v424h-149v-392h-123v392h-148v-392h-124v392h-57v104h57v52c0 24 3.83301 44.833 11.5 62.5s18 32.167 31 43.5
s28.5 19.833 46.5 25.5s37 8.5 57 8.5h81v-105h-59c-16 0 -27.333 -4.5 -34 -13.5s-10 -20.833 -10 -35.5v-38h148v72c0 24 3.83301 44.667 11.5 62s18 31.833 31 43.5s28.5 20.334 46.5 26.001s37 8.5 57 8.5h81v-105h-60c-16 0 -27.333 -4.5 -34 -13.5
s-10 -20.833 -10 -35.5v-58h276v-548zM614.999 630c0 19.333 7 36 21 50s30.667 21 50 21s36 -7 50 -21s21 -30.667 21 -50c0 -20 -7 -37 -21 -51s-30.667 -21 -50 -21s-36 7 -50 21s-21 31 -21 51z" />
    <glyph glyph-name="ff" unicode="ff" horiz-adv-x="589" 
d="M584 392l-110 -0.000976562v-392h-122v392h-149v-392h-124v392h-57v104h57v55c0 24 3.83301 44.667 11.5 62s18 31.833 31 43.5s28.5 20.334 46.5 26.001s37 8.5 57 8.5h87v-105h-65c-16 0 -27.333 -4.5 -34 -13.5s-10 -20.833 -10 -35.5v-41h149v74
c0 24 3.83301 44.833 11.5 62.5s18 32.167 31 43.5s28.333 19.833 46 25.5s36.5 8.5 56.5 8.5h87v-105h-66c-16 0 -27.333 -4.5 -34 -13.5s-10 -20.833 -10 -35.5v-60h110v-104z" />
    <glyph glyph-name="fi" unicode="fi" horiz-adv-x="537" 
d="M352 0v391.999h-149v-392h-124v392h-57v104h57v71c0 24 3.83301 44.667 11.5 62s18 31.833 31 43.5s28.5 20.334 46.5 26.001s37 8.5 57 8.5h82v-105h-60c-16 0 -27.333 -4.5 -34 -13.5s-10 -20.833 -10 -35.5v-57h275v-496h-126zM344 628.999c0 20 7 37 21 51
s30.667 21 50 21s36 -7 50 -21s21 -31 21 -51s-7 -36.833 -21 -50.5s-30.667 -20.5 -50 -20.5s-36 6.83301 -50 20.5s-21 30.5 -21 50.5z" />
    <glyph glyph-name="fl" unicode="fl" horiz-adv-x="573" 
d="M311 392l-104 -0.000976562v-392h-124v392h-54v104h54v74c0 26.667 4.83301 50.334 14.5 71.001s22.834 37.667 39.501 51s36.167 23.5 58.5 30.5s46.5 10.5 72.5 10.5c21.333 0 49.166 -1.66699 83.499 -5s77.5 -11.666 129.5 -24.999v-544
c0 -11.333 0.833008 -20.333 2.5 -27s5 -11.834 10 -15.501s11.833 -6.16699 20.5 -7.5s20 -2 34 -2l3 -107c-11.333 -2 -22 -3.33301 -32 -4s-19.667 -1 -29 -1c-30 0 -53.833 3.33301 -71.5 10s-31.167 16.167 -40.5 28.5s-15.333 27 -18 44s-4 36.167 -4 57.5v479
c-13.333 3.33301 -26 5.83301 -38 7.5s-24.333 2.5 -37 2.5c-20.667 0 -38.167 -5.33301 -52.5 -16s-21.5 -27.667 -21.5 -51v-61h104v-104z" />
    <glyph glyph-name="ffi" unicode="ffi" horiz-adv-x="808" 
d="M623 0v391.998h-149v-392h-123v392h-148v-392h-124v392h-57v104h57v52c0 24 3.83301 44.667 11.5 62s18 31.833 31 43.5s28.5 20.334 46.5 26.001s37 8.5 57 8.5h81v-105h-59c-16 0 -27.333 -4.5 -34 -13.5s-10 -20.833 -10 -35.5v-38h148v71
c0 24 3.83301 44.667 11.5 62s18 31.833 31 43.5s28.5 20.334 46.5 26.001s37 8.5 57 8.5h81v-105h-60c-16 0 -27.333 -4.5 -34 -13.5s-10 -20.833 -10 -35.5v-57h276v-496h-127zM615 628.998c0 19.333 7 36 21 50s30.667 21 50 21s36 -7 50 -21s21 -30.667 21 -50
c0 -20 -7 -37 -21 -51s-30.667 -21 -50 -21s-36 7 -50 21s-21 31 -21 51z" />
    <glyph glyph-name="ffl" unicode="ffl" horiz-adv-x="840" 
d="M578 392l-104.001 -0.00292969v-392h-123v392h-148v-392h-124v392h-57v104h57v65c0 24 3.83301 44.667 11.5 62s18 31.833 31 43.5s28.5 20.334 46.5 26.001s37 8.5 57 8.5h83v-105h-61c-16 0 -27.333 -4.5 -34 -13.5s-10 -20.833 -10 -35.5v-51h148v72
c0 26.667 4.5 50.334 13.5 71.001s21.833 38 38.5 52s36.334 24.5 59.001 31.5s48 10.5 76 10.5c20.667 0 49 -2 85 -6s77.667 -12.667 125 -26v-542c0 -11.333 0.833008 -20.333 2.5 -27s5 -11.834 10 -15.501s11.833 -6.16699 20.5 -7.5s20 -2 34 -2l3 -107
c-11.333 -2 -22 -3.33301 -32 -4s-19.667 -1 -29 -1c-30 0 -53.833 3.33301 -71.5 10s-31.167 16.167 -40.5 28.5s-15.333 27 -18 44s-4 36.167 -4 57.5v479c-12.667 2.66699 -25 4.83398 -37 6.50098s-24 2.5 -36 2.5c-23.333 0 -41.833 -5.66699 -55.5 -17
s-20.5 -29.666 -20.5 -54.999v-55h104v-104z" />
    <glyph glyph-name="ft" unicode="ft" horiz-adv-x="632" 
d="M203 393l-0.00292969 -393h-124v393h-57v103h57v80c0 24 3.83301 44.667 11.5 62s18 31.833 31 43.5s28.5 20.334 46.5 26.001s37 8.5 57 8.5h81v-106h-59c-16 0 -27.333 -4.33301 -34 -13s-10 -20.334 -10 -35.001v-66h152l22 122h100v-122h120v-103h-120v-208
c0 -29.333 5.83301 -48.833 17.5 -58.5s29.834 -14.5 54.501 -14.5c10.667 0 22 0.5 34 1.5s25 2.16699 39 3.5l13 -104c-21.333 -8 -43.166 -13.167 -65.499 -15.5s-41.166 -3.5 -56.499 -3.5c-32 0 -58.5 3.66699 -79.5 11s-37.5 18 -49.5 32s-20.333 31.167 -25 51.5
s-7 43.5 -7 69.5v235h-149z" />
    <glyph glyph-name=".notdef" horiz-adv-x="454" 
d="M0 700h454v-700h-454v700zM335 80l-108 196l-108 -196h216zM335 620h-218l110 -195zM80 164l102 187l-102 187v-374zM373 164v373l-101 -188z" />
    <glyph glyph-name="space" unicode=" " horiz-adv-x="254" 
 />
    <glyph glyph-name="exclam" unicode="!" horiz-adv-x="266" 
d="M77 207l-7 489h125l-7 -489h-111zM133 -7c-22.667 0 -41.5 8 -56.5 24s-22.5 35.333 -22.5 58c0 21.333 7.5 39.5 22.5 54.5s33.5 22.5 55.5 22.5c22.667 0 41.667 -7.5 57 -22.5s23 -33.167 23 -54.5c0 -22 -7 -41.167 -21 -57.5s-33.333 -24.5 -58 -24.5z" />
    <glyph glyph-name="quotedbl" unicode="&#x22;" horiz-adv-x="347" 
d="M195 696h101v-214h-101v214zM52 696h103v-214h-103v214z" />
    <glyph glyph-name="numbersign" unicode="#" horiz-adv-x="552" 
d="M413 298h88v-94h-101l-28 -204h-107l29 204h-82l-28 -204h-108l29 204h-82v94h96l15 102h-85v94h98l28 202h104l-27 -202h83l29 202h104l-28 -202h87v-94h-100zM224 298h84l14 102h-83z" />
    <glyph glyph-name="dollar" unicode="$" horiz-adv-x="534" 
d="M312 -103l-85.0039 -0.00390625v108c-38 3.33301 -73.5 12.166 -106.5 26.499s-66.167 36.5 -99.5 66.5l72 96c30 -24 59.167 -42.167 87.5 -54.5s57.833 -18.5 88.5 -18.5c37.333 0 65 7.83301 83 23.5s27 35.167 27 58.5c0 16.667 -5.16699 30.334 -15.5 41.001
s-23.166 19.334 -38.499 26.001s-31.666 11.834 -48.999 15.501l-48 10.5c-20 4 -40.5 10 -61.5 18s-40.167 19.167 -57.5 33.5s-31.5 32.666 -42.5 54.999s-16.5 49.833 -16.5 82.5c0 26 4.33301 50 13 72s20.834 41.5 36.501 58.5s34.334 31.167 56.001 42.5
s45.5 19.333 71.5 24v90h85c-0.666992 -14.667 -1 -29 -1 -43v-43c32.667 -2.66699 63.834 -9.66699 93.501 -21s61.167 -28.666 94.5 -51.999l-34 -52l-34 -52c-28 20.667 -54.333 35.334 -79 44.001s-49.667 13 -75 13c-26.667 0 -49.5 -6.83301 -68.5 -20.5
s-28.5 -33.5 -28.5 -59.5c0 -12.667 4 -23.5 12 -32.5s18 -16.833 30 -23.5s25.167 -12 39.5 -16s28.166 -7.33301 41.499 -10c18.667 -4 40 -9.5 64 -16.5s46.667 -17.667 68 -32s39.333 -33.5 54 -57.5s22 -55.333 22 -94c0 -28 -4.83301 -53.5 -14.5 -76.5
s-23.334 -43 -41.001 -60s-38.667 -30.667 -63 -41s-51.166 -17.166 -80.499 -20.499v-109z" />
    <glyph glyph-name="percent" unicode="%" horiz-adv-x="853" 
d="M800 111c0 -19.333 -4.33301 -36 -13 -50s-19.834 -25.833 -33.501 -35.5s-29 -16.834 -46 -21.501s-34.167 -7 -51.5 -7s-34.666 2.33301 -51.999 7s-33 11.834 -47 21.501s-25.333 21.5 -34 35.5s-13 30.667 -13 50v188c0 19.333 4.33301 36.333 13 51
s20 26.834 34 36.501s29.667 17 47 22s34.666 7.5 51.999 7.5c16.667 0 33.667 -2.5 51 -7.5s32.833 -12.333 46.5 -22s24.834 -21.834 33.501 -36.501s13 -31.667 13 -51v-188zM707 285c0 16.667 -5.5 28.667 -16.5 36s-22.5 11 -34.5 11s-23.5 -3.66699 -34.5 -11
s-16.5 -19.333 -16.5 -36v-160c0 -16 5.5 -27.5 16.5 -34.5s22.5 -10.5 34.5 -10.5s23.5 3.5 34.5 10.5s16.5 18.5 16.5 34.5v160zM342 388c0 -19.333 -4.33301 -36.166 -13 -50.499s-19.834 -26.333 -33.501 -36s-29.167 -16.834 -46.5 -21.501s-34.333 -7 -51 -7
c-17.333 0 -34.666 2.33301 -51.999 7s-33 11.834 -47 21.501s-25.333 21.667 -34 36s-13 31.166 -13 50.499v187c0 19.333 4.33301 36.333 13 51s20 26.834 34 36.501s29.667 17 47 22s34.666 7.5 51.999 7.5c16.667 0 33.667 -2.5 51 -7.5s32.833 -12.333 46.5 -22
s24.834 -21.834 33.501 -36.501s13 -31.667 13 -51v-187zM248 561c0 16.667 -5.33301 28.667 -16 36s-22 11 -34 11s-23.5 -3.66699 -34.5 -11s-16.5 -19.333 -16.5 -36v-160c0 -16 5.5 -27.5 16.5 -34.5s22.5 -10.5 34.5 -10.5s23.333 3.5 34 10.5s16 18.5 16 34.5v160z
M262 -17h-90l425 730h91z" />
    <glyph glyph-name="ampersand" unicode="&#x26;" horiz-adv-x="822" 
d="M767 439c0 -58.667 -11.5059 -115.493 -34.5059 -170.493s-55.167 -104.167 -96.5 -147.5c45.333 -40 95.333 -72.333 150 -97l-49 -89c-14.667 5.33301 -30.5 12.5 -47.5 21.5s-33.667 19 -50 30s-32.166 22.5 -47.499 34.5s-28.666 24 -39.999 36
c-10.667 -9.33301 -23.167 -18 -37.5 -26s-29.833 -15 -46.5 -21s-33.834 -10.833 -51.501 -14.5s-34.834 -5.5 -51.501 -5.5c-30 0 -58.5 4.5 -85.5 13.5s-50.5 22.167 -70.5 39.5s-35.833 38.5 -47.5 63.5s-17.5 53.5 -17.5 85.5c0 22.667 3.83301 44 11.5 64
s18.167 38.667 31.5 56s28.833 33.166 46.5 47.499s36.167 27.166 55.5 38.499c-12 18.667 -21.333 37.167 -28 55.5s-10 38.166 -10 59.499c0 44.667 13.167 81.667 39.5 111s63.5 44 111.5 44c22 0 42.5 -3.66699 61.5 -11s35.5 -17.333 49.5 -30s25 -27.834 33 -45.501
s12 -36.5 12 -56.5c0 -19.333 -3.16699 -37 -9.5 -53s-14.833 -30.833 -25.5 -44.5s-23 -26 -37 -37s-28.667 -21.167 -44 -30.5c18.667 -28 38.5 -56 59.5 -84s43.167 -56 66.5 -84c30.667 34 54.5 72.5 71.5 115.5s25.5 86.5 25.5 130.5
c0 37.333 -5.83301 72.666 -17.5 105.999s-28.667 62.666 -51 87.999s-49.666 45.333 -81.999 60s-69.166 22 -110.499 22c-37.333 0 -71.166 -5.33301 -101.499 -16s-56.166 -25.334 -77.499 -44.001s-37.666 -40.167 -48.999 -64.5s-17 -50.166 -17 -77.499
c0 -19.333 2.5 -39.833 7.5 -61.5s15.833 -45.167 32.5 -70.5l-86 -54c-22 32 -37.167 63.167 -45.5 93.5s-12.5 59.5 -12.5 87.5c0 40 8 78.667 24 116s39 70.166 69 98.499s66.333 51 109 68s90.334 25.5 143.001 25.5c59.333 0 111.833 -10 157.5 -30s84 -47 115 -81
s54.5 -73.833 70.5 -119.5s24 -94.167 24 -145.5zM450.994 525.007c0 12 -4.66699 22.334 -14 31.001s-21 13 -35 13s-24.5 -5.33301 -31.5 -16s-10.5 -22.667 -10.5 -36c0 -10.667 2.66699 -21.5 8 -32.5s12.333 -22.833 21 -35.5c19.333 10.667 34.5 21.667 45.5 33
s16.5 25.666 16.5 42.999zM484.994 129.008c-11.333 12.667 -23.333 26.8311 -36 42.498s-25 31.834 -37 48.501l-34 49c-10.667 16 -19.667 30.333 -27 43c-28 -15.333 -52 -32.666 -72 -51.999s-30 -41.666 -30 -66.999c0 -34.667 10.167 -60.834 30.5 -78.501
s45.833 -26.5 76.5 -26.5c40.667 0 83.667 13.667 129 41z" />
    <glyph glyph-name="quotesingle" unicode="'" horiz-adv-x="261" 
d="M81 696h102v-214h-102v214z" />
    <glyph glyph-name="parenleft" unicode="(" horiz-adv-x="345" 
d="M259 -135c-27.333 29.333 -53.001 60.999 -77.001 94.999s-45.167 69.667 -63.5 107s-32.833 76 -43.5 116s-16 80.667 -16 122c0 42.667 5.16699 84 15.5 124s24.5 78.333 42.5 115s38.833 71.5 62.5 104.5s48.834 64.167 75.501 93.5l73 -46
c-46 -60.667 -80.5 -124.834 -103.5 -192.501s-34.5 -132.167 -34.5 -193.5c0 -33.333 3.16699 -67.166 9.5 -101.499s15.5 -68.166 27.5 -101.499s26.5 -66 43.5 -98s36.167 -62.333 57.5 -91z" />
    <glyph glyph-name="parenright" unicode=")" horiz-adv-x="345" 
d="M311 305c0 -41.333 -5.33398 -82.001 -16.001 -122.001s-25.167 -78.667 -43.5 -116s-39.666 -73 -63.999 -107s-49.833 -65.667 -76.5 -95l-69 53c44 58 78 121.167 102 189.5s36 135.833 36 202.5c0 61.333 -11.5 125.833 -34.5 193.5s-57.5 131.834 -103.5 192.501
l72 46c26.667 -29.333 52 -60.5 76 -93.5s45 -67.833 63 -104.5s32.167 -75 42.5 -115s15.5 -81.333 15.5 -124z" />
    <glyph glyph-name="asterisk" unicode="*" horiz-adv-x="430" 
d="M357 416c-1.33301 -1.33301 -6 -4.83301 -14 -10.5l-25.5 -18l-25 -18c-7.66699 -5.66699 -12.5 -9.16699 -14.5 -10.5l-60 103l-63 -103l-78 57l80 90l-113 27l27 90l111 -47l-12 120h98l-13 -120l111 47l27 -90l-115 -27z" />
    <glyph glyph-name="plus" unicode="+" horiz-adv-x="534" 
d="M319 247v-188h-105v188h-192v99h192v186h105v-186h192v-99h-192z" />
    <glyph glyph-name="comma" unicode="," horiz-adv-x="293" 
d="M66 -97c17.333 12.667 31.332 27.333 41.999 44s17 33 19 49c-15.333 3.33301 -28.5 11.5 -39.5 24.5s-16.5 29.5 -16.5 49.5c0 21.333 8 39.5 24 54.5s34.667 22.5 56 22.5c28 0 49.667 -9.66699 65 -29s23 -43.333 23 -72c0 -20 -3.16699 -40 -9.5 -60
s-15.166 -38.833 -26.499 -56.5s-24.833 -34 -40.5 -49s-33.167 -27.5 -52.5 -37.5z" />
    <glyph glyph-name="hyphen" unicode="-" horiz-adv-x="424" 
d="M48 204v113h327v-113h-327z" />
    <glyph glyph-name="period" unicode="." horiz-adv-x="288" 
d="M146 -7c-22.667 0 -41.5 8 -56.5 24s-22.5 35.333 -22.5 58c0 21.333 7.5 39.5 22.5 54.5s33.5 22.5 55.5 22.5c22.667 0 41.5 -7.5 56.5 -22.5s22.5 -33.167 22.5 -54.5c0 -22 -7 -41.167 -21 -57.5s-33 -24.5 -57 -24.5z" />
    <glyph glyph-name="slash" unicode="/" horiz-adv-x="351" 
d="M90 -42h-101l252 767h102z" />
    <glyph glyph-name="zero" unicode="0" horiz-adv-x="534" 
d="M485 178c0 -31.333 -6.66699 -58.5 -20 -81.5s-30.333 -42 -51 -57s-44 -26.167 -70 -33.5s-51.333 -11 -76 -11c-25.333 0 -50.833 3.66699 -76.5 11s-48.834 18.5 -69.501 33.5s-37.667 34 -51 57s-20 50.167 -20 81.5v332c0 31.333 6.66699 58.666 20 81.999
s30.5 42.666 51.5 57.999s44.333 26.833 70 34.5s50.834 11.5 75.501 11.5s50 -3.83301 76 -11.5s49.333 -19.167 70 -34.5s37.667 -34.666 51 -57.999s20 -50.666 20 -81.999v-332zM357 484c0 16 -2.66699 29.667 -8 41s-12.333 20.5 -21 27.5s-18.167 12.167 -28.5 15.5
s-20.833 5 -31.5 5c-10 0 -20.333 -1.66699 -31 -5s-20.334 -8.5 -29.001 -15.5s-15.667 -16.167 -21 -27.5s-8 -25 -8 -41v-280c0 -16 2.66699 -29.667 8 -41s12.333 -20.5 21 -27.5s18.334 -12 29.001 -15s21 -4.5 31 -4.5c10.667 0 21.167 1.5 31.5 4.5s19.833 8 28.5 15
s15.667 16.167 21 27.5s8 25 8 41v280z" />
    <glyph glyph-name="one" unicode="1" horiz-adv-x="534" 
d="M236 0v524l-69 -58l-71 91l151 132h116v-689h-127z" />
    <glyph glyph-name="two" unicode="2" horiz-adv-x="534" 
d="M485 502c0 -22.667 -4.16211 -43.832 -12.4951 -63.499s-19 -38.167 -32 -55.5s-27.333 -33.333 -43 -48s-31.167 -28 -46.5 -40c-14 -11.333 -29.833 -23.166 -47.5 -35.499s-34.834 -25.833 -51.501 -40.5s-31.334 -30.667 -44.001 -48s-20.334 -36.333 -23.001 -57
h299v-114h-431v98c0 28 4.16699 53.833 12.5 77.5s19.5 45.5 33.5 65.5s30.167 38.333 48.5 55s37.166 32 56.499 46l55 39c18 12.667 34 25.5 48 38.5s25.333 26.167 34 39.5s13 27.333 13 42c0 11.333 -2.66699 21.5 -8 30.5s-12.5 16.667 -21.5 23
s-19.333 11.166 -31 14.499s-23.834 5 -36.501 5c-23.333 0 -46.5 -4.16699 -69.5 -12.5s-43.833 -20.833 -62.5 -37.5l-66 101c25.333 22.667 55.666 40.167 90.999 52.5s73 18.5 113 18.5c26.667 0 53.334 -3.33301 80.001 -10s50.5 -17.5 71.5 -32.5s38 -34.833 51 -59.5
s19.5 -55.334 19.5 -92.001z" />
    <glyph glyph-name="three" unicode="3" horiz-adv-x="534" 
d="M257 696c27.333 0 53.834 -3.50293 79.501 -10.5029s48.5 -18.167 68.5 -33.5s36.167 -35 48.5 -59s18.5 -52.667 18.5 -86c0 -34 -8 -63.833 -24 -89.5s-37.667 -45.167 -65 -58.5c30 -13.333 53 -33.666 69 -60.999s24 -57.333 24 -90
c0 -37.333 -6.83301 -69.666 -20.5 -96.999s-31.167 -49.666 -52.5 -66.999s-45.333 -30.166 -72 -38.499s-53.334 -12.5 -80.001 -12.5c-40.667 0 -79.334 6.16699 -116.001 18.5s-67.667 29.833 -93 52.5l12 18l21.5 32.5l21.5 32.5l12 18
c18.667 -16 40.334 -28.5 65.001 -37.5s48 -13.5 70 -13.5c32 0 57.167 8 75.5 24s27.5 38 27.5 66c0 26 -8.5 48 -25.5 66s-39.167 27 -66.5 27h-82v109h80c22.667 0 43 7.83301 61 23.5s27 37.5 27 65.5c0 14.667 -3 27 -9 37s-13.5 18.167 -22.5 24.5
s-19.167 10.833 -30.5 13.5s-22 4 -32 4c-22 0 -45 -4.33301 -69 -13s-45.333 -21.334 -64 -38.001l-67 102c25.333 22.667 56.333 40.167 93 52.5s75.667 18.5 117 18.5z" />
    <glyph glyph-name="four" unicode="4" horiz-adv-x="534" 
d="M451 99v-99h-129v99h-288v103l221 487h135l-214 -476h146v197h129v-197h56v-114h-56z" />
    <glyph glyph-name="five" unicode="5" horiz-adv-x="534" 
d="M487 185c0 -31.333 -6.16895 -58.8359 -18.502 -82.5029s-28.666 -43.5 -48.999 -59.5s-44 -28 -71 -36s-54.833 -12 -83.5 -12c-42 0 -80.167 6 -114.5 18s-64.166 29.667 -89.499 53l68 102c21.333 -19.333 43 -32.833 65 -40.5s44.333 -11.5 67 -11.5
c10 0 20.667 1.5 32 4.5s21.833 7.83301 31.5 14.5s17.834 15.334 24.501 26.001s10 24 10 40v77c0 23.333 -5.5 40.666 -16.5 51.999s-26.167 17 -45.5 17c-9.33301 0 -19.5 -1.66699 -30.5 -5s-21.667 -7.5 -32 -12.5s-19.833 -10.167 -28.5 -15.5
s-15.334 -9.66602 -20.001 -12.999l-115 45v343h394v-115h-266v-135c19.333 11.333 39.5 20.333 60.5 27s39.5 10 55.5 10c27.333 0 51.666 -4.66699 72.999 -14s39.333 -22.166 54 -38.499s25.834 -35.666 33.501 -57.999s11.5 -46.833 11.5 -73.5v-107v0z" />
    <glyph glyph-name="six" unicode="6" horiz-adv-x="534" 
d="M486 185c0 -32 -6.16699 -59.832 -18.5 -83.499s-28.666 -43.334 -48.999 -59.001s-43.333 -27.5 -69 -35.5s-51.834 -12 -78.501 -12c-28.667 0 -56 3.83301 -82 11.5s-49 19.334 -69 35.001s-35.833 35.334 -47.5 59.001s-17.5 51.5 -17.5 83.5v321
c0 32 6.16699 59.833 18.5 83.5s28.666 43.5 48.999 59.5s43.833 28 70.5 36s54.334 12 83.001 12c83.333 0 150.666 -23.667 201.999 -71l-67 -103c-21.333 19.333 -43 32.833 -65 40.5s-44 11.5 -66 11.5c-9.33301 0 -19.666 -1.66699 -30.999 -5
s-21.833 -8.5 -31.5 -15.5s-17.834 -16 -24.501 -27s-10 -24.167 -10 -39.5v-74c30 16 54.833 26.667 74.5 32s38.167 8 55.5 8c28 0 52.833 -4.66699 74.5 -14s39.834 -22.333 54.501 -39s25.667 -36.334 33 -59.001s11 -47.334 11 -74.001v-82zM357 258.001
c0 26.667 -6.49805 45.5 -19.498 56.5s-27.167 16.5 -42.5 16.5c-17.333 0 -34.833 -3.16699 -52.5 -9.5s-37.5 -16.166 -59.5 -29.499v-87c0 -16 2.66699 -29.667 8 -41s12.166 -20.5 20.499 -27.5s17.666 -12.167 27.999 -15.5s20.833 -5 31.5 -5
c10 0 20.167 1.66699 30.5 5s19.5 8.66602 27.5 15.999s14.667 16.5 20 27.5s8 24.5 8 40.5v53z" />
    <glyph glyph-name="seven" unicode="7" horiz-adv-x="534" 
d="M243 0h-137l235 574h-165v-100h-119v215h429v-107z" />
    <glyph glyph-name="eight" unicode="8" horiz-adv-x="517" 
d="M262 695c25.333 0 50.501 -3.99805 75.501 -11.998s47.333 -20.333 67 -37s35.5 -37.5 47.5 -62.5s18 -54.167 18 -87.5c0 -32 -7 -60.833 -21 -86.5s-33.333 -44.5 -58 -56.5c30.667 -13.333 53.834 -34.5 69.501 -63.5s23.5 -59.167 23.5 -90.5
c0 -35.333 -6.66699 -66 -20 -92s-30.666 -47.333 -51.999 -64s-45.333 -29 -72 -37s-53.334 -12 -80.001 -12c-28.667 0 -56.334 3.83301 -83.001 11.5s-50.334 19.667 -71.001 36s-37.167 37.166 -49.5 62.499s-18.5 55.333 -18.5 90c0 17.333 2.5 34.166 7.5 50.499
s12 31.5 21 45.5s19.167 26.5 30.5 37.5s23.666 19.5 36.999 25.5c-25.333 11.333 -45 29.666 -59 54.999s-21 55 -21 89c0 33.333 6.16699 62.333 18.5 87s28.5 45.334 48.5 62.001s42.333 29 67 37s49.334 12 74.001 12zM363.001 496.002
c0 31.333 -10.168 55.332 -30.501 71.999s-43.833 25 -70.5 25c-12.667 0 -25.167 -2.16699 -37.5 -6.5s-23.166 -10.666 -32.499 -18.999s-17 -18.5 -23 -30.5s-9 -25.667 -9 -41c0 -16 2.83301 -30.167 8.5 -42.5s13.334 -22.666 23.001 -30.999
s20.5 -14.666 32.5 -18.999s24.667 -6.5 38 -6.5c12.667 0 25.167 2.33301 37.5 7s23.166 11.167 32.499 19.5s16.833 18.666 22.5 30.999s8.5 26.166 8.5 41.499zM261 298.001c-14.667 0 -28.667 -2.33301 -42 -7s-25 -11.5 -35 -20.5s-18 -19.667 -24 -32
s-9 -26.5 -9 -42.5c0 -32 10.167 -56.833 30.5 -74.5s46.833 -26.5 79.5 -26.5c32 0 58.333 8.83301 79 26.5s31 43.167 31 76.5c0 14.667 -3 28.167 -9 40.5s-14 23 -24 32s-21.667 15.833 -35 20.5s-27.333 7 -42 7z" />
    <glyph glyph-name="nine" unicode="9" horiz-adv-x="534" 
d="M483 185c0 -31.333 -5.99707 -58.832 -17.9971 -82.499s-28.167 -43.5 -48.5 -59.5s-43.833 -28 -70.5 -36s-54.334 -12 -83.001 -12c-84 0 -151.667 23.667 -203 71l68 102c21.333 -19.333 43 -32.666 65 -39.999s43.667 -11 65 -11c9.33301 0 19.666 1.66699 30.999 5
s21.833 8.5 31.5 15.5s17.667 16 24 27s9.5 24.167 9.5 39.5v80c-29.333 -15.333 -53.833 -25.666 -73.5 -30.999s-38.167 -8 -55.5 -8c-26 0 -49.667 4.66699 -71 14s-39.5 22.166 -54.5 38.499s-26.5 35.833 -34.5 58.5s-12 47.667 -12 75v70c0 32 6 60.167 18 84.5
s27.833 44.666 47.5 60.999s42.5 28.666 68.5 36.999s53 12.5 81 12.5c30 0 58.167 -4.33301 84.5 -13s49.166 -21.5 68.499 -38.5s34.5 -37.667 45.5 -62s16.5 -52.5 16.5 -84.5v-313zM354.003 486.001c0 16 -2.50293 29.667 -7.50293 41s-11.667 20.5 -20 27.5
s-17.666 12.167 -27.999 15.5s-20.5 5 -30.5 5s-20.333 -1.66699 -31 -5s-20.167 -8.66602 -28.5 -15.999s-15.166 -16.5 -20.499 -27.5s-8 -24.5 -8 -40.5v-46c0 -26.667 6.66699 -45.334 20 -56.001s28 -16 44 -16c16.667 0 33.834 3.16699 51.501 9.5
s37.167 15.833 58.5 28.5v80z" />
    <glyph glyph-name="colon" unicode=":" horiz-adv-x="315" 
d="M156 278c-22.667 0 -41.5 7.66699 -56.5 23s-22.5 34.333 -22.5 57c0 22 7.5 40.667 22.5 56s33.5 23 55.5 23c22.667 0 41.5 -7.66699 56.5 -23s22.5 -34 22.5 -56c0 -21.333 -7 -40 -21 -56s-33 -24 -57 -24zM156 -7c-22.667 0 -41.5 8 -56.5 24s-22.5 35.333 -22.5 58
c0 21.333 7.5 39.5 22.5 54.5s33.5 22.5 55.5 22.5c22.667 0 41.5 -7.5 56.5 -22.5s22.5 -33.167 22.5 -54.5c0 -22 -7 -41.167 -21 -57.5s-33 -24.5 -57 -24.5z" />
    <glyph glyph-name="semicolon" unicode=";" horiz-adv-x="293" 
d="M149 278c-23.333 0 -42.333 7.66699 -57 23s-22 34.333 -22 57c0 22 7.5 40.667 22.5 56s33.5 23 55.5 23c22.667 0 41.5 -7.66699 56.5 -23s22.5 -34 22.5 -56c0 -21.333 -7 -40 -21 -56s-33 -24 -57 -24zM57 -97c17.333 12.667 31.167 27.333 41.5 44
s16.833 33 19.5 49c-15.333 3.33301 -28.5 11.5 -39.5 24.5s-16.5 29.5 -16.5 49.5c0 21.333 8 39.5 24 54.5s34.667 22.5 56 22.5c28 0 49.5 -9.66699 64.5 -29s22.5 -43.333 22.5 -72c0 -40.667 -11.667 -79.5 -35 -116.5s-54.333 -65.833 -93 -86.5z" />
    <glyph glyph-name="less" unicode="&#x3c;" horiz-adv-x="534" 
d="M28 249v96l476 216v-112l-343 -152l343 -153v-112z" />
    <glyph glyph-name="equal" unicode="=" horiz-adv-x="534" 
d="M21 357v97h490v-97h-490zM21 140v97h490v-97h-490z" />
    <glyph glyph-name="greater" unicode="&#x3e;" horiz-adv-x="534" 
d="M28 32v112l344 153l-344 152v112l476 -216v-96z" />
    <glyph glyph-name="question" unicode="?" horiz-adv-x="489" 
d="M239 700c31.333 0 59.8301 -4.49707 85.4971 -13.4971s47.834 -21.5 66.501 -37.5s33 -34.833 43 -56.5s15 -45.167 15 -70.5c0 -22 -3.33301 -41.833 -10 -59.5s-15 -34.334 -25 -50.001s-20.833 -30.5 -32.5 -44.5s-22.5 -28.167 -32.5 -42.5s-18.333 -29.333 -25 -45
s-10 -32.834 -10 -51.501v-26h-129v26c0 25.333 6 49 18 71s25.167 43.667 39.5 65s27.5 43.166 39.5 65.499s18 46.5 18 72.5c0 19.333 -7 36.333 -21 51s-35.667 22 -65 22c-21.333 0 -42.166 -4 -62.499 -12s-40.166 -20.333 -59.499 -37l-62 104
c30 24 62.833 41.5 98.5 52.5s72.5 16.5 110.5 16.5zM171.997 74.0029c0 21.333 7.5 39.5 22.5 54.5s33.167 22.5 54.5 22.5c22.667 0 41.667 -7.5 57 -22.5s23 -33.167 23 -54.5c0 -22 -7 -40.833 -21 -56.5s-33 -23.5 -57 -23.5c-23.333 0 -42.333 7.66699 -57 23
s-22 34.333 -22 57z" />
    <glyph glyph-name="at" unicode="@" horiz-adv-x="866" 
d="M265 279c0 22 5.16309 40.665 15.4961 55.998s23.166 27.666 38.499 36.999s31.5 16 48.5 20s32.5 6 46.5 6h87v13c0 18.667 -6 32.667 -18 42s-29 14 -51 14c-13.333 0 -28.333 -1.83301 -45 -5.5s-34.667 -13.167 -54 -28.5l-10 14c-4.66699 6.66699 -9.5 14 -14.5 22
s-9.83301 15.333 -14.5 22s-7.66699 11.334 -9 14.001c28 22 54.667 36.333 80 43s49.666 10 72.999 10c50 0 89.833 -12.5 119.5 -37.5s44.5 -63.5 44.5 -115.5v-131c0 -12 3.83301 -20.167 11.5 -24.5s15.5 -6.5 23.5 -6.5c8.66699 0 18.334 2.5 29.001 7.5
s20.834 13 30.501 24s17.834 25.333 24.501 43s10 39.5 10 65.5c0 36.667 -5.83301 70.834 -17.5 102.501s-29 59.167 -52 82.5s-51.5 41.833 -85.5 55.5s-73.333 20.5 -118 20.5c-46.667 0 -89.167 -7.5 -127.5 -22.5s-71.333 -35.5 -99 -61.5s-49 -56.333 -64 -91
s-22.5 -71.667 -22.5 -111c0 -40 7 -77.333 21 -112s33.667 -64.834 59 -90.501s55.5 -45.834 90.5 -60.501s73.833 -22 116.5 -22c8.66699 0 17.5 0.333008 26.5 1s18.5 1.83398 28.5 3.50098s20.833 4.16699 32.5 7.5s24.834 7.66602 39.501 12.999l28 -82
c-12.667 -6 -26.334 -11 -41.001 -15s-29.167 -7 -43.5 -9s-28.166 -3.5 -41.499 -4.5s-25 -1.5 -35 -1.5c-56.667 0 -108 9.33301 -154 28s-85.333 44.667 -118 78s-58 72.5 -76 117.5s-27 94.167 -27 147.5c0 54 10.167 103.833 30.5 149.5s48.5 85.334 84.5 119.001
s78.833 60 128.5 79s104.167 28.5 163.5 28.5c60.667 0 114 -9.16699 160 -27.5s84.333 -43.166 115 -74.499s53.834 -68.166 69.501 -110.499s23.5 -87.5 23.5 -135.5c0 -34 -5.16699 -65.333 -15.5 -94s-24.333 -53.167 -42 -73.5s-38.5 -36.333 -62.5 -48
s-49.667 -17.5 -77 -17.5c-10 0 -20.5 0.666992 -31.5 2s-21.667 3.83301 -32 7.5s-20.166 8.5 -29.499 14.5s-17 14 -23 24c-21.333 -13.333 -42.5 -23.5 -63.5 -30.5s-40.833 -10.5 -59.5 -10.5c-22 0 -40.833 3.16699 -56.5 9.5s-28.5 15 -38.5 26s-17.5 23.667 -22.5 38
s-7.5 29.833 -7.5 46.5zM501.996 322.998h-76.999c-6 0 -12.333 -0.5 -19 -1.5s-12.834 -2.83301 -18.501 -5.5s-10.334 -6.5 -14.001 -11.5s-5.5 -11.5 -5.5 -19.5c0 -10 4 -18.333 12 -25s19.667 -10 35 -10c18.667 0 35.334 3.33301 50.001 10s27 12.667 37 18v45z" />
    <glyph glyph-name="A" unicode="A" horiz-adv-x="638" 
d="M438 142h-240l-45 -142h-146l242 689h140l240 -689h-149zM235 257h166l-27 88l-54 182h-4l-53 -179z" />
    <glyph glyph-name="B" unicode="B" horiz-adv-x="624" 
d="M581 205c0 -28 -4.33008 -54.3311 -12.9971 -78.998s-21.334 -46.334 -38.001 -65.001s-37.334 -33.5 -62.001 -44.5s-53.334 -16.5 -86.001 -16.5h-323v689h310c34.667 0 64.5 -5 89.5 -15s45.667 -23.667 62 -41s28.5 -37.333 36.5 -60s12 -46.334 12 -71.001
c0 -25.333 -6.83301 -51.333 -20.5 -78s-35.167 -47.334 -64.5 -62.001c16.667 -8 31 -18.167 43 -30.5s22 -25.666 30 -39.999s14 -29 18 -44s6 -29.167 6 -42.5zM428.003 489.002c0 25.333 -7.5 44.667 -22.5 58s-38.5 20 -70.5 20h-139v-151h141
c28.667 0 51 6.66699 67 20s24 31 24 53zM436.003 209.003c0 26.667 -8.33398 48.166 -25.001 64.499s-39.667 24.5 -69 24.5h-146v-176h147c30.667 0 53.834 7.83301 69.501 23.5s23.5 36.834 23.5 63.501z" />
    <glyph glyph-name="C" unicode="C" horiz-adv-x="561" 
d="M464 522c-21.333 18 -44.332 30.499 -68.999 37.499s-48.667 10.5 -72 10.5c-15.333 0 -30.666 -2.16699 -45.999 -6.5s-29 -11.5 -41 -21.5s-21.833 -23 -29.5 -39s-11.5 -35.333 -11.5 -58v-201c0 -22.667 3.83301 -41.834 11.5 -57.501s17.667 -28.5 30 -38.5
s26 -17.333 41 -22s30.167 -7 45.5 -7c23.333 0 46.833 3.33301 70.5 10s47.5 19.334 71.5 38.001l65 -106c-25.333 -21.333 -56.333 -38 -93 -50s-75.334 -18 -116.001 -18c-32.667 0 -64.667 4.66699 -96 14s-59.333 23.166 -84 41.499s-44.667 41.333 -60 69
s-23 60.167 -23 97.5v258c0 36.667 7.5 68.834 22.5 96.501s34.667 50.834 59 69.501s52.166 32.667 83.499 42s63.333 14 96 14c40 0 78.5 -5.33301 115.5 -16s68.833 -27.667 95.5 -51z" />
    <glyph glyph-name="D" unicode="D" horiz-adv-x="617" 
d="M566 221c0 -36 -6.83496 -67.8301 -20.502 -95.4971s-32 -50.834 -55 -69.501s-49.333 -32.667 -79 -42s-60.167 -14 -91.5 -14h-260v689h261c31.333 0 61.833 -4.5 91.5 -13.5s55.834 -22.833 78.501 -41.5s40.834 -41.834 54.501 -69.501s20.5 -59.834 20.5 -96.501
v-247zM426.998 442.003c0 22.667 -3.83301 41.833 -11.5 57.5s-17.5 28.5 -29.5 38.5s-25.5 17.167 -40.5 21.5s-30.167 6.5 -45.5 6.5h-104v-445h104c14.667 0 29.5 2.16699 44.5 6.5s28.667 11.5 41 21.5s22.333 22.833 30 38.5s11.5 35.167 11.5 58.5v196z" />
    <glyph glyph-name="E" unicode="E" horiz-adv-x="577" 
d="M60 689h475v-123h-338v-158h289v-123h-289v-163h338v-122h-475v689z" />
    <glyph glyph-name="F" unicode="F" horiz-adv-x="546" 
d="M197 403h289v-122h-289v-281h-137v689h475v-123h-338v-163z" />
    <glyph glyph-name="G" unicode="G" horiz-adv-x="606" 
d="M550 91c-15.333 -18.667 -32.333 -34.166 -51 -46.499s-38 -22.333 -58 -30s-40.167 -13.167 -60.5 -16.5s-39.5 -5 -57.5 -5c-32 0 -63.833 4.66699 -95.5 14s-60 23.166 -85 41.499s-45.333 41.333 -61 69s-23.5 60.167 -23.5 97.5v255c0 36.667 7.5 69.167 22.5 97.5
s35 52 60 71s53.5 33.333 85.5 43s65 14.5 99 14.5c40 0 79 -5.5 117 -16.5s70.333 -28.167 97 -51.5l-67 -106c-21.333 18 -45 30.5 -71 37.5s-50.667 10.5 -74 10.5c-16 0 -31.833 -2.16699 -47.5 -6.5s-29.667 -11.5 -42 -21.5s-22.5 -23 -30.5 -39s-12 -35.333 -12 -58
v-201c0 -22.667 3.66699 -41.834 11 -57.501s17 -28.5 29 -38.5s25.667 -17.333 41 -22s31 -7 47 -7c13.333 0 27.833 1.83301 43.5 5.5s31.167 11.834 46.5 24.501v115h-100v117h237v-290v0z" />
    <glyph glyph-name="H" unicode="H" horiz-adv-x="646" 
d="M449 0v288h-254v-288h-137v689h137v-277h254v277h139v-689h-139z" />
    <glyph glyph-name="I" unicode="I" horiz-adv-x="297" 
d="M217 689v-689h-137v689h137z" />
    <glyph glyph-name="J" unicode="J" horiz-adv-x="533" 
d="M462 216c0 -37.333 -6.83008 -69.834 -20.4971 -97.501s-31.834 -50.667 -54.501 -69s-48.834 -32.166 -78.501 -41.499s-60.167 -14 -91.5 -14c-38.667 0 -77.167 5.16699 -115.5 15.5s-70.5 26.166 -96.5 47.499l64 106c23.333 -17.333 45.666 -29.166 66.999 -35.499
s42.333 -9.5 63 -9.5c18 0 34.667 2.16699 50 6.5s28.5 11.666 39.5 21.999s19.667 23.833 26 40.5s9.5 37.334 9.5 62.001v440h138v-473v0z" />
    <glyph glyph-name="K" unicode="K" horiz-adv-x="628" 
d="M200 392l57 66l55 67l135 164h162l-229 -278l245 -411h-161l-174 303l-48 -55.5l-47 -55.5v-192h-137v689h137v-297h5z" />
    <glyph glyph-name="L" unicode="L" horiz-adv-x="545" 
d="M62 0v689h135v-567h341v-122h-476z" />
    <glyph glyph-name="M" unicode="M" horiz-adv-x="785" 
d="M585 370l-64 -127l-78 -148h-99l-77 145l-67 130h-4v-370h-136v689h126l123 -243l83 -170h6l84 174l118 239h126v-689h-137v370h-4z" />
    <glyph glyph-name="N" unicode="N" horiz-adv-x="675" 
d="M196 434v-434h-136v689h124l160 -236l131 -200h4v436h137v-689h-125l-175 260l-114 174h-6z" />
    <glyph glyph-name="O" unicode="O" horiz-adv-x="638" 
d="M584 220c0 -37.333 -7.00195 -70 -21.002 -98s-33 -51.667 -57 -71s-52.167 -33.833 -84.5 -43.5s-66.5 -14.5 -102.5 -14.5s-70.167 4.83301 -102.5 14.5s-60.5 24.167 -84.5 43.5s-43 43 -57 71s-21 60.667 -21 98v253c0 36.667 7.33301 69 22 97
s34.334 51.333 59.001 70s53 32.667 85 42s65 14 99 14s67 -5 99 -15s60.333 -24.5 85 -43.5s44.334 -42.667 59.001 -71s22 -60.833 22 -97.5v-249zM445.998 445c0 22.667 -3.66699 41.834 -11 57.501s-17 28.5 -29 38.5s-25.5 17.333 -40.5 22s-30.5 7 -46.5 7
s-31.667 -2.33301 -47 -7s-29 -12 -41 -22s-21.667 -22.833 -29 -38.5s-11 -34.834 -11 -57.501v-201c0 -22.667 3.66699 -42 11 -58s17 -29 29 -39s25.667 -17.167 41 -21.5s31 -6.5 47 -6.5s31.5 2.16699 46.5 6.5s28.5 11.5 40.5 21.5s21.667 23 29 39s11 35.333 11 58
v201z" />
    <glyph glyph-name="P" unicode="P" horiz-adv-x="576" 
d="M195 383h140c31.333 0 55 8.66699 71 26s24 39 24 65c0 26.667 -8.16699 48.667 -24.5 66s-39.833 26 -70.5 26h-140v-183zM366 689c34 0 63.333 -6.49902 88 -19.499s45.167 -29.833 61.5 -50.5s28.333 -43.834 36 -69.501s11.5 -50.834 11.5 -75.501
c0 -25.333 -4.5 -50.666 -13.5 -75.999s-22 -48.333 -39 -69s-38 -37.5 -63 -50.5s-53.5 -19.5 -85.5 -19.5h-167v-259h-137v689h308z" />
    <glyph glyph-name="Q" unicode="Q" horiz-adv-x="643" 
d="M381 -17c0 -14 1.16504 -25.001 3.49805 -33.001s6.5 -14 12.5 -18s14.167 -6.5 24.5 -7.5s23.5 -1.5 39.5 -1.5h15v-103c-3.33301 -0.666992 -7.83301 -1.16699 -13.5 -1.5l-17.5 -1c-6 -0.333008 -11.667 -0.5 -17 -0.5h-12c-48.667 0 -87.5 11.833 -116.5 35.5
s-43.5 57.834 -43.5 102.501v44c-28.667 4.66699 -55.334 13.167 -80.001 25.5s-46 28 -64 47s-32 41.167 -42 66.5s-15 53.666 -15 84.999v243c0 36.667 7.33301 69.334 22 98.001s34.334 52.667 59.001 72s53 34.166 85 44.499s65 15.5 99 15.5s67 -5 99 -15
s60.333 -24.667 85 -44s44.334 -43.166 59.001 -71.499s22 -60.833 22 -97.5v-245c0 -31.333 -5.16699 -59.833 -15.5 -85.5s-24.666 -48 -42.999 -67s-40 -34.5 -65 -46.5s-51.833 -20.333 -80.5 -25v-16zM446.998 416.999c0 56 -11.5 95.501 -34.5 118.501
s-53.833 34.5 -92.5 34.5c-16 0 -31.667 -2.33301 -47 -7s-29 -12 -41 -22s-21.667 -22.833 -29 -38.5s-11 -34.834 -11 -57.501v-175c0 -55.333 11.833 -94.5 35.5 -117.5s54.5 -34.5 92.5 -34.5c16 0 31.667 2.16699 47 6.5s28.833 11.5 40.5 21.5s21.167 23 28.5 39
s11 35.333 11 58v174z" />
    <glyph glyph-name="R" unicode="R" horiz-adv-x="594" 
d="M366 689c34.667 0 64.501 -6.49902 89.501 -19.499s45.667 -29.833 62 -50.5s28.333 -43.834 36 -69.501s11.5 -50.834 11.5 -75.501c0 -18 -2.5 -36.5 -7.5 -55.5s-12.333 -37 -22 -54s-21.5 -32.667 -35.5 -47s-30 -26.166 -48 -35.499l124 -282h-148
c-2.66699 7.33301 -6.83398 17.833 -12.501 31.5l-19 45.5l-22 52.5l-22 52.5l-19 45.5c-5.66699 13.667 -10.167 24.167 -13.5 31.5h-124v-259h-137v689h307zM196.001 383.001h138.999c32 0 56 8.5 72 25.5s24 38.833 24 65.5s-8.16699 48.667 -24.5 66
s-40.166 26 -71.499 26h-139v-183z" />
    <glyph glyph-name="S" unicode="S" horiz-adv-x="599" 
d="M565 199c0 -33.333 -6.66504 -62.8369 -19.998 -88.5039s-31.833 -47 -55.5 -64s-51.5 -29.833 -83.5 -38.5s-66.667 -13 -104 -13c-50 0 -97 7 -141 21s-87 38.667 -129 74l77 100c30 -23.333 61.167 -41.166 93.5 -53.499s64.5 -18.5 96.5 -18.5
c22 0 40.667 2.16699 56 6.5s27.666 10.333 36.999 18s16.166 16.334 20.499 26.001s6.5 19.5 6.5 29.5c0 15.333 -3.83301 28 -11.5 38s-18.667 18.5 -33 25.5s-31.333 13.333 -51 19l-65.5 18.5c-26.667 6.66699 -52.167 14.834 -76.5 24.501s-45.833 22 -64.5 37
s-33.5 33.333 -44.5 55s-16.5 47.834 -16.5 78.501c0 30 5.66699 57.667 17 83s27.166 47.166 47.499 65.499s45 32.666 74 42.999s61.167 15.5 96.5 15.5c42 0.666992 84 -3.33301 126 -12s82.667 -26 122 -52l-60 -110c-32 19.333 -62.333 32.666 -91 39.999
s-57 11 -85 11c-13.333 0 -26.5 -1.66699 -39.5 -5s-24.667 -8.16602 -35 -14.499s-18.666 -14.666 -24.999 -24.999s-9.5 -22.5 -9.5 -36.5s3.5 -25.833 10.5 -35.5s17.167 -18 30.5 -25s29.5 -13.167 48.5 -18.5s40.5 -10.666 64.5 -15.999
c72.667 -16 127 -40.333 163 -73s54 -76 54 -130z" />
    <glyph glyph-name="T" unicode="T" horiz-adv-x="526" 
d="M332 565v-565h-137v565h-183v124h502v-124h-182z" />
    <glyph glyph-name="U" unicode="U" horiz-adv-x="644" 
d="M587 219c0 -37.333 -7.33105 -70.001 -21.998 -98.001s-34.334 -51.5 -59.001 -70.5s-53 -33.333 -85 -43s-65 -14.5 -99 -14.5s-67 4.66699 -99 14s-60.167 23.333 -84.5 42s-43.833 41.834 -58.5 69.501s-22 60.167 -22 97.5v473h136v-447
c0 -22.667 3.66699 -41.834 11 -57.501s17 -28.5 29 -38.5s25.667 -17.333 41 -22s31 -7 47 -7c15.333 0 30.666 2.33301 45.999 7s29 12 41 22s21.667 22.833 29 38.5s11 34.834 11 57.501v447h138v-470v0z" />
    <glyph glyph-name="V" unicode="V" horiz-adv-x="604" 
d="M307 202l70 245l72 242h144l-220 -689h-142l-221 689h147l75 -249l69 -238h6z" />
    <glyph glyph-name="W" unicode="W" horiz-adv-x="908" 
d="M450 455l-49 -196l-64 -259h-151l-176 689h146l60 -272l46 -213h7l53 215l68 270h128l72 -284l50 -201h6l43 203l63 282h146l-178 -689h-149l-64 260l-50 195h-7z" />
    <glyph glyph-name="X" unicode="X" horiz-adv-x="595" 
d="M298 238l-137 -238h-155l219 353l-206 336h156l123 -221l123 221h154l-204 -336l218 -353h-155z" />
    <glyph glyph-name="Y" unicode="Y" horiz-adv-x="576" 
d="M292 401l58 134l69 154h146l-208 -419v-270h-137v270l-210 419h147l71 -158l57 -130h7z" />
    <glyph glyph-name="Z" unicode="Z" horiz-adv-x="540" 
d="M32 118l311 449h-298v122h463v-114l-315 -453h315v-122h-476v118z" />
    <glyph glyph-name="bracketleft" unicode="[" horiz-adv-x="296" 
d="M69 -98v797h209v-90h-93v-619h93v-88h-209z" />
    <glyph glyph-name="backslash" unicode="\" horiz-adv-x="351" 
d="M-11 725h103l252 -767h-102z" />
    <glyph glyph-name="bracketright" unicode="]" horiz-adv-x="296" 
d="M21 -98v88h92v619h-92v90h208v-797h-208z" />
    <glyph glyph-name="asciicircum" unicode="^" horiz-adv-x="534" 
d="M401 267l-132 299l-134 -300h-110l196 429h96l195 -428h-111z" />
    <glyph glyph-name="underscore" unicode="_" horiz-adv-x="500" 
d="M0 -150v81h500v-81h-500z" />
    <glyph glyph-name="grave" unicode="`" horiz-adv-x="508" 
d="M269 541l-130 182l116 39l86 -188z" />
    <glyph glyph-name="a" unicode="a" horiz-adv-x="525" 
d="M347 41c-30 -17.333 -56.998 -29.167 -80.998 -35.5s-46.333 -9.5 -67 -9.5c-50.667 0 -89.834 13.5 -117.501 40.5s-41.5 63.833 -41.5 110.5c0 27.333 5.66699 50.5 17 69.5s25.833 34.5 43.5 46.5s37.167 20.667 58.5 26s41.666 8 60.999 8h128v21
c0 23.333 -6.66699 40.833 -20 52.5s-37 17.5 -71 17.5c-16 0 -35.833 -2.33301 -59.5 -7s-47.5 -16.667 -71.5 -36l-57 93c34.667 26.667 69.5 44 104.5 52s67.167 12 96.5 12c70.667 0 122.667 -16 156 -48s50 -80.333 50 -145v-309h-117l-9 40zM349.002 202.999h-106
c-8 0 -15.833 -0.5 -23.5 -1.5s-14.667 -3.33301 -21 -7s-11.5 -8.66699 -15.5 -15s-6 -14.5 -6 -24.5c0 -13.333 4.83301 -24.166 14.5 -32.499s24.167 -12.5 43.5 -12.5c21.333 0 42.333 4.16699 63 12.5s37.667 16.166 51 23.499v57z" />
    <glyph glyph-name="b" unicode="b" horiz-adv-x="525" 
d="M482 176c0 -60.667 -15.1689 -105.833 -45.502 -135.5s-71.5 -44.5 -123.5 -44.5c-17.333 0 -37.666 3.5 -60.999 10.5s-48.666 18.167 -75.999 33.5l-10 -40h-117v716h127v-261c32 18.667 59.833 31 83.5 37s44.167 9 61.5 9c56.667 0 97.667 -16.333 123 -49
s38 -76 38 -130v-146zM353.998 305.001c0 28 -6 47.5 -18 58.5s-26.667 16.5 -44 16.5c-16 0 -34.167 -4.5 -54.5 -13.5s-40.833 -19.833 -61.5 -32.5v-183c6.66699 -4.66699 15.167 -9.33398 25.5 -14.001s20.833 -8.66699 31.5 -12s21.167 -6.16602 31.5 -8.49902
s19.5 -3.5 27.5 -3.5c17.333 0 32 6 44 18s18 31.333 18 58v116z" />
    <glyph glyph-name="c" unicode="c" horiz-adv-x="453" 
d="M436 68c-14.667 -15.333 -29.667 -27.833 -45 -37.5s-31 -17.167 -47 -22.5s-31.833 -8.83301 -47.5 -10.5s-31.5 -2.5 -47.5 -2.5c-27.333 0 -53.333 3.66699 -78 11s-46.334 18.5 -65.001 33.5s-33.5 33.667 -44.5 56s-16.5 48.5 -16.5 78.5v146c0 30 6 56.333 18 79
s27.667 41.5 47 56.5s41.166 26.333 65.499 34s48.833 11.5 73.5 11.5c15.333 0 31 -0.666992 47 -2s31.833 -4.33301 47.5 -9s31.167 -11.5 46.5 -20.5s30.333 -21.167 45 -36.5l-73 -93c-23.333 20.667 -43.166 33.167 -59.499 37.5s-30.5 6.5 -42.5 6.5
c-10 0 -20.333 -1.5 -31 -4.5s-20.167 -8 -28.5 -15s-15.166 -16 -20.499 -27s-8 -24.167 -8 -39.5v-99c0 -16 2.5 -29.5 7.5 -40.5s11.5 -20 19.5 -27s17.167 -12 27.5 -15s20.833 -4.5 31.5 -4.5c13.333 0 29.5 3 48.5 9s36.833 17.333 53.5 34z" />
    <glyph glyph-name="d" unicode="d" horiz-adv-x="525" 
d="M42 322c0 54 15 97.332 45 129.999s72.667 49 128 49c17.333 0 38 -1.83301 62 -5.5s47.667 -11.167 71 -22.5v243h128v-716h-118l-10 46c-28 -17.333 -53.833 -30.166 -77.5 -38.499s-44.167 -12.5 -61.5 -12.5c-54 0 -95.333 14.833 -124 44.5s-43 75.167 -43 136.5
v146zM170 186.999c0 -28.667 6.16797 -48.166 18.501 -58.499s27.166 -15.5 44.499 -15.5c8 0 16.833 1.16699 26.5 3.5s19.667 5.5 30 9.5s20.5 8.5 30.5 13.5s19.333 10.5 28 16.5v198c-21.333 9.33301 -40.333 16.166 -57 20.499s-33 6.5 -49 6.5c-20 0 -37 -6 -51 -18
s-21 -32 -21 -60v-116z" />
    <glyph glyph-name="e" unicode="e" horiz-adv-x="508" 
d="M172 210l-0.00195312 -15.999c0 -14.667 2.5 -27.334 7.5 -38.001s11.667 -19.334 20 -26.001s17.833 -11.667 28.5 -15s22 -5 34 -5c14 0 31.333 2.16699 52 6.5s42.667 15.833 66 34.5l70 -87c-15.333 -14.667 -30.666 -26.5 -45.999 -35.5s-30.666 -16 -45.999 -21
s-30.833 -8.33301 -46.5 -10s-31.5 -2.5 -47.5 -2.5c-29.333 0 -57.166 3.66699 -83.499 11s-49.5 18.5 -69.5 33.5s-36 33.833 -48 56.5s-18 49.667 -18 81v128c0 30.667 5.5 58.167 16.5 82.5s26.167 44.833 45.5 61.5s41.666 29.334 66.999 38.001s52.666 13 81.999 13
c30.667 0 59 -4.33301 85 -13s48.333 -21.167 67 -37.5s33.334 -36.5 44.001 -60.5s16 -51.333 16 -82v-97h-296zM340.998 303.001c0 28 -8.33203 48.5 -24.999 61.5s-36.334 19.5 -59.001 19.5c-23.333 0 -43.333 -7.33301 -60 -22s-25 -35.667 -25 -63v-6h169v10z" />
    <glyph glyph-name="f" unicode="f" horiz-adv-x="318" 
d="M203 391v-391h-124v391h-57v103h57v82c0 24 3.83301 44.667 11.5 62s18 31.833 31 43.5s28.5 20.334 46.5 26.001s37 8.5 57 8.5h87v-106h-65c-16 0 -27.333 -4.33301 -34 -13s-10 -20.334 -10 -35.001v-68h109v-103h-109z" />
    <glyph glyph-name="g" unicode="g" horiz-adv-x="524" 
d="M475 -27c0 -30.667 -7.16602 -57.332 -21.499 -79.999s-32.5 -41.334 -54.5 -56.001s-46.5 -25.5 -73.5 -32.5s-53.167 -10.5 -78.5 -10.5c-16 0 -32.5 1.16699 -49.5 3.5s-34.167 6.5 -51.5 12.5s-34.333 14.167 -51 24.5s-32.334 23.5 -47.001 39.5l82 84
c8 -9.33301 17.167 -17 27.5 -23s21 -10.667 32 -14s21.5 -5.83301 31.5 -7.5s18.667 -2.5 26 -2.5c13.333 0 26.166 1.5 38.499 4.5s23 8 32 15s16.167 15.833 21.5 26.5s8 24 8 40v48c-29.333 -17.333 -56.333 -29 -81 -35s-45.667 -9 -63 -9
c-55.333 0 -96.166 16.167 -122.499 48.5s-39.5 75.5 -39.5 129.5v139c0 58.667 14.667 103.667 44 135s70 47 122 47c17.333 0 38 -3.5 62 -10.5s50 -19.167 78 -36.5l10 41h118v-521zM169.001 196.002c0 -28 5.99805 -47.5 17.998 -58.5s27 -16.5 45 -16.5
c16 0 34.167 4 54.5 12s40.5 18.333 60.5 31v173c-17.333 12.667 -36.666 23.167 -57.999 31.5s-40.333 12.5 -57 12.5c-17.333 0 -32.166 -5.83301 -44.499 -17.5s-18.5 -31.167 -18.5 -58.5v-109z" />
    <glyph glyph-name="h" unicode="h" horiz-adv-x="529" 
d="M357 0l0.000976562 304.999c0 28 -6.66699 47.5 -20 58.5s-28.333 16.5 -45 16.5c-15.333 0 -32.333 -3.5 -51 -10.5s-40.334 -18.167 -65.001 -33.5v-336h-127v716h127v-266c36 22.667 66.333 36.834 91 42.501s45.667 8.5 63 8.5c56 0 96 -16.5 120 -49.5
s36 -76.5 36 -130.5v-321h-129z" />
    <glyph glyph-name="i" unicode="i" horiz-adv-x="269" 
d="M71 0v494h127v-494h-127zM63 628c0 20 7 37 21 51s30.667 21 50 21s36 -7 50 -21s21 -31 21 -51s-7 -36.833 -21 -50.5s-30.667 -20.5 -50 -20.5s-36 6.83301 -50 20.5s-21 30.5 -21 50.5z" />
    <glyph glyph-name="j" unicode="j" horiz-adv-x="272" 
d="M203 -52c0 -48 -14.667 -84.832 -44 -110.499s-67.333 -38.5 -114 -38.5h-57v109h32c22.667 0 37.5 5.66699 44.5 17s10.5 25.666 10.5 42.999v526h128v-546zM68 629.001c0 19.333 6.83301 36 20.5 50s30.5 21 50.5 21s37 -7 51 -21s21 -30.667 21 -50
c0 -20 -7 -36.833 -21 -50.5s-31 -20.5 -51 -20.5s-36.833 6.83301 -50.5 20.5s-20.5 30.5 -20.5 50.5z" />
    <glyph glyph-name="k" unicode="k" horiz-adv-x="517" 
d="M49 0l0.000976562 716h128v-368h41c19.333 0 35.166 4.33301 47.499 13s23.5 23 33.5 43l46 92h144l-60 -124c-9.33301 -19.333 -19.333 -35.666 -30 -48.999s-26 -23.666 -46 -30.999c14 -4.66699 25.667 -10.834 35 -18.501s17 -16.167 23 -25.5s11 -19.333 15 -30
s7.66699 -21.334 11 -32.001l62 -186h-143l-50 161c-8 24.667 -18.5 42.167 -31.5 52.5s-32.167 15.5 -57.5 15.5h-40v-229h-128z" />
    <glyph glyph-name="l" unicode="l" horiz-adv-x="285" 
d="M194 159c0 -11.333 0.834961 -20.332 2.50195 -26.999s5 -11.834 10 -15.501s11.833 -6.16699 20.5 -7.5s20 -2 34 -2l2 -107c-11.333 -2 -22 -3.33301 -32 -4s-19.667 -1 -29 -1c-30 0 -53.833 3.33301 -71.5 10s-31.334 16.167 -41.001 28.5s-15.834 27 -18.501 44
s-4 36.167 -4 57.5v581h127v-557z" />
    <glyph glyph-name="m" unicode="m" horiz-adv-x="792" 
d="M310 501c30.667 0 56.3291 -6 76.9961 -18s36.667 -28.667 48 -50c20.667 15.333 39 27.5 55 36.5s30.333 15.833 43 20.5s23.834 7.66699 33.501 9s18.834 2 27.501 2c54 0 93 -16.667 117 -50s36 -77 36 -131v-320h-127v307c0 26.667 -5.5 45.334 -16.5 56.001
s-25.167 16 -42.5 16c-14.667 0 -29.5 -3.33301 -44.5 -10s-33.833 -18.334 -56.5 -35.001c0.666992 -8 1 -15.833 1 -23.5v-23.5v-287h-128v308c0 27.333 -5.66699 46 -17 56s-24.333 15 -39 15c-15.333 0 -30.5 -3 -45.5 -9s-34.167 -17 -57.5 -33v-337h-127v494h117
l10 -45c16.667 11.333 31.667 20.5 45 27.5s25.333 12.333 36 16s20.334 6 29.001 7s17.334 1.5 26.001 1.5z" />
    <glyph glyph-name="n" unicode="n" horiz-adv-x="529" 
d="M356 0l0.000976562 305c0 28 -6.33301 47.5 -19 58.5s-28 16.5 -46 16.5c-15.333 0 -32.333 -3.5 -51 -10.5s-40.334 -18.167 -65.001 -33.5v-336h-127v494h117l10 -43c36.667 22.667 67.5 36.667 92.5 42s45.833 8 62.5 8c54.667 0 94.167 -16.167 118.5 -48.5
s36.5 -75.5 36.5 -129.5v-323h-129z" />
    <glyph glyph-name="o" unicode="o" horiz-adv-x="519" 
d="M476 176c0 -30.667 -6.16406 -57.335 -18.4971 -80.002s-28.666 -41.5 -48.999 -56.5s-43.5 -26.167 -69.5 -33.5s-52.667 -11 -80 -11c-28 0 -55 3.66699 -81 11s-49.167 18.5 -69.5 33.5s-36.5 33.833 -48.5 56.5s-18 49.334 -18 80.001v143
c0 30.667 6.16699 57.334 18.5 80.001s28.666 41.5 48.999 56.5s43.666 26.333 69.999 34s53.166 11.5 80.499 11.5c29.333 0 57.166 -3.83301 83.499 -11.5s49.333 -19.167 69 -34.5s35.167 -34.5 46.5 -57.5s17 -49.833 17 -80.5v-141zM349.003 296.999
c0 16 -2.66797 29.333 -8.00098 40s-12.333 19.5 -21 26.5s-18.167 12 -28.5 15s-20.833 4.5 -31.5 4.5s-21.5 -1.5 -32.5 -4.5s-20.833 -8 -29.5 -15s-15.667 -15.833 -21 -26.5s-8 -24 -8 -40v-98c0 -16 2.5 -29.5 7.5 -40.5s11.833 -20 20.5 -27s18.334 -12 29.001 -15
s22 -4.5 34 -4.5c10.667 0 21.167 1.5 31.5 4.5s19.833 8 28.5 15s15.667 16 21 27s8 24.5 8 40.5v98z" />
    <glyph glyph-name="p" unicode="p" horiz-adv-x="525" 
d="M484 173c0 -54 -14.667 -97.5 -44 -130.5s-72.666 -49.5 -129.999 -49.5c-17.333 0 -37.833 1.66699 -61.5 5s-47.5 11.333 -71.5 24v-220h-127v692h117l10 -45c28 17.333 54.333 30 79 38s45.667 12 63 12c53.333 0 94.166 -14.667 122.499 -44s42.5 -75 42.5 -137v-145
zM355 307c0 28.667 -6 48.1689 -18 58.502s-26.667 15.5 -44 15.5c-8 0 -16.833 -1.16699 -26.5 -3.5s-19.834 -5.5 -30.501 -9.5s-21 -8.5 -31 -13.5s-19.333 -10.5 -28 -16.5v-197c22.667 -10.667 42.334 -17.834 59.001 -21.501s32.667 -5.5 48 -5.5
c19.333 -0.666992 36 4.66602 50 15.999s21 31 21 59v118z" />
    <glyph glyph-name="q" unicode="q" horiz-adv-x="523" 
d="M41 320c0 60.667 15.333 106 46 136s72 45 124 45c17.333 0 37.5 -3.66699 60.5 -11s48.5 -19.333 76.5 -36l10 40h117v-692h-127v237c-31.333 -17.333 -58.833 -28.833 -82.5 -34.5s-44.167 -8.5 -61.5 -8.5c-55.333 0 -96.333 16.333 -123 49s-40 76 -40 130v145z
M170 192c0 -28 5.99902 -47.502 17.999 -58.502s27 -16.5 45 -16.5c15.333 0 33 3.83301 53 11.5s40.667 18.167 62 31.5v185c-8 4.66699 -17 9.33398 -27 14.001s-20.333 8.83398 -31 12.501s-21 6.66699 -31 9s-18.667 3.5 -26 3.5c-17.333 0 -32.166 -6 -44.499 -18
s-18.5 -31.333 -18.5 -58v-116z" />
    <glyph glyph-name="r" unicode="r" horiz-adv-x="380" 
d="M371 371c-44 -4 -80.168 -10.833 -108.501 -20.5s-54.166 -21.5 -77.499 -35.5v-315h-127v496h117l9 -73h1c8.66699 8.66699 20.167 17.667 34.5 27s29.833 17.833 46.5 25.5s34 14 52 19s35.667 7.5 53 7.5v-131z" />
    <glyph glyph-name="s" unicode="s" horiz-adv-x="467" 
d="M236 -5c-18 0 -36.166 0.831055 -54.499 2.49805s-36.666 5 -54.999 10s-36.666 12.167 -54.999 21.5s-36.833 22 -55.5 38l69 91c24.667 -20.667 49.334 -34.834 74.001 -42.501s49.667 -11.5 75 -11.5c22.667 0 41.334 4.16699 56.001 12.5s22 19.833 22 34.5
c0 12 -4.5 21.667 -13.5 29s-24.833 13 -47.5 17s-46.167 8.5 -70.5 13.5s-46.5 12.5 -66.5 22.5s-36.333 23.667 -49 41s-19 40.333 -19 69c0 26 5.33301 48.833 16 68.5s24.667 36 42 49s37.166 22.833 59.499 29.5s45.5 10 69.5 10c39.333 0 75 -3.5 107 -10.5
s63.667 -22.5 95 -46.5l-60 -95c-25.333 17.333 -49.833 28.5 -73.5 33.5s-45.834 7.5 -66.501 7.5c-22 0 -38.167 -4.33301 -48.5 -13s-15.5 -18.667 -15.5 -30c0 -12.667 6.66699 -21.667 20 -27s30.166 -10 50.499 -14l65.5 -13
c23.333 -4.66699 45.166 -12.167 65.499 -22.5s37.166 -24.666 50.499 -42.999s20 -43.166 20 -74.499c0 -26 -5.5 -48.667 -16.5 -68s-26 -35.666 -45 -48.999s-41 -23.333 -66 -30s-51.5 -10 -79.5 -10z" />
    <glyph glyph-name="t" unicode="t" horiz-adv-x="377" 
d="M24 391v102.997h64l22 124h102v-124h120v-103h-120v-206c0 -23.333 3.83301 -41.666 11.5 -54.999s25.5 -20 53.5 -20c9.33301 0 20 0.833008 32 2.5s25.333 4.5 40 8.5l23 -108c-21.333 -8 -43.5 -13.167 -66.5 -15.5s-42.5 -3.5 -58.5 -3.5
c-32 0 -58.5 4.33301 -79.5 13s-37.5 20.834 -49.5 36.501s-20.333 34.334 -25 56.001s-7 45.167 -7 70.5v221h-62z" />
    <glyph glyph-name="u" unicode="u" horiz-adv-x="531" 
d="M173 494v-305.001c0 -28 7 -47.5 21 -58.5s29 -16.5 45 -16.5c15.333 0 32 3.5 50 10.5s39.667 18.833 65 35.5v334h128v-494h-118l-10 43c-36 -22 -66 -35.833 -90 -41.5s-44.333 -8.5 -61 -8.5c-28 0 -52 4.66699 -72 14s-36.333 22.333 -49 39s-22 36.334 -28 59.001
s-9 47.667 -9 75v314h128z" />
    <glyph glyph-name="v" unicode="v" horiz-adv-x="504" 
d="M257 162l51 170l51 164h138l-178 -496h-134l-179 496h143l51 -163l11 -36.5l15 -49l15.5 -49l11.5 -36.5h4z" />
    <glyph glyph-name="w" unicode="w" horiz-adv-x="726" 
d="M224 181c1.33301 4.66699 4.33398 14.167 9.00098 28.5l15 46l15 46c4.66699 14.333 8 24.166 10 29.499c1.33301 4.66699 3.83301 12.667 7.5 24l11.5 35.5l11 34.5c3.33301 10.667 5.66602 18.334 6.99902 23.001h108l42 -128l44 -144h4
c1.33301 6 3.83301 16.667 7.5 32l11.5 49l11 49.5l7 32.5l38 157h133l-137 -496h-129l-43 132l-42 133l-4 1c-2 -4.66699 -5 -13.5 -9 -26.5l-13 -42l-13 -42c-4 -13 -6.66699 -21.833 -8 -26.5l-42 -129h-127l-139 496h134l40 -164l35 -151h5z" />
    <glyph glyph-name="x" unicode="x" horiz-adv-x="507" 
d="M349 0l-97 156l-97 -156h-152l182 252l-174 243h152l89 -148l91 148h152l-176 -242l183 -253h-153z" />
    <glyph glyph-name="y" unicode="y" horiz-adv-x="491" 
d="M99 -199l76 210l-29 22l-136 463h131l46 -187l43 -165h3l55 167l60 185h132l-253 -695h-128z" />
    <glyph glyph-name="z" unicode="z" horiz-adv-x="474" 
d="M37 0v102l246 286h-232v107h387v-100l-246 -284h246v-111h-401z" />
    <glyph glyph-name="braceleft" unicode="{" horiz-adv-x="296" 
d="M199 -96c-33.333 0 -60.001 10.999 -80.001 32.999s-30 54 -30 96v100c0 38.667 -5 68.5 -15 89.5s-30.333 32.167 -61 33.5v86c25.333 2 44.333 12.167 57 30.5s19 42.833 19 73.5v131c0 36 10.667 64.833 32 86.5s47.333 32.5 78 32.5h88v-86h-41
c-8 0 -14.667 -2.16699 -20 -6.5s-9.66602 -9.66602 -12.999 -15.999s-5.66602 -13.5 -6.99902 -21.5s-2 -15.667 -2 -23v-120c0 -17.333 -2.33301 -32.833 -7 -46.5s-10.834 -25.5 -18.501 -35.5s-16 -18.333 -25 -25s-17.5 -12 -25.5 -16v-1
c19.333 -7.33301 36.833 -20.833 52.5 -40.5s23.5 -46.5 23.5 -80.5v-122c0 -7.33301 0.333008 -15 1 -23s2.5 -15.333 5.5 -22s7.16699 -12.167 12.5 -16.5s13 -6.5 23 -6.5h41v-84h-88z" />
    <glyph glyph-name="bar" unicode="|" horiz-adv-x="241" 
d="M68 -206v932h104v-932h-104z" />
    <glyph glyph-name="braceright" unicode="}" horiz-adv-x="296" 
d="M285 256c-30 -1.33301 -50.332 -12.499 -60.999 -33.499s-16 -50.833 -16 -89.5v-100c0 -38.667 -9.66699 -69.834 -29 -93.501s-46 -35.5 -80 -35.5h-88v84h41c10 0 17.667 2.16699 23 6.5s9.5 9.83301 12.5 16.5s4.83301 14 5.5 22s1 15.667 1 23v122
c0 34 7.83301 60.833 23.5 80.5s33.167 33.167 52.5 40.5v1c-8.66699 4 -17.5 9.33301 -26.5 16s-17.167 15 -24.5 25s-13.333 21.833 -18 35.5s-7 29.167 -7 46.5v120c0 7.33301 -0.5 15 -1.5 23s-3 15.167 -6 21.5s-7.33301 11.666 -13 15.999s-12.834 6.5 -21.501 6.5
h-41v84h87c32.667 0 59.167 -10.667 79.5 -32s30.5 -49.666 30.5 -84.999v-131c0 -31.333 6.5 -56 19.5 -74s32.167 -28 57.5 -30v-86v0z" />
    <glyph glyph-name="asciitilde" unicode="~" horiz-adv-x="534" 
d="M167 350c16 0 32.501 -3.33398 49.501 -10.001s34 -14.167 51 -22.5s33.667 -15.833 50 -22.5s31.5 -10 45.5 -10c5.33301 0 10.833 0.666992 16.5 2s11.667 4.33301 18 9s13.333 11.5 21 20.5s16.167 21.167 25.5 36.5l80 -56c-40.667 -76 -93.334 -114 -158.001 -114
c-17.333 0 -34.166 3.33301 -50.499 10s-32.833 14 -49.5 22s-33.334 15.333 -50.001 22s-33.667 10 -51 10c-15.333 0 -29.333 -4 -42 -12s-26.667 -22.667 -42 -44l-71 60c16 28.667 36.333 52.334 61 71.001s56.667 28 96 28z" />
    <glyph glyph-name="exclamdown" unicode="&#xa1;" horiz-adv-x="266" 
d="M189 287l7 -489h-125l7 489h111zM133 501c23.333 0 42.334 -7.83203 57.001 -23.499s22 -34.834 22 -57.501c0 -21.333 -7.5 -39.5 -22.5 -54.5s-33.167 -22.5 -54.5 -22.5c-22.667 0 -41.834 7.5 -57.501 22.5s-23.5 33.167 -23.5 54.5c0 22 7.16699 41 21.5 57
s33.5 24 57.5 24z" />
    <glyph glyph-name="cent" unicode="&#xa2;" horiz-adv-x="453" 
d="M436 68c-25.333 -26 -51.001 -44 -77.001 -54s-52.333 -16 -79 -18v-127h-53v127c-25.333 2 -49 7.16699 -71 15.5s-41.167 19.833 -57.5 34.5s-29.333 32.667 -39 54s-14.5 46 -14.5 74v146c0 28 5.16699 52.667 15.5 74s24 39.5 41 54.5s36.333 26.833 58 35.5
s44.167 14 67.5 16v123h53v-123c26 -1.33301 52.167 -6.5 78.5 -15.5s51.833 -26.167 76.5 -51.5l-73 -93c-17.333 15.333 -32.666 26 -45.999 32s-25.333 9.66699 -36 11v-269c12 2 25.167 6.16699 39.5 12.5s27.833 15.833 40.5 28.5zM171.999 199
c0 -24 5.33301 -42.5 16 -55.5s23.667 -22.167 39 -27.5v263c-15.333 -5.33301 -28.333 -14.5 -39 -27.5s-16 -30.833 -16 -53.5v-99z" />
    <glyph glyph-name="sterling" unicode="&#xa3;" horiz-adv-x="534" 
d="M402 521c-19.333 25.333 -39.333 42.1689 -60 50.502s-39.334 12.5 -56.001 12.5c-21.333 0 -40 -6.66699 -56 -20s-24 -34 -24 -62c0 -10.667 1.5 -21 4.5 -31s6.83301 -20.333 11.5 -31s9.16699 -22 13.5 -34s8.16602 -25 11.499 -39h147v-93h-144
c-2 -28.667 -6.5 -57 -13.5 -85s-18.167 -54.667 -33.5 -80h292v-109h-453v94c21.333 28 38.333 56 51 84s20.334 60 23.001 96h-78v93h67c-7.33301 25.333 -15.833 49.333 -25.5 72s-14.5 44.667 -14.5 66c0 25.333 4.33301 49.666 13 72.999s21.834 44 39.501 62
s40 32.333 67 43s58.833 16 95.5 16c41.333 0 80.333 -6.83301 117 -20.5s69.667 -39.834 99 -78.501z" />
    <glyph glyph-name="currency" unicode="&#xa4;" horiz-adv-x="556" 
d="M30 499l65.999 66.001l68 -68c18.667 11.333 37.167 19.833 55.5 25.5s37.166 8.5 56.499 8.5c20.667 0 40 -2.66699 58 -8s36 -13.666 54 -24.999l67 67l66 -67l-68 -67c10.667 -18 19 -36.167 25 -54.5s9 -36.833 9 -55.5c0 -20.667 -2.83301 -39.834 -8.5 -57.501
s-14.167 -35.834 -25.5 -54.501l34.5 -32.5c13 -12.333 24.167 -23.5 33.5 -33.5l-66 -66l-66 67c-36 -22.667 -73.667 -34 -113 -34c-19.333 0 -38.666 3 -57.999 9s-37.666 14.333 -54.999 25l-67 -67l-66 65l68 67c-22 36.667 -33 74 -33 112c0 36 11.333 72.667 34 110z
M159.999 321.001c0 -16 3.00098 -31.001 9.00098 -45.001s14.167 -26.167 24.5 -36.5s22.5 -18.666 36.5 -24.999s29 -9.5 45 -9.5s31 3 45 9s26.333 14.333 37 25s19 23 25 37s9 29 9 45s-3 31 -9 45s-14.333 26.167 -25 36.5s-23 18.5 -37 24.5s-29 9 -45 9
s-30.833 -3 -44.5 -9s-25.834 -14.167 -36.501 -24.5s-19 -22.5 -25 -36.5s-9 -29 -9 -45z" />
    <glyph glyph-name="yen" unicode="&#xa5;" horiz-adv-x="534" 
d="M55 232h143v38l-15 31h-126v84h91l-133 304h147l101 -291h7l100 291h147l-133 -304h97v-84h-133l-13 -31v-38h146v-82h-146v-150h-137v150h-143v82z" />
    <glyph glyph-name="brokenbar" unicode="&#xa6;" horiz-adv-x="241" 
d="M68 290v436h104v-436h-104zM172 228v-434h-104v434h104z" />
    <glyph glyph-name="section" unicode="&#xa7;" horiz-adv-x="446" 
d="M414 302c0 -19.333 -4.00586 -38.832 -12.0059 -58.499s-21 -39.5 -39 -59.5c7.33301 -10 13.833 -21.5 19.5 -34.5s8.5 -27.5 8.5 -43.5c0 -27.333 -5.16699 -51.166 -15.5 -71.499s-24.166 -37 -41.499 -50s-37.166 -22.667 -59.499 -29s-45.166 -9.5 -68.499 -9.5
c-27.333 0 -54.166 3.66699 -80.499 11s-50.166 18.666 -71.499 33.999l42 85c16.667 -11.333 34.334 -20.166 53.001 -26.499s37.667 -9.5 57 -9.5c16.667 0 31.5 4.5 44.5 13.5s19.5 23.167 19.5 42.5c0 17.333 -6 32.666 -18 45.999s-34 27 -66 41
c-19.333 8.66699 -38 18 -56 28s-34 21.5 -48 34.5s-25.167 28 -33.5 45s-12.5 36.833 -12.5 59.5c0 17.333 3.66699 36 11 56s21.333 40 42 60c-18 22 -27 47.667 -27 77c0 26.667 5 50 15 70s23.333 36.5 40 49.5s36 22.667 58 29s45 9.5 69 9.5
c25.333 0 51.5 -3.16699 78.5 -9.5s51.167 -16.833 72.5 -31.5l-25 -44l-24 -44c-18.667 11.333 -35.834 19.833 -51.501 25.5s-32.5 8.5 -50.5 8.5c-15.333 0 -29.5 -4.66699 -42.5 -14s-19.5 -22.666 -19.5 -39.999c0 -22.667 12.333 -42.334 37 -59.001
c22.667 -15.333 45.667 -28.333 69 -39s44.333 -22.334 63 -35.001s33.834 -28 45.501 -46s17.5 -41.667 17.5 -71zM168.994 402.001c-12.667 -12.667 -19 -26.666 -19 -41.999c0 -14 4.16699 -26 12.5 -36s18.833 -19.167 31.5 -27.5s26.5 -16.166 41.5 -23.499l43.5 -22
c13.333 12 20 25.333 20 40c0 14 -4.16699 26.167 -12.5 36.5s-18.833 19.666 -31.5 27.999s-26.667 16.166 -42 23.499s-30 15 -44 23z" />
    <glyph glyph-name="dieresis" unicode="&#xa8;" horiz-adv-x="491" 
d="M275 625c0 19.333 6.66699 35.5 20 48.5s29.666 19.5 48.999 19.5s35.5 -6.5 48.5 -19.5s19.5 -29.167 19.5 -48.5c0 -18.667 -6.5 -34.667 -19.5 -48s-29.167 -20 -48.5 -20s-35.666 6.66699 -48.999 20s-20 29.333 -20 48zM78 625c0 19.333 6.5 35.5 19.5 48.5
s29.167 19.5 48.5 19.5s35.5 -6.5 48.5 -19.5s19.5 -29.167 19.5 -48.5c0 -18.667 -6.5 -34.667 -19.5 -48s-29.167 -20 -48.5 -20s-35.5 6.66699 -48.5 20s-19.5 29.333 -19.5 48z" />
    <glyph glyph-name="copyright" unicode="&#xa9;" horiz-adv-x="815" 
d="M409 -14c-50 0 -96.668 8.66895 -140.001 26.002s-80.666 41.833 -111.999 73.5s-56 69.334 -74 113.001s-27 91.5 -27 143.5c0 51.333 9 98.833 27 142.5s42.833 81.334 74.5 113.001s69 56.5 112 74.5s89.5 27 139.5 27s96.5 -8.83301 139.5 -26.5
s80.333 -42.334 112 -74.001s56.5 -69.334 74.5 -113.001s27 -91.5 27 -143.5c0 -51.333 -9 -98.833 -27 -142.5s-42.833 -81.334 -74.5 -113.001s-69 -56.334 -112 -74.001s-89.5 -26.5 -139.5 -26.5zM408.999 625.002c-38.667 0 -74.667 -7.16797 -108 -21.501
s-62.166 -34.166 -86.499 -59.499s-43.5 -55.333 -57.5 -90s-21 -72 -21 -112s7 -77.333 21 -112s33.167 -64.667 57.5 -90s53.166 -45.166 86.499 -59.499s69.333 -21.5 108 -21.5s74.667 7.16699 108 21.5s62.166 34.166 86.499 59.499s43.333 55.333 57 90
s20.5 72 20.5 112c0 41.333 -6.83301 79.333 -20.5 114s-32.667 64.5 -57 89.5s-53.166 44.5 -86.499 58.5s-69.333 21 -108 21zM507.999 445.001c-14 12 -29.168 20.502 -45.501 25.502s-32.166 7.5 -47.499 7.5c-10 0 -20 -1.5 -30 -4.5s-19.167 -7.83301 -27.5 -14.5
s-15 -15.334 -20 -26.001s-7.5 -23.334 -7.5 -38.001v-119c0 -14.667 2.66699 -27.334 8 -38.001s12 -19.334 20 -26.001s17 -11.5 27 -14.5s20 -4.5 30 -4.5c15.333 0 30.833 2.33301 46.5 7s31.5 13.334 47.5 26.001l44 -69c-17.333 -13.333 -38 -24.333 -62 -33
s-49.667 -13 -77 -13c-21.333 0 -42.333 3.16699 -63 9.5s-39.167 15.666 -55.5 27.999s-29.5 27.666 -39.5 45.999s-15 39.5 -15 63.5v150c0 24.667 5 46.334 15 65.001s23 34.334 39 47.001s34.333 22.334 55 29.001s41.667 10 63 10c26 0 51.5 -3.83301 76.5 -11.5
s46.167 -19.167 63.5 -34.5z" />
    <glyph glyph-name="ordfeminine" unicode="&#xaa;" horiz-adv-x="362" 
d="M235 310c-12 -11.333 -26.8301 -20.335 -44.4971 -27.002s-35.167 -10 -52.5 -10c-36.667 0 -64.834 9.16699 -84.501 27.5s-29.5 43.5 -29.5 75.5c0 18.667 3.66699 34.334 11 47.001s16.666 23 27.999 31s23.666 13.667 36.999 17s26 5 38 5h94v10
c0 12.667 -4.5 22.667 -13.5 30s-23.833 11 -44.5 11c-10.667 0 -22.667 -1.66699 -36 -5s-29 -10.666 -47 -21.999l-42 68c24.667 16 48 26.667 70 32s43 8 63 8c100 0 150 -43 150 -129v-203h-91zM234.003 408.998l-68.001 -0.000976562
c-10.667 0 -20.167 -1.83301 -28.5 -5.5s-12.5 -11.167 -12.5 -22.5c0 -6.66699 2.83301 -13.167 8.5 -19.5s14.5 -9.5 26.5 -9.5c13.333 0 26.333 2.33301 39 7s24.334 10.334 35.001 17.001v33z" />
    <glyph glyph-name="guillemotleft" unicode="&#xab;" horiz-adv-x="547" 
d="M394 22l-139 204l139 206h120l-136 -206l136 -204h-120zM185 22l-139 204l139 206h119l-136 -206l136 -204h-119z" />
    <glyph glyph-name="logicalnot" unicode="&#xac;" horiz-adv-x="534" 
d="M510 59h-104v188h-385v99h489v-287z" />
    <glyph glyph-name="sfthyphen" unicode="&#xad;" horiz-adv-x="424" 
d="M48 198v113h327v-113h-327z" />
    <glyph glyph-name="registered" unicode="&#xae;" horiz-adv-x="537" 
d="M274 462l-38 0.000976562v-96h-48v243h98c21.333 0 39.333 -6.33301 54 -19s22 -30.334 22 -53.001c0 -14 -3.5 -26.833 -10.5 -38.5s-17.5 -21.167 -31.5 -28.5l50 -104h-53zM236 564.001v-56.999h46c10 0 18 2.66699 24 8s9 12.666 9 21.999c0 18 -10.333 27 -31 27
h-48zM269 274.002c-30.667 0 -59.1689 5.33301 -85.502 16s-49.166 25.5 -68.499 44.5s-34.5 41.5 -45.5 67.5s-16.5 54 -16.5 84c0 30.667 5.83301 59.167 17.5 85.5s27.334 49 47.001 68s42.5 34 68.5 45s53.667 16.5 83 16.5c30.667 0 59.167 -5.5 85.5 -16.5
s49.333 -26 69 -45s35 -41.667 46 -68s16.5 -54.833 16.5 -85.5c0 -30 -5.83301 -58 -17.5 -84s-27.334 -48.5 -47.001 -67.5s-42.667 -33.833 -69 -44.5s-54.166 -16 -83.499 -16zM268.998 654.002c-23.333 0 -45.166 -4.33301 -65.499 -13s-38 -20.5 -53 -35.5
s-26.667 -32.667 -35 -53s-12.5 -42.5 -12.5 -66.5c0 -23.333 4.16699 -45.166 12.5 -65.499s20 -38 35 -53s32.667 -26.833 53 -35.5s42.166 -13 65.499 -13c24 0 46 4.33301 66 13s37.5 20.5 52.5 35.5s26.667 32.667 35 53s12.5 42.166 12.5 65.499
c0 24 -4.16699 46.167 -12.5 66.5s-20 38 -35 53s-32.5 26.833 -52.5 35.5s-42 13 -66 13z" />
    <glyph glyph-name="macron" unicode="&#xaf;" horiz-adv-x="508" 
d="M103 585v104h312v-104h-312z" />
    <glyph glyph-name="degree" unicode="&#xb0;" horiz-adv-x="416" 
d="M362 554c0 -20 -4 -39 -12 -57s-19 -33.667 -33 -47s-30.333 -23.833 -49 -31.5s-38.667 -11.5 -60 -11.5s-41.333 3.83301 -60 11.5s-35 18.167 -49 31.5s-25 29 -33 47s-12 37 -12 57s4 39 12 57s19 33.667 33 47s30.333 23.833 49 31.5s38.667 11.5 60 11.5
s41.333 -3.83301 60 -11.5s35 -18.167 49 -31.5s25 -29 33 -47s12 -37 12 -57zM277 554c0 18.667 -6.66699 34.5 -20 47.5s-29.666 19.5 -48.999 19.5s-35.666 -6.5 -48.999 -19.5s-20 -28.833 -20 -47.5c0 -18 6.66699 -33.667 20 -47s29.666 -20 48.999 -20
s35.666 6.66699 48.999 20s20 29 20 47z" />
    <glyph glyph-name="plusminus" unicode="&#xb1;" horiz-adv-x="534" 
d="M319 311v-174h-105v174h-191v98h191v179h105v-179h191v-98h-191zM20 0v97h492v-97h-492z" />
    <glyph glyph-name="twosuperior" unicode="&#xb2;" horiz-adv-x="348" 
d="M319 633c0 -14.667 -3.00098 -28.332 -9.00098 -40.999s-13.667 -24.5 -23 -35.5s-19.833 -21 -31.5 -30l-33.5 -25.5l-26 -17c-10 -6.66699 -19.833 -13.667 -29.5 -21s-18 -15.166 -25 -23.499s-11.167 -16.833 -12.5 -25.5h190v-79h-288v63
c0 19.333 3.5 36.666 10.5 51.999s16 29.333 27 42s23.167 24 36.5 34l40 29l27 18c9.33301 6 17.833 12.167 25.5 18.5s13.834 12.833 18.501 19.5s7 13.667 7 21c0 11.333 -5.66699 20.166 -17 26.499s-24.333 9.5 -39 9.5c-14 0 -28.333 -2.5 -43 -7.5
s-28.667 -12.833 -42 -23.5c-2 2.66699 -5.16699 7.16699 -9.5 13.5l-14 21l-14 21c-4.33301 6.33301 -7.5 10.833 -9.5 13.5c18.667 14 40 25 64 33s48.667 12 74 12c18.667 0 36.667 -2 54 -6s32.833 -10.5 46.5 -19.5s24.667 -21.167 33 -36.5s12.5 -34 12.5 -56z" />
    <glyph glyph-name="threesuperior" unicode="&#xb3;" horiz-adv-x="347" 
d="M166 751c18.667 0 36.666 -2.16797 53.999 -6.50098s32.833 -11.333 46.5 -21s24.5 -22.167 32.5 -37.5s12 -33.666 12 -54.999c0 -19.333 -5.16699 -36.666 -15.5 -51.999s-25.166 -25.666 -44.499 -30.999c20.667 -6 36.334 -17.333 47.001 -34s16 -33.667 16 -51
c0 -23.333 -4.5 -43.333 -13.5 -60s-20.667 -30.334 -35 -41.001s-30.666 -18.5 -48.999 -23.5s-36.5 -7.5 -54.5 -7.5c-26.667 0 -51.5 3.5 -74.5 10.5s-43.5 17.833 -61.5 32.5l45 70c13.333 -10 27.666 -17.5 42.999 -22.5s29.666 -7.5 42.999 -7.5c18 0 33 4 45 12
s18 19 18 33c0 13.333 -5 24.5 -15 33.5s-21.667 13.5 -35 13.5h-63v76h63c11.333 0 22.166 3.83301 32.499 11.5s15.5 19.167 15.5 34.5c0 14.667 -6.5 25 -19.5 31s-26.167 9 -39.5 9s-27.833 -2.33301 -43.5 -7s-30.167 -12.334 -43.5 -23.001l-43 70
c36.667 28.667 82.334 43 137.001 43z" />
    <glyph glyph-name="acute" unicode="&#xb4;" horiz-adv-x="508" 
d="M186 568l81 195l116 -37l-123 -185z" />
    <glyph glyph-name="mu" unicode="&#xb5;" horiz-adv-x="529" 
d="M46 494l128.999 -0.000976562v-304c0 -28 6.83301 -47.5 20.5 -58.5s28.834 -16.5 45.501 -16.5c15.333 0 31.833 3.33301 49.5 10s39.5 18.334 65.5 35.001v334h127v-494h-121l-6 43c-32 -20.667 -59 -34 -81 -40s-42.667 -9 -62 -9c-15.333 0 -28.333 3 -39 9v-201
h-128v692z" />
    <glyph glyph-name="mu" unicode="&#x3bc;" horiz-adv-x="529" 
d="M46 494l128.999 -0.000976562v-304c0 -28 6.83301 -47.5 20.5 -58.5s28.834 -16.5 45.501 -16.5c15.333 0 31.833 3.33301 49.5 10s39.5 18.334 65.5 35.001v334h127v-494h-121l-6 43c-32 -20.667 -59 -34 -81 -40s-42.667 -9 -62 -9c-15.333 0 -28.333 3 -39 9v-201
h-128v692z" />
    <glyph glyph-name="paragraph" unicode="&#xb6;" horiz-adv-x="551" 
d="M492 59c0 -33.333 -3.66797 -62.333 -11.001 -87s-19.5 -45.334 -36.5 -62.001s-39.5 -29.5 -67.5 -38.5s-62.667 -13.833 -104 -14.5l-8 97c26 4 46.667 9.16699 62 15.5s27.333 14.333 36 24s14.334 21.334 17.001 35.001s4 29.5 4 47.5v630h108v-647zM229.999 315
c-28 0 -53.833 5.00098 -77.5 15.001s-44.167 23.833 -61.5 41.5s-30.833 38.167 -40.5 61.5s-14.5 48.666 -14.5 75.999c0 26.667 5 52 15 76s23.667 45 41 63s37.833 32.167 61.5 42.5s49.167 15.5 76.5 15.5h89v-391h-89z" />
    <glyph glyph-name="periodcentered" unicode="&#xb7;" horiz-adv-x="271" 
d="M138 197c-24 0 -44.5 8.66699 -61.5 26s-25.5 38 -25.5 62c0 24.667 8.5 45.167 25.5 61.5s37.167 24.5 60.5 24.5s43.5 -8.16699 60.5 -24.5s25.5 -36.833 25.5 -61.5c0 -24 -7.83301 -44.667 -23.5 -62s-36.167 -26 -61.5 -26z" />
    <glyph glyph-name="cedilla" unicode="&#xb8;" horiz-adv-x="453" 
d="M275 45l-27.0029 -81.999c18 -1.33301 33.333 -5 46 -11s22.834 -13 30.501 -21s13.167 -16.833 16.5 -26.5s5 -19.167 5 -28.5c0 -10.667 -2.5 -21.5 -7.5 -32.5s-12.167 -20.833 -21.5 -29.5s-21.166 -15.667 -35.499 -21s-30.833 -8 -49.5 -8
s-37.334 2.16699 -56.001 6.5s-35.667 10.5 -51 18.5c3.33301 9.33301 7 18.5 11 27.5s7.66699 18.167 11 27.5c16 -7.33301 29.833 -11.833 41.5 -13.5s22.834 -2.5 33.501 -2.5c11.333 0 21.333 3 30 9s13 13.667 13 23s-3.16699 16.666 -9.5 21.999s-15.166 8 -26.499 8
c-6 0 -12 -1 -18 -3c-6 3.33301 -12 6.5 -18 9.5s-12 6.16699 -18 9.5l18.5 59l18.5 59h63z" />
    <glyph glyph-name="onesuperior" unicode="&#xb9;" horiz-adv-x="334" 
d="M141 335v298l-39 -31l-53 64l102 81h83v-412h-93z" />
    <glyph glyph-name="ordmasculine" unicode="&#xba;" horiz-adv-x="358" 
d="M332 405c0 -20.667 -3.83008 -39.165 -11.4971 -55.498s-18.334 -30.166 -32.001 -41.499s-29.834 -20 -48.501 -26s-39 -9 -61 -9s-42.333 3 -61 9s-34.834 14.667 -48.501 26s-24.334 25.166 -32.001 41.499s-11.5 34.833 -11.5 55.5v70
c0 20.667 4.16699 39.167 12.5 55.5s19.5 30.166 33.5 41.499s30.167 20.166 48.5 26.499s37.833 9.5 58.5 9.5c44.667 0 81.334 -12 110.001 -36s43 -56.667 43 -98v-69zM233.003 467.002c0 18 -5.66699 31.5 -17 40.5s-23.666 13.5 -36.999 13.5s-25.833 -4.5 -37.5 -13.5
s-17.5 -22.5 -17.5 -40.5v-53c0 -18.667 5.66699 -32.334 17 -41.001s24 -13 38 -13c13.333 0 25.666 4.33301 36.999 13s17 22.334 17 41.001v53z" />
    <glyph glyph-name="guillemotright" unicode="&#xbb;" horiz-adv-x="547" 
d="M46 22l136 204l-136 206h119l140 -206l-140 -204h-119zM255 22l137 204l-137 206h119l140 -206l-140 -204h-119z" />
    <glyph glyph-name="onequarter" unicode="&#xbc;" horiz-adv-x="853" 
d="M171 276v298l-39 -31l-53 64l102 81h83v-412h-93zM245 -17h-90l425 730h91zM735 57v-57h-91v57h-186v68l144 287h99l-138 -276h81v107h91v-107h38v-79h-38z" />
    <glyph glyph-name="onehalf" unicode="&#xbd;" horiz-adv-x="853" 
d="M155 276v298l-39 -31l-53 64l102 81h83v-412h-93zM221 -17h-90l425 730h91zM790 299c0 -14 -3.00586 -27.502 -9.00586 -40.502s-13.667 -25 -23 -36s-19.833 -21.167 -31.5 -30.5s-22.834 -17.666 -33.501 -24.999c-7.33301 -5.33301 -16.166 -11.166 -26.499 -17.499
s-20.166 -13.333 -29.499 -21s-17.666 -15.667 -24.999 -24s-11.666 -16.833 -12.999 -25.5h191v-79h-288v64c0 19.333 3.5 36.666 10.5 51.999s16 29.333 27 42s23.167 24 36.5 34l40 29l27 18c9.33301 6 17.833 12.167 25.5 18.5s13.834 12.833 18.501 19.5s7 13.667 7 21
c0 11.333 -5.66699 20 -17 26s-24.333 9 -39 9c-14 0 -28.333 -2.5 -43 -7.5s-28.667 -12.5 -42 -22.5l-10 13.5l-14.5 20.5l-14 20.5c-4.33301 6.33301 -7.16602 10.833 -8.49902 13.5c18 14 39 25.333 63 34s49 13 75 13c18 0 35.833 -2 53.5 -6
s33.334 -10.667 47.001 -20s24.667 -21.666 33 -36.999s12.5 -34 12.5 -56z" />
    <glyph glyph-name="threequarters" unicode="&#xbe;" horiz-adv-x="853" 
d="M192 692c18.667 0 36.666 -2.16797 53.999 -6.50098s32.833 -11.333 46.5 -21s24.5 -22.167 32.5 -37.5s12 -33.666 12 -54.999c0 -19.333 -5.16699 -36.666 -15.5 -51.999s-25.166 -25.666 -44.499 -30.999c20.667 -6 36.334 -17.333 47.001 -34s16 -33.667 16 -51
c0 -23.333 -4.5 -43.333 -13.5 -60s-20.667 -30.334 -35 -41.001s-30.666 -18.5 -48.999 -23.5s-36.5 -7.5 -54.5 -7.5c-26.667 0 -51.5 3.5 -74.5 10.5s-43.5 17.833 -61.5 32.5l45 70c13.333 -10 27.666 -17.5 42.999 -22.5s29.666 -7.5 42.999 -7.5c18 0 33 4 45 12
s18 19 18 33c0 13.333 -5 24.5 -15 33.5s-21.667 13.5 -35 13.5h-63v76h63c11.333 0 22.166 3.83301 32.499 11.5s15.5 19.167 15.5 34.5c0 14.667 -6.5 25 -19.5 31s-26.167 9 -39.5 9s-27.833 -2.33301 -43.5 -7s-30.167 -12.334 -43.5 -23.001l-43 70
c36.667 28.667 82.334 43 137.001 43zM278.999 -17.001h-90l425 730h91zM761.999 56.999v-57h-91v57h-186v68l144 287h99l-138 -276h81v107h91v-107h38v-79h-38z" />
    <glyph glyph-name="questiondown" unicode="&#xbf;" horiz-adv-x="489" 
d="M254 -206c-31.333 0 -59.8311 4.49805 -85.498 13.498s-47.834 21.5 -66.501 37.5s-33 35 -43 57s-15 45.667 -15 71c0 21.333 3.33301 41 10 59s15 34.667 25 50s20.833 30 32.5 44s22.5 28.167 32.5 42.5s18.333 29.333 25 45s10 32.834 10 51.501v25h129v-25
c0 -19.333 -1.66699 -36.666 -5 -51.999s-8.33301 -30.166 -15 -44.499s-15.167 -28.833 -25.5 -43.5l-35.5 -49c-7.33301 -10 -14.833 -22.333 -22.5 -37s-11.5 -30.334 -11.5 -47.001c0 -20 7.16699 -37.167 21.5 -51.5s35.833 -21.5 64.5 -21.5c43.333 0 84 16 122 48
l63 -103c-30 -24.667 -62.833 -42.5 -98.5 -53.5s-72.834 -16.5 -111.501 -16.5zM242.002 500.998c23.333 0 42.5 -7.83203 57.5 -23.499s22.5 -34.834 22.5 -57.501c0 -21.333 -7.5 -39.666 -22.5 -54.999s-33.5 -23 -55.5 -23c-22.667 0 -41.667 7.66699 -57 23
s-23 33.666 -23 54.999c0 22 7 41 21 57s33 24 57 24z" />
    <glyph glyph-name="Agrave" unicode="&#xc0;" horiz-adv-x="638" 
d="M438 142h-240l-45 -142h-146l242 689h140l240 -689h-149zM235 257h166l-27 88l-54 182h-4l-53 -179zM336 730l-203 99l64 99l186 -133z" />
    <glyph glyph-name="Aacute" unicode="&#xc1;" horiz-adv-x="638" 
d="M438 142h-240l-45 -142h-146l242 689h140l240 -689h-149zM235 257h166l-27 88l-54 182h-4l-53 -179zM249 795l170 126l80 -92l-200 -95z" />
    <glyph glyph-name="Acircumflex" unicode="&#xc2;" horiz-adv-x="638" 
d="M438 142h-240l-45 -142h-146l242 689h140l240 -689h-149zM235 257h166l-27 88l-54 182h-4l-53 -179zM316 812l-148 -81l-42 52l150 122h83l149 -122l-44 -53z" />
    <glyph glyph-name="Atilde" unicode="&#xc3;" horiz-adv-x="638" 
d="M438 142h-240l-45 -142h-146l242 689h140l240 -689h-149zM235 257h166l-27 88l-54 182h-4l-53 -179zM249 881c12.667 -0.666992 25.3301 -3.50098 37.9971 -8.50098s24.667 -10.5 36 -16.5l32 -16.5c10 -5 19 -7.5 27 -7.5c11.333 0 21.5 3.33301 30.5 10
s19.833 18.667 32.5 36l64 -38c-17.333 -36.667 -35.166 -63 -53.499 -79s-39.166 -24 -62.499 -24c-13.333 0 -26.166 2.33301 -38.499 7s-24.333 9.83398 -36 15.501l-33 15.5c-10.333 4.66699 -20.166 7 -29.499 7c-11.333 0 -21.833 -2.5 -31.5 -7.5
s-21.834 -16.833 -36.501 -35.5l-64 38c16.667 34 34.667 59.833 54 77.5s43 26.5 71 26.5z" />
    <glyph glyph-name="Adieresis" unicode="&#xc4;" horiz-adv-x="638" 
d="M438 142h-240l-45 -142h-146l242 689h140l240 -689h-149zM235 257h166l-27 88l-54 182h-4l-53 -179zM349 812c0 18.667 6.5 34.5 19.5 47.5s29.167 19.5 48.5 19.5s35.333 -6.5 48 -19.5s19 -28.833 19 -47.5c0 -19.333 -6.33301 -35.666 -19 -48.999
s-28.667 -20 -48 -20s-35.5 6.66699 -48.5 20s-19.5 29.666 -19.5 48.999zM151 812c0 18.667 6.66699 34.5 20 47.5s29.333 19.5 48 19.5c19.333 0 35.5 -6.5 48.5 -19.5s19.5 -28.833 19.5 -47.5c0 -19.333 -6.5 -35.666 -19.5 -48.999s-29.167 -20 -48.5 -20
c-18.667 0 -34.667 6.66699 -48 20s-20 29.666 -20 48.999z" />
    <glyph glyph-name="Aring" unicode="&#xc5;" horiz-adv-x="638" 
d="M438 142h-240l-45 -142h-146l242 689h140l240 -689h-149zM235 257h166l-27 88l-54 182h-4l-53 -179zM363 824c0 12 -4.33301 22.167 -13 30.5s-19.334 12.5 -32.001 12.5c-13.333 0 -24.333 -4.16699 -33 -12.5s-13 -18.5 -13 -30.5s4.33301 -22.167 13 -30.5
s19.667 -12.5 33 -12.5c12.667 0 23.334 4.16699 32.001 12.5s13 18.5 13 30.5zM200 824c0 15.333 3.16699 29.833 9.5 43.5s14.833 25.5 25.5 35.5s23.167 18 37.5 24s29.5 9 45.5 9s31.167 -3 45.5 -9s26.666 -14 36.999 -24s18.666 -21.833 24.999 -35.5
s9.5 -28.167 9.5 -43.5s-3.16699 -29.833 -9.5 -43.5s-14.833 -25.5 -25.5 -35.5s-23.167 -18 -37.5 -24s-29.5 -9 -45.5 -9s-31.167 3 -45.5 9s-26.666 14 -36.999 24s-18.666 21.833 -24.999 35.5s-9.5 28.167 -9.5 43.5z" />
    <glyph glyph-name="AE" unicode="&#xc6;" horiz-adv-x="1005" 
d="M492 163l-49.5 -0.000976562c-22.333 0 -46 0.166992 -71 0.5s-48.833 0.5 -71.5 0.5h-49l-20.5 -34.5l-28.5 -47.5l-28.5 -48c-9 -15.333 -15.833 -26.666 -20.5 -33.999h-153l51.5 83l74.5 121l86 140.5l86 140.5l74.5 121l51.5 83h542v-123h-338v-159h289v-122h-289
v-163h338v-122h-474v163zM489 566.999l-36.499 -59.5l-51.5 -85l-51 -85l-36 -59.5h36.5c16.333 0 33.666 -0.166992 51.999 -0.5s35.833 -0.5 52.5 -0.5h37v290h-3z" />
    <glyph glyph-name="Ccedilla" unicode="&#xc7;" horiz-adv-x="561" 
d="M464 522c-21.333 18 -44.335 30.5 -69.002 37.5s-48.667 10.5 -72 10.5c-15.333 0 -30.666 -2.16699 -45.999 -6.5s-29 -11.5 -41 -21.5s-21.833 -23 -29.5 -39s-11.5 -35.333 -11.5 -58v-201c0 -22.667 3.83301 -41.834 11.5 -57.501s17.667 -28.5 30 -38.5
s26 -17.333 41 -22s30.167 -7 45.5 -7c23.333 0 46.833 3.33301 70.5 10s47.5 19.334 71.5 38.001l65 -106c-24.667 -20.667 -54.167 -36.834 -88.5 -48.501s-70.833 -18.167 -109.5 -19.5l-9 -30c18 -1.33301 33.333 -5 46 -11s22.834 -13 30.501 -21
s13.167 -16.833 16.5 -26.5s5 -19.167 5 -28.5c0 -10.667 -2.5 -21.5 -7.5 -32.5s-12.167 -20.833 -21.5 -29.5s-21.166 -15.667 -35.499 -21s-30.833 -8 -49.5 -8s-37.334 2.16699 -56.001 6.5s-35.667 10.5 -51 18.5c3.33301 9.33301 7 18.5 11 27.5
s7.66699 18.167 11 27.5c16 -7.33301 29.833 -11.833 41.5 -13.5s22.834 -2.5 33.501 -2.5c11.333 0 21.333 3 30 9s13 13.667 13 23s-3.16699 16.666 -9.5 21.999s-15.166 8 -26.499 8c-6 0 -12 -1 -18 -3c-6 3.33301 -12 6.5 -18 9.5s-12 6.16699 -18 9.5
c3.33301 12 6.83301 23.833 10.5 35.5s7.5 23.167 11.5 34.5c-28 4 -55 11.5 -81 22.5s-48.833 25.5 -68.5 43.5s-35.334 39.667 -47.001 65s-17.5 54.333 -17.5 87v258c0 36.667 7.5 68.834 22.5 96.501s34.667 50.834 59 69.501s52.166 32.667 83.499 42s63.333 14 96 14
c40 0 78.5 -5.33301 115.5 -16s68.833 -27.667 95.5 -51z" />
    <glyph glyph-name="Egrave" unicode="&#xc8;" horiz-adv-x="577" 
d="M60 689h475v-123h-338v-158h289v-123h-289v-163h338v-122h-475v689zM334 730l-203 99l64 99l186 -133z" />
    <glyph glyph-name="Eacute" unicode="&#xc9;" horiz-adv-x="577" 
d="M60 689h475v-123h-338v-158h289v-123h-289v-163h338v-122h-475v689zM224 795l170 126l80 -92l-200 -95z" />
    <glyph glyph-name="Ecircumflex" unicode="&#xca;" horiz-adv-x="577" 
d="M60 689h475v-123h-338v-158h289v-123h-289v-163h338v-122h-475v689zM300 812l-148 -81l-42 52l150 122h83l149 -122l-44 -53z" />
    <glyph glyph-name="Edieresis" unicode="&#xcb;" horiz-adv-x="577" 
d="M60 689h475v-123h-338v-158h289v-123h-289v-163h338v-122h-475v689zM330 811c0 19.333 6.66699 35.5 20 48.5s29.666 19.5 48.999 19.5c18.667 0 34.5 -6.5 47.5 -19.5s19.5 -29.167 19.5 -48.5s-6.5 -35.666 -19.5 -48.999s-28.833 -20 -47.5 -20
c-19.333 0 -35.666 6.66699 -48.999 20s-20 29.666 -20 48.999zM133 811c0 19.333 6.5 35.5 19.5 48.5s29.167 19.5 48.5 19.5c18.667 0 34.667 -6.5 48 -19.5s20 -29.167 20 -48.5s-6.66699 -35.666 -20 -48.999s-29.333 -20 -48 -20c-19.333 0 -35.5 6.66699 -48.5 20
s-19.5 29.666 -19.5 48.999z" />
    <glyph glyph-name="Igrave" unicode="&#xcc;" horiz-adv-x="297" 
d="M217 689v-689h-137v689h137zM157 730l-203 99l64 99l186 -133z" />
    <glyph glyph-name="Iacute" unicode="&#xcd;" horiz-adv-x="297" 
d="M217 689v-689h-137v689h137zM95 795l170 126l80 -92l-200 -95z" />
    <glyph glyph-name="Icircumflex" unicode="&#xce;" horiz-adv-x="297" 
d="M217 689v-689h-137v689h137zM147 812l-148 -81l-42 52l150 122h83l149 -122l-44 -53z" />
    <glyph glyph-name="Idieresis" unicode="&#xcf;" horiz-adv-x="297" 
d="M217 689v-689h-137v689h137zM181 812c0 18.667 6.5 34.5 19.5 47.5s29.167 19.5 48.5 19.5s35.333 -6.5 48 -19.5s19 -28.833 19 -47.5c0 -19.333 -6.33301 -35.666 -19 -48.999s-28.667 -20 -48 -20s-35.5 6.66699 -48.5 20s-19.5 29.666 -19.5 48.999zM-17 812
c0 18.667 6.66699 34.5 20 47.5s29.333 19.5 48 19.5c19.333 0 35.5 -6.5 48.5 -19.5s19.5 -28.833 19.5 -47.5c0 -19.333 -6.5 -35.666 -19.5 -48.999s-29.167 -20 -48.5 -20c-18.667 0 -34.667 6.66699 -48 20s-20 29.666 -20 48.999z" />
    <glyph glyph-name="Eth" unicode="&#xd0;" horiz-adv-x="617" 
d="M6 391l53.998 0.00292969v298h261c31.333 0 61.833 -4.5 91.5 -13.5s55.834 -22.833 78.501 -41.5s40.834 -41.834 54.501 -69.501s20.5 -59.834 20.5 -96.501v-247c0 -36 -6.83301 -67.833 -20.5 -95.5s-32 -50.834 -55 -69.501s-49.333 -32.667 -79 -42
s-60.167 -14 -91.5 -14h-260v296h-54v95zM426.998 442.003c0 22.667 -3.83301 41.833 -11.5 57.5s-17.5 28.5 -29.5 38.5s-25.5 17.167 -40.5 21.5s-30.167 6.5 -45.5 6.5h-104v-175h105v-95h-105v-175h104c14.667 0 29.5 2.16699 44.5 6.5s28.667 11.5 41 21.5
s22.333 22.833 30 38.5s11.5 35.167 11.5 58.5v196z" />
    <glyph glyph-name="Ntilde" unicode="&#xd1;" horiz-adv-x="675" 
d="M196 434v-434h-136v689h124l160 -236l131 -200h4v436h137v-689h-125l-175 260l-114 174h-6zM270 882c12.667 -0.666992 25.3301 -3.50098 37.9971 -8.50098s24.667 -10.5 36 -16.5l32 -16.5c10 -5 19 -7.5 27 -7.5c11.333 0 21.5 3.33301 30.5 10s19.833 18.667 32.5 36
l64 -38c-17.333 -36.667 -35.166 -63 -53.499 -79s-39.166 -24 -62.499 -24c-13.333 0 -26.166 2.33301 -38.499 7s-24.333 9.83398 -36 15.501l-33 15.5c-10.333 4.66699 -20.166 7 -29.499 7c-11.333 0 -21.833 -2.5 -31.5 -7.5s-21.834 -16.833 -36.501 -35.5l-64 38
c16.667 34 34.667 59.833 54 77.5s43 26.5 71 26.5z" />
    <glyph glyph-name="Ograve" unicode="&#xd2;" horiz-adv-x="638" 
d="M584 220c0 -37.333 -7.00195 -70 -21.002 -98s-33 -51.667 -57 -71s-52.167 -33.833 -84.5 -43.5s-66.5 -14.5 -102.5 -14.5s-70.167 4.83301 -102.5 14.5s-60.5 24.167 -84.5 43.5s-43 43 -57 71s-21 60.667 -21 98v253c0 36.667 7.33301 69 22 97
s34.334 51.333 59.001 70s53 32.667 85 42s65 14 99 14s67 -5 99 -15s60.333 -24.5 85 -43.5s44.334 -42.667 59.001 -71s22 -60.833 22 -97.5v-249zM445.998 445c0 22.667 -3.66699 41.834 -11 57.501s-17 28.5 -29 38.5s-25.5 17.333 -40.5 22s-30.5 7 -46.5 7
s-31.667 -2.33301 -47 -7s-29 -12 -41 -22s-21.667 -22.833 -29 -38.5s-11 -34.834 -11 -57.501v-201c0 -22.667 3.66699 -42 11 -58s17 -29 29 -39s25.667 -17.167 41 -21.5s31 -6.5 47 -6.5s31.5 2.16699 46.5 6.5s28.5 11.5 40.5 21.5s21.667 23 29 39s11 35.333 11 58
v201zM365.998 730l-203 99l64 99l186 -133z" />
    <glyph glyph-name="Oacute" unicode="&#xd3;" horiz-adv-x="638" 
d="M584 220c0 -37.333 -7.00195 -70 -21.002 -98s-33 -51.667 -57 -71s-52.167 -33.833 -84.5 -43.5s-66.5 -14.5 -102.5 -14.5s-70.167 4.83301 -102.5 14.5s-60.5 24.167 -84.5 43.5s-43 43 -57 71s-21 60.667 -21 98v253c0 36.667 7.33301 69 22 97
s34.334 51.333 59.001 70s53 32.667 85 42s65 14 99 14s67 -5 99 -15s60.333 -24.5 85 -43.5s44.334 -42.667 59.001 -71s22 -60.833 22 -97.5v-249zM445.998 445c0 22.667 -3.66699 41.834 -11 57.501s-17 28.5 -29 38.5s-25.5 17.333 -40.5 22s-30.5 7 -46.5 7
s-31.667 -2.33301 -47 -7s-29 -12 -41 -22s-21.667 -22.833 -29 -38.5s-11 -34.834 -11 -57.501v-201c0 -22.667 3.66699 -42 11 -58s17 -29 29 -39s25.667 -17.167 41 -21.5s31 -6.5 47 -6.5s31.5 2.16699 46.5 6.5s28.5 11.5 40.5 21.5s21.667 23 29 39s11 35.333 11 58
v201zM231.998 795l170 126l80 -92l-200 -95z" />
    <glyph glyph-name="Ocircumflex" unicode="&#xd4;" horiz-adv-x="638" 
d="M584 220c0 -37.333 -7.00195 -70 -21.002 -98s-33 -51.667 -57 -71s-52.167 -33.833 -84.5 -43.5s-66.5 -14.5 -102.5 -14.5s-70.167 4.83301 -102.5 14.5s-60.5 24.167 -84.5 43.5s-43 43 -57 71s-21 60.667 -21 98v253c0 36.667 7.33301 69 22 97
s34.334 51.333 59.001 70s53 32.667 85 42s65 14 99 14s67 -5 99 -15s60.333 -24.5 85 -43.5s44.334 -42.667 59.001 -71s22 -60.833 22 -97.5v-249zM445.998 445c0 22.667 -3.66699 41.834 -11 57.501s-17 28.5 -29 38.5s-25.5 17.333 -40.5 22s-30.5 7 -46.5 7
s-31.667 -2.33301 -47 -7s-29 -12 -41 -22s-21.667 -22.833 -29 -38.5s-11 -34.834 -11 -57.501v-201c0 -22.667 3.66699 -42 11 -58s17 -29 29 -39s25.667 -17.167 41 -21.5s31 -6.5 47 -6.5s31.5 2.16699 46.5 6.5s28.5 11.5 40.5 21.5s21.667 23 29 39s11 35.333 11 58
v201zM319.998 812l-148 -81l-42 52l150 122h83l149 -122l-44 -53z" />
    <glyph glyph-name="Otilde" unicode="&#xd5;" horiz-adv-x="638" 
d="M584 220c0 -37.333 -7.00195 -70 -21.002 -98s-33 -51.667 -57 -71s-52.167 -33.833 -84.5 -43.5s-66.5 -14.5 -102.5 -14.5s-70.167 4.83301 -102.5 14.5s-60.5 24.167 -84.5 43.5s-43 43 -57 71s-21 60.667 -21 98v253c0 36.667 7.33301 69 22 97
s34.334 51.333 59.001 70s53 32.667 85 42s65 14 99 14s67 -5 99 -15s60.333 -24.5 85 -43.5s44.334 -42.667 59.001 -71s22 -60.833 22 -97.5v-249zM445.998 445c0 22.667 -3.66699 41.834 -11 57.501s-17 28.5 -29 38.5s-25.5 17.333 -40.5 22s-30.5 7 -46.5 7
s-31.667 -2.33301 -47 -7s-29 -12 -41 -22s-21.667 -22.833 -29 -38.5s-11 -34.834 -11 -57.501v-201c0 -22.667 3.66699 -42 11 -58s17 -29 29 -39s25.667 -17.167 41 -21.5s31 -6.5 47 -6.5s31.5 2.16699 46.5 6.5s28.5 11.5 40.5 21.5s21.667 23 29 39s11 35.333 11 58
v201zM251.998 881c12.667 -0.666992 25.3301 -3.50098 37.9971 -8.50098s24.667 -10.5 36 -16.5l32 -16.5c10 -5 19 -7.5 27 -7.5c11.333 0 21.5 3.33301 30.5 10s19.833 18.667 32.5 36l64 -38c-17.333 -36.667 -35.166 -63 -53.499 -79s-39.166 -24 -62.499 -24
c-13.333 0 -26.166 2.33301 -38.499 7s-24.333 9.83398 -36 15.501l-33 15.5c-10.333 4.66699 -20.166 7 -29.499 7c-11.333 0 -21.833 -2.5 -31.5 -7.5s-21.834 -16.833 -36.501 -35.5l-64 38c16.667 34 34.667 59.833 54 77.5s43 26.5 71 26.5z" />
    <glyph glyph-name="Odieresis" unicode="&#xd6;" horiz-adv-x="638" 
d="M584 220c0 -37.333 -7.00195 -70 -21.002 -98s-33 -51.667 -57 -71s-52.167 -33.833 -84.5 -43.5s-66.5 -14.5 -102.5 -14.5s-70.167 4.83301 -102.5 14.5s-60.5 24.167 -84.5 43.5s-43 43 -57 71s-21 60.667 -21 98v253c0 36.667 7.33301 69 22 97
s34.334 51.333 59.001 70s53 32.667 85 42s65 14 99 14s67 -5 99 -15s60.333 -24.5 85 -43.5s44.334 -42.667 59.001 -71s22 -60.833 22 -97.5v-249zM445.998 445c0 22.667 -3.66699 41.834 -11 57.501s-17 28.5 -29 38.5s-25.5 17.333 -40.5 22s-30.5 7 -46.5 7
s-31.667 -2.33301 -47 -7s-29 -12 -41 -22s-21.667 -22.833 -29 -38.5s-11 -34.834 -11 -57.501v-201c0 -22.667 3.66699 -42 11 -58s17 -29 29 -39s25.667 -17.167 41 -21.5s31 -6.5 47 -6.5s31.5 2.16699 46.5 6.5s28.5 11.5 40.5 21.5s21.667 23 29 39s11 35.333 11 58
v201zM352.998 812c0 18.667 6.5 34.5 19.5 47.5s29.167 19.5 48.5 19.5s35.333 -6.5 48 -19.5s19 -28.833 19 -47.5c0 -19.333 -6.33301 -35.666 -19 -48.999s-28.667 -20 -48 -20s-35.5 6.66699 -48.5 20s-19.5 29.666 -19.5 48.999zM154.998 812
c0 18.667 6.66699 34.5 20 47.5s29.333 19.5 48 19.5c19.333 0 35.5 -6.5 48.5 -19.5s19.5 -28.833 19.5 -47.5c0 -19.333 -6.5 -35.666 -19.5 -48.999s-29.167 -20 -48.5 -20c-18.667 0 -34.667 6.66699 -48 20s-20 29.666 -20 48.999z" />
    <glyph glyph-name="multiply" unicode="&#xd7;" horiz-adv-x="534" 
d="M268 218l-161 -161l-73 74l160 161l-165 165l71 69l165 -165l158 159l73 -73l-159 -159l166 -165l-70 -70z" />
    <glyph glyph-name="Oslash" unicode="&#xd8;" horiz-adv-x="638" 
d="M53 25l43.998 61.001c-13.333 17.333 -23.833 37.166 -31.5 59.499s-11.5 47.166 -11.5 74.499v253c0 36.667 7.33301 69 22 97s34.334 51.333 59.001 70s53 32.667 85 42s65 14 99 14c32.667 0 64.334 -4.66699 95.001 -14s58 -22.666 82 -39.999l41 57l48 -35l-46 -63
c14 -17.333 25 -37 33 -59s12 -46.333 12 -73v-249c0 -37.333 -7 -70 -21 -98s-33 -51.667 -57 -71s-52.167 -33.833 -84.5 -43.5s-66.5 -14.5 -102.5 -14.5c-34.667 0 -67.5 4.5 -98.5 13.5s-58.167 22.167 -81.5 39.5l-39 -54zM445.998 445.001
c0 4 -0.167969 8 -0.500977 12s-0.833008 8 -1.5 12l-224 -311c12 -14 26.833 -24 44.5 -30s35.834 -9 54.501 -9c16 0 31.5 2.16699 46.5 6.5s28.5 11.5 40.5 21.5s21.667 23 29 39s11 35.333 11 58v201zM190.997 244.001c0 -4.66699 0.166992 -8.99805 0.5 -12.998
s0.833008 -7.66699 1.5 -11l223 311c-12 13.333 -26.667 23.166 -44 29.499s-35 9.5 -53 9.5c-16 0 -31.667 -2.33301 -47 -7s-29 -12 -41 -22s-21.667 -22.833 -29 -38.5s-11 -34.834 -11 -57.501v-201z" />
    <glyph glyph-name="Ugrave" unicode="&#xd9;" horiz-adv-x="644" 
d="M587 219c0 -37.333 -7.33105 -70.001 -21.998 -98.001s-34.334 -51.5 -59.001 -70.5s-53 -33.333 -85 -43s-65 -14.5 -99 -14.5s-67 4.66699 -99 14s-60.167 23.333 -84.5 42s-43.833 41.834 -58.5 69.501s-22 60.167 -22 97.5v473h136v-447
c0 -22.667 3.66699 -41.834 11 -57.501s17 -28.5 29 -38.5s25.667 -17.333 41 -22s31 -7 47 -7c15.333 0 30.666 2.33301 45.999 7s29 12 41 22s21.667 22.833 29 38.5s11 34.834 11 57.501v447h138v-470zM358.002 729.999l-203 99l64 99l186 -133z" />
    <glyph glyph-name="Uacute" unicode="&#xda;" horiz-adv-x="644" 
d="M587 219c0 -37.333 -7.33105 -70.001 -21.998 -98.001s-34.334 -51.5 -59.001 -70.5s-53 -33.333 -85 -43s-65 -14.5 -99 -14.5s-67 4.66699 -99 14s-60.167 23.333 -84.5 42s-43.833 41.834 -58.5 69.501s-22 60.167 -22 97.5v473h136v-447
c0 -22.667 3.66699 -41.834 11 -57.501s17 -28.5 29 -38.5s25.667 -17.333 41 -22s31 -7 47 -7c15.333 0 30.666 2.33301 45.999 7s29 12 41 22s21.667 22.833 29 38.5s11 34.834 11 57.501v447h138v-470zM230.002 794.999l170 126l80 -92l-200 -95z" />
    <glyph glyph-name="Ucircumflex" unicode="&#xdb;" horiz-adv-x="644" 
d="M587 219c0 -37.333 -7.33105 -70.001 -21.998 -98.001s-34.334 -51.5 -59.001 -70.5s-53 -33.333 -85 -43s-65 -14.5 -99 -14.5s-67 4.66699 -99 14s-60.167 23.333 -84.5 42s-43.833 41.834 -58.5 69.501s-22 60.167 -22 97.5v473h136v-447
c0 -22.667 3.66699 -41.834 11 -57.501s17 -28.5 29 -38.5s25.667 -17.333 41 -22s31 -7 47 -7c15.333 0 30.666 2.33301 45.999 7s29 12 41 22s21.667 22.833 29 38.5s11 34.834 11 57.501v447h138v-470zM319.002 811.999l-148 -81l-42 52l150 122h83l149 -122l-44 -53z
" />
    <glyph glyph-name="Udieresis" unicode="&#xdc;" horiz-adv-x="644" 
d="M587 219c0 -37.333 -7.33105 -70.001 -21.998 -98.001s-34.334 -51.5 -59.001 -70.5s-53 -33.333 -85 -43s-65 -14.5 -99 -14.5s-67 4.66699 -99 14s-60.167 23.333 -84.5 42s-43.833 41.834 -58.5 69.501s-22 60.167 -22 97.5v473h136v-447
c0 -22.667 3.66699 -41.834 11 -57.501s17 -28.5 29 -38.5s25.667 -17.333 41 -22s31 -7 47 -7c15.333 0 30.666 2.33301 45.999 7s29 12 41 22s21.667 22.833 29 38.5s11 34.834 11 57.501v447h138v-470zM354.002 811.999c0 18.667 6.5 34.5 19.5 47.5
s29.167 19.5 48.5 19.5s35.333 -6.5 48 -19.5s19 -28.833 19 -47.5c0 -19.333 -6.33301 -35.666 -19 -48.999s-28.667 -20 -48 -20s-35.5 6.66699 -48.5 20s-19.5 29.666 -19.5 48.999zM156.002 811.999c0 18.667 6.66699 34.5 20 47.5s29.333 19.5 48 19.5
c19.333 0 35.5 -6.5 48.5 -19.5s19.5 -28.833 19.5 -47.5c0 -19.333 -6.5 -35.666 -19.5 -48.999s-29.167 -20 -48.5 -20c-18.667 0 -34.667 6.66699 -48 20s-20 29.666 -20 48.999z" />
    <glyph glyph-name="Yacute" unicode="&#xdd;" horiz-adv-x="576" 
d="M292 401l58 134l69 154h146l-208 -419v-270h-137v270l-210 419h147l71 -158l57 -130h7zM211 795l170 126l80 -92l-200 -95z" />
    <glyph glyph-name="Thorn" unicode="&#xde;" horiz-adv-x="576" 
d="M195 260l140 -0.000976562c31.333 0 55 8.66699 71 26s24 39 24 65c0 26.667 -8.16699 48.834 -24.5 66.501s-39.833 26.5 -70.5 26.5h-140v-184zM195 687.999v-121.001h171c34 0 63.333 -6.5 88 -19.5s45.167 -30 61.5 -51s28.333 -44.333 36 -70
s11.5 -50.834 11.5 -75.501c0 -25.333 -4.5 -50.666 -13.5 -75.999s-22 -48.166 -39 -68.499s-38 -37 -63 -50s-53.5 -19.5 -85.5 -19.5h-167v-137h-137v689z" />
    <glyph glyph-name="germandbls" unicode="&#xdf;" horiz-adv-x="527" 
d="M177 0l-127.003 -0.000976562v494c0 31.333 4.83301 60.333 14.5 87s23.667 49.834 42 69.501s40.333 35 66 46s54.5 16.5 86.5 16.5c38.667 0 71 -5.66699 97 -17s47 -25.666 63 -42.999s27.333 -36.5 34 -57.5s10 -41.5 10 -61.5c0 -9.33301 -1.16699 -20 -3.5 -32
s-6.16602 -24 -11.499 -36s-12.166 -23.333 -20.499 -34s-18.833 -19.334 -31.5 -26.001c31.333 -10.667 53.5 -29.167 66.5 -55.5s19.833 -55.166 20.5 -86.499l1 -91c0 -54 -14.667 -97.5 -44 -130.5s-71.666 -49.5 -126.999 -49.5c-8 0 -16.5 0.333008 -25.5 1
s-19.167 1.66699 -30.5 3v116h29c24 0 41.5 7.16699 52.5 21.5s16.5 33.833 16.5 58.5v66c0 28 -8.66699 48.5 -26 61.5s-37.333 19.5 -60 19.5h-9v101h9c12.667 0 23.834 3 33.501 9s17.667 13.167 24 21.5s11 17.5 14 27.5s4.5 19 4.5 27c0 10.667 -1.5 21 -4.5 31
s-8 18.833 -15 26.5s-15.833 13.834 -26.5 18.501s-23.667 7 -39 7s-28.333 -3 -39 -9s-19.334 -13.333 -26.001 -22s-11.5 -18.334 -14.5 -29.001s-4.5 -20.334 -4.5 -29.001z" />
    <glyph glyph-name="agrave" unicode="&#xe0;" horiz-adv-x="525" 
d="M347 41c-30 -17.333 -56.998 -29.167 -80.998 -35.5s-46.333 -9.5 -67 -9.5c-50.667 0 -89.834 13.5 -117.501 40.5s-41.5 63.833 -41.5 110.5c0 27.333 5.66699 50.5 17 69.5s25.833 34.5 43.5 46.5s37.167 20.667 58.5 26s41.666 8 60.999 8h128v21
c0 23.333 -6.66699 40.833 -20 52.5s-37 17.5 -71 17.5c-16 0 -35.833 -2.33301 -59.5 -7s-47.5 -16.667 -71.5 -36l-57 93c34.667 26.667 69.5 44 104.5 52s67.167 12 96.5 12c70.667 0 122.667 -16 156 -48s50 -80.333 50 -145v-309h-117l-9 40zM349.002 202.999h-106
c-8 0 -15.833 -0.5 -23.5 -1.5s-14.667 -3.33301 -21 -7s-11.5 -8.66699 -15.5 -15s-6 -14.5 -6 -24.5c0 -13.333 4.83301 -24.166 14.5 -32.499s24.167 -12.5 43.5 -12.5c21.333 0 42.333 4.16699 63 12.5s37.667 16.166 51 23.499v57zM261.002 540.999l-130 182l116 39
l86 -188z" />
    <glyph glyph-name="aacute" unicode="&#xe1;" horiz-adv-x="525" 
d="M347 41c-30 -17.333 -56.998 -29.167 -80.998 -35.5s-46.333 -9.5 -67 -9.5c-50.667 0 -89.834 13.5 -117.501 40.5s-41.5 63.833 -41.5 110.5c0 27.333 5.66699 50.5 17 69.5s25.833 34.5 43.5 46.5s37.167 20.667 58.5 26s41.666 8 60.999 8h128v21
c0 23.333 -6.66699 40.833 -20 52.5s-37 17.5 -71 17.5c-16 0 -35.833 -2.33301 -59.5 -7s-47.5 -16.667 -71.5 -36l-57 93c34.667 26.667 69.5 44 104.5 52s67.167 12 96.5 12c70.667 0 122.667 -16 156 -48s50 -80.333 50 -145v-309h-117l-9 40zM349.002 202.999h-106
c-8 0 -15.833 -0.5 -23.5 -1.5s-14.667 -3.33301 -21 -7s-11.5 -8.66699 -15.5 -15s-6 -14.5 -6 -24.5c0 -13.333 4.83301 -24.166 14.5 -32.499s24.167 -12.5 43.5 -12.5c21.333 0 42.333 4.16699 63 12.5s37.667 16.166 51 23.499v57zM229.002 567.999l81 195l116 -37
l-123 -185z" />
    <glyph glyph-name="acircumflex" unicode="&#xe2;" horiz-adv-x="525" 
d="M347 41c-30 -17.333 -56.998 -29.167 -80.998 -35.5s-46.333 -9.5 -67 -9.5c-50.667 0 -89.834 13.5 -117.501 40.5s-41.5 63.833 -41.5 110.5c0 27.333 5.66699 50.5 17 69.5s25.833 34.5 43.5 46.5s37.167 20.667 58.5 26s41.666 8 60.999 8h128v21
c0 23.333 -6.66699 40.833 -20 52.5s-37 17.5 -71 17.5c-16 0 -35.833 -2.33301 -59.5 -7s-47.5 -16.667 -71.5 -36l-57 93c34.667 26.667 69.5 44 104.5 52s67.167 12 96.5 12c70.667 0 122.667 -16 156 -48s50 -80.333 50 -145v-309h-117l-9 40zM349.002 202.999h-106
c-8 0 -15.833 -0.5 -23.5 -1.5s-14.667 -3.33301 -21 -7s-11.5 -8.66699 -15.5 -15s-6 -14.5 -6 -24.5c0 -13.333 4.83301 -24.166 14.5 -32.499s24.167 -12.5 43.5 -12.5c21.333 0 42.333 4.16699 63 12.5s37.667 16.166 51 23.499v57zM270.002 635.999
c-8 -5.33301 -18.5 -12.833 -31.5 -22.5l-40 -29.5l-39.5 -29.5c-12.667 -9.66699 -23 -17.167 -31 -22.5l-49 44l148 155h87l147 -154l-51 -46z" />
    <glyph glyph-name="atilde" unicode="&#xe3;" horiz-adv-x="525" 
d="M347 41c-30 -17.333 -56.998 -29.167 -80.998 -35.5s-46.333 -9.5 -67 -9.5c-50.667 0 -89.834 13.5 -117.501 40.5s-41.5 63.833 -41.5 110.5c0 27.333 5.66699 50.5 17 69.5s25.833 34.5 43.5 46.5s37.167 20.667 58.5 26s41.666 8 60.999 8h128v21
c0 23.333 -6.66699 40.833 -20 52.5s-37 17.5 -71 17.5c-16 0 -35.833 -2.33301 -59.5 -7s-47.5 -16.667 -71.5 -36l-57 93c34.667 26.667 69.5 44 104.5 52s67.167 12 96.5 12c70.667 0 122.667 -16 156 -48s50 -80.333 50 -145v-309h-117l-9 40zM349.002 202.999h-106
c-8 0 -15.833 -0.5 -23.5 -1.5s-14.667 -3.33301 -21 -7s-11.5 -8.66699 -15.5 -15s-6 -14.5 -6 -24.5c0 -13.333 4.83301 -24.166 14.5 -32.499s24.167 -12.5 43.5 -12.5c21.333 0 42.333 4.16699 63 12.5s37.667 16.166 51 23.499v57zM199.002 710.999
c12.667 -0.666992 25.3301 -3.50098 37.9971 -8.50098s24.667 -10.5 36 -16.5l32 -16.5c10 -5 19 -7.5 27 -7.5c11.333 0 21.5 3.33301 30.5 10s19.833 18.667 32.5 36l64 -38c-17.333 -36.667 -35.166 -63 -53.499 -79s-39.166 -24 -62.499 -24
c-13.333 0 -26.166 2.33301 -38.499 7s-24.333 9.83398 -36 15.501l-33 15.5c-10.333 4.66699 -20.166 7 -29.499 7c-11.333 0 -21.833 -2.5 -31.5 -7.5s-21.834 -16.833 -36.501 -35.5l-64 38c16.667 34 34.667 59.833 54 77.5s43 26.5 71 26.5z" />
    <glyph glyph-name="adieresis" unicode="&#xe4;" horiz-adv-x="525" 
d="M347 41c-30 -17.333 -56.998 -29.167 -80.998 -35.5s-46.333 -9.5 -67 -9.5c-50.667 0 -89.834 13.5 -117.501 40.5s-41.5 63.833 -41.5 110.5c0 27.333 5.66699 50.5 17 69.5s25.833 34.5 43.5 46.5s37.167 20.667 58.5 26s41.666 8 60.999 8h128v21
c0 23.333 -6.66699 40.833 -20 52.5s-37 17.5 -71 17.5c-16 0 -35.833 -2.33301 -59.5 -7s-47.5 -16.667 -71.5 -36l-57 93c34.667 26.667 69.5 44 104.5 52s67.167 12 96.5 12c70.667 0 122.667 -16 156 -48s50 -80.333 50 -145v-309h-117l-9 40zM349.002 202.999h-106
c-8 0 -15.833 -0.5 -23.5 -1.5s-14.667 -3.33301 -21 -7s-11.5 -8.66699 -15.5 -15s-6 -14.5 -6 -24.5c0 -13.333 4.83301 -24.166 14.5 -32.499s24.167 -12.5 43.5 -12.5c21.333 0 42.333 4.16699 63 12.5s37.667 16.166 51 23.499v57zM306.002 624.999
c0 19.333 6.66699 35.5 20 48.5s29.666 19.5 48.999 19.5s35.5 -6.5 48.5 -19.5s19.5 -29.167 19.5 -48.5c0 -18.667 -6.5 -34.667 -19.5 -48s-29.167 -20 -48.5 -20s-35.666 6.66699 -48.999 20s-20 29.333 -20 48zM109.002 624.999c0 19.333 6.5 35.5 19.5 48.5
s29.167 19.5 48.5 19.5s35.5 -6.5 48.5 -19.5s19.5 -29.167 19.5 -48.5c0 -18.667 -6.5 -34.667 -19.5 -48s-29.167 -20 -48.5 -20s-35.5 6.66699 -48.5 20s-19.5 29.333 -19.5 48z" />
    <glyph glyph-name="aring" unicode="&#xe5;" horiz-adv-x="525" 
d="M347 41c-30 -17.333 -56.998 -29.167 -80.998 -35.5s-46.333 -9.5 -67 -9.5c-50.667 0 -89.834 13.5 -117.501 40.5s-41.5 63.833 -41.5 110.5c0 27.333 5.66699 50.5 17 69.5s25.833 34.5 43.5 46.5s37.167 20.667 58.5 26s41.666 8 60.999 8h128v21
c0 23.333 -6.66699 40.833 -20 52.5s-37 17.5 -71 17.5c-16 0 -35.833 -2.33301 -59.5 -7s-47.5 -16.667 -71.5 -36l-57 93c34.667 26.667 69.5 44 104.5 52s67.167 12 96.5 12c70.667 0 122.667 -16 156 -48s50 -80.333 50 -145v-309h-117l-9 40zM349.002 202.999h-106
c-8 0 -15.833 -0.5 -23.5 -1.5s-14.667 -3.33301 -21 -7s-11.5 -8.66699 -15.5 -15s-6 -14.5 -6 -24.5c0 -13.333 4.83301 -24.166 14.5 -32.499s24.167 -12.5 43.5 -12.5c21.333 0 42.333 4.16699 63 12.5s37.667 16.166 51 23.499v57zM327.002 642.999
c0 12 -4.33301 22.167 -13 30.5s-19.334 12.5 -32.001 12.5c-13.333 0 -24.333 -4.16699 -33 -12.5s-13 -18.5 -13 -30.5s4.33301 -22.167 13 -30.5s19.667 -12.5 33 -12.5c12.667 0 23.334 4.16699 32.001 12.5s13 18.5 13 30.5zM164.002 642.999
c0 15.333 3.16699 29.833 9.5 43.5s14.833 25.5 25.5 35.5s23.167 18 37.5 24s29.5 9 45.5 9s31.167 -3 45.5 -9s26.666 -14 36.999 -24s18.666 -21.833 24.999 -35.5s9.5 -28.167 9.5 -43.5s-3.16699 -29.833 -9.5 -43.5s-14.833 -25.5 -25.5 -35.5s-23.167 -18 -37.5 -24
s-29.5 -9 -45.5 -9s-31.167 3 -45.5 9s-26.666 14 -36.999 24s-18.666 21.833 -24.999 35.5s-9.5 28.167 -9.5 43.5z" />
    <glyph glyph-name="ae" unicode="&#xe6;" horiz-adv-x="811" 
d="M475 211l-0.00292969 -19.001c0.666992 -28.667 10.167 -49.5 28.5 -62.5s39.166 -19.5 62.499 -19.5c13.333 0 30.5 2.16699 51.5 6.5s43.167 15.833 66.5 34.5l70 -87c-15.333 -14.667 -30.666 -26.5 -45.999 -35.5s-30.666 -16 -45.999 -21
s-30.833 -8.33301 -46.5 -10s-31.5 -2.5 -47.5 -2.5c-34 0 -66 5 -96 15s-55.333 25.667 -76 47c-7.33301 -5.33301 -14.833 -10.166 -22.5 -14.499l-22.5 -12.5c-35.333 -17.333 -65.666 -27.5 -90.999 -30.5s-45.333 -4.5 -60 -4.5c-50.667 0 -90.167 13.5 -118.5 40.5
s-42.5 63.833 -42.5 110.5c0 27.333 5.83301 50.5 17.5 69.5s26.334 34.333 44.001 46s37.167 20.167 58.5 25.5s41.666 8 60.999 8h128v21c0 47.333 -32.667 71 -98 71c-16 0 -34.667 -2.33301 -56 -7s-44 -16.667 -68 -36l-59 92c34.667 26.667 68.5 44 101.5 52
s64.167 12 93.5 12c68.667 0 120.667 -15.667 156 -47c18.667 15.333 40 27 64 35s50 12 78 12c30.667 0 59 -4.33301 85 -13s48.333 -21.167 67 -37.5s33.334 -36.5 44.001 -60.5s16 -51.333 16 -82v-96h-297zM348.997 210.999l-103 0.000976562
c-16.667 0 -32.5 -4.33301 -47.5 -13s-22.5 -23.334 -22.5 -44.001c0 -13.333 4.83301 -24.166 14.5 -32.499s24.167 -12.5 43.5 -12.5c22 0 43.333 4.16699 64 12.5s37.667 16.166 51 23.499v66zM644.997 303c0 28 -8.33203 48.5 -24.999 61.5s-36.334 19.5 -59.001 19.5
c-22 0 -41.667 -6.83301 -59 -20.5s-26 -33.167 -26 -58.5v-11h169v9z" />
    <glyph glyph-name="ccedilla" unicode="&#xe7;" horiz-adv-x="453" 
d="M436 68c-26.667 -28 -54.3359 -46.832 -83.0029 -56.499s-57.334 -15.167 -86.001 -16.5l-10 -32c18 -1.33301 33.333 -5 46 -11s22.834 -13 30.501 -21s13.167 -16.833 16.5 -26.5s5 -19.167 5 -28.5c0 -10.667 -2.5 -21.5 -7.5 -32.5s-12.167 -20.833 -21.5 -29.5
s-21.166 -15.667 -35.499 -21s-30.833 -8 -49.5 -8s-37.334 2.16699 -56.001 6.5s-35.667 10.5 -51 18.5c3.33301 9.33301 7 18.5 11 27.5s7.66699 18.167 11 27.5c16 -7.33301 29.833 -11.833 41.5 -13.5s22.834 -2.5 33.501 -2.5c11.333 0 21.333 3 30 9s13 13.667 13 23
s-3.16699 16.666 -9.5 21.999s-15.166 8 -26.499 8c-6 0 -12 -1 -18 -3c-6 3.33301 -12 6.5 -18 9.5s-12 6.16699 -18 9.5l22 72c-22.667 3.33301 -43.834 9.5 -63.501 18.5s-36.667 20.833 -51 35.5s-25.666 32 -33.999 52s-12.5 43 -12.5 69v146c0 30 6 56.333 18 79
s27.667 41.5 47 56.5s41.166 26.333 65.499 34s48.833 11.5 73.5 11.5c15.333 0 31 -0.666992 47 -2s31.833 -4.33301 47.5 -9s31.167 -11.5 46.5 -20.5s30.333 -21.167 45 -36.5l-73 -93c-23.333 20.667 -43.166 33.167 -59.499 37.5s-30.5 6.5 -42.5 6.5
c-10 0 -20.333 -1.5 -31 -4.5s-20.167 -8 -28.5 -15s-15.166 -16 -20.499 -27s-8 -24.167 -8 -39.5v-99c0 -16 2.5 -29.5 7.5 -40.5s11.5 -20 19.5 -27s17.167 -12 27.5 -15s20.833 -4.5 31.5 -4.5c13.333 0 29.5 3 48.5 9s36.833 17.333 53.5 34z" />
    <glyph glyph-name="egrave" unicode="&#xe8;" horiz-adv-x="508" 
d="M172 210l-0.00195312 -15.999c0 -14.667 2.5 -27.334 7.5 -38.001s11.667 -19.334 20 -26.001s17.833 -11.667 28.5 -15s22 -5 34 -5c14 0 31.333 2.16699 52 6.5s42.667 15.833 66 34.5l70 -87c-15.333 -14.667 -30.666 -26.5 -45.999 -35.5s-30.666 -16 -45.999 -21
s-30.833 -8.33301 -46.5 -10s-31.5 -2.5 -47.5 -2.5c-29.333 0 -57.166 3.66699 -83.499 11s-49.5 18.5 -69.5 33.5s-36 33.833 -48 56.5s-18 49.667 -18 81v128c0 30.667 5.5 58.167 16.5 82.5s26.167 44.833 45.5 61.5s41.666 29.334 66.999 38.001s52.666 13 81.999 13
c30.667 0 59 -4.33301 85 -13s48.333 -21.167 67 -37.5s33.334 -36.5 44.001 -60.5s16 -51.333 16 -82v-97h-296zM244.998 541.001l-130 182l116 39l86 -188zM340.998 303.001c0 28 -8.33203 48.5 -24.999 61.5s-36.334 19.5 -59.001 19.5
c-23.333 0 -43.333 -7.33301 -60 -22s-25 -35.667 -25 -63v-6h169v10z" />
    <glyph glyph-name="eacute" unicode="&#xe9;" horiz-adv-x="508" 
d="M172 210l-0.00195312 -15.999c0 -14.667 2.5 -27.334 7.5 -38.001s11.667 -19.334 20 -26.001s17.833 -11.667 28.5 -15s22 -5 34 -5c14 0 31.333 2.16699 52 6.5s42.667 15.833 66 34.5l70 -87c-15.333 -14.667 -30.666 -26.5 -45.999 -35.5s-30.666 -16 -45.999 -21
s-30.833 -8.33301 -46.5 -10s-31.5 -2.5 -47.5 -2.5c-29.333 0 -57.166 3.66699 -83.499 11s-49.5 18.5 -69.5 33.5s-36 33.833 -48 56.5s-18 49.667 -18 81v128c0 30.667 5.5 58.167 16.5 82.5s26.167 44.833 45.5 61.5s41.666 29.334 66.999 38.001s52.666 13 81.999 13
c30.667 0 59 -4.33301 85 -13s48.333 -21.167 67 -37.5s33.334 -36.5 44.001 -60.5s16 -51.333 16 -82v-97h-296zM202.998 568.001l81 195l116 -37l-123 -185zM340.998 303.001c0 28 -8.33203 48.5 -24.999 61.5s-36.334 19.5 -59.001 19.5
c-23.333 0 -43.333 -7.33301 -60 -22s-25 -35.667 -25 -63v-6h169v10z" />
    <glyph glyph-name="ecircumflex" unicode="&#xea;" horiz-adv-x="508" 
d="M172 210l-0.00195312 -15.999c0 -14.667 2.5 -27.334 7.5 -38.001s11.667 -19.334 20 -26.001s17.833 -11.667 28.5 -15s22 -5 34 -5c14 0 31.333 2.16699 52 6.5s42.667 15.833 66 34.5l70 -87c-15.333 -14.667 -30.666 -26.5 -45.999 -35.5s-30.666 -16 -45.999 -21
s-30.833 -8.33301 -46.5 -10s-31.5 -2.5 -47.5 -2.5c-29.333 0 -57.166 3.66699 -83.499 11s-49.5 18.5 -69.5 33.5s-36 33.833 -48 56.5s-18 49.667 -18 81v128c0 30.667 5.5 58.167 16.5 82.5s26.167 44.833 45.5 61.5s41.666 29.334 66.999 38.001s52.666 13 81.999 13
c30.667 0 59 -4.33301 85 -13s48.333 -21.167 67 -37.5s33.334 -36.5 44.001 -60.5s16 -51.333 16 -82v-97h-296zM261.998 636.001c-8 -5.33301 -18.5 -12.833 -31.5 -22.5l-40 -29.5l-39.5 -29.5c-12.667 -9.66699 -23 -17.167 -31 -22.5l-49 44l148 155h87l147 -154
l-51 -46zM340.998 303.001c0 28 -8.33203 48.5 -24.999 61.5s-36.334 19.5 -59.001 19.5c-23.333 0 -43.333 -7.33301 -60 -22s-25 -35.667 -25 -63v-6h169v10z" />
    <glyph glyph-name="edieresis" unicode="&#xeb;" horiz-adv-x="508" 
d="M172 210l-0.00195312 -15.999c0 -14.667 2.5 -27.334 7.5 -38.001s11.667 -19.334 20 -26.001s17.833 -11.667 28.5 -15s22 -5 34 -5c14 0 31.333 2.16699 52 6.5s42.667 15.833 66 34.5l70 -87c-15.333 -14.667 -30.666 -26.5 -45.999 -35.5s-30.666 -16 -45.999 -21
s-30.833 -8.33301 -46.5 -10s-31.5 -2.5 -47.5 -2.5c-29.333 0 -57.166 3.66699 -83.499 11s-49.5 18.5 -69.5 33.5s-36 33.833 -48 56.5s-18 49.667 -18 81v128c0 30.667 5.5 58.167 16.5 82.5s26.167 44.833 45.5 61.5s41.666 29.334 66.999 38.001s52.666 13 81.999 13
c30.667 0 59 -4.33301 85 -13s48.333 -21.167 67 -37.5s33.334 -36.5 44.001 -60.5s16 -51.333 16 -82v-97h-296zM288.998 625.001c0 19.333 6.66699 35.5 20 48.5s29.666 19.5 48.999 19.5s35.5 -6.5 48.5 -19.5s19.5 -29.167 19.5 -48.5c0 -18.667 -6.5 -34.667 -19.5 -48
s-29.167 -20 -48.5 -20s-35.666 6.66699 -48.999 20s-20 29.333 -20 48zM91.998 625.001c0 19.333 6.5 35.5 19.5 48.5s29.167 19.5 48.5 19.5s35.5 -6.5 48.5 -19.5s19.5 -29.167 19.5 -48.5c0 -18.667 -6.5 -34.667 -19.5 -48s-29.167 -20 -48.5 -20
s-35.5 6.66699 -48.5 20s-19.5 29.333 -19.5 48zM340.998 303.001c0 28 -8.33203 48.5 -24.999 61.5s-36.334 19.5 -59.001 19.5c-23.333 0 -43.333 -7.33301 -60 -22s-25 -35.667 -25 -63v-6h169v10z" />
    <glyph glyph-name="igrave" unicode="&#xec;" horiz-adv-x="259" 
d="M108 541l-132 182l117 39l86 -188zM71 0v494h127v-494h-127z" />
    <glyph glyph-name="iacute" unicode="&#xed;" horiz-adv-x="259" 
d="M75 568l81 195l116 -37l-123 -185zM71 0v494h127v-494h-127z" />
    <glyph glyph-name="icircumflex" unicode="&#xee;" horiz-adv-x="362" 
d="M181 636c-8 -5.33301 -18.5 -12.833 -31.5 -22.5l-40 -29.5l-39.5 -29.5c-12.667 -9.66699 -23 -17.167 -31 -22.5l-49 44l148 155h87l147 -154l-51 -46zM118 0v494h127v-494h-127z" />
    <glyph glyph-name="idieresis" unicode="&#xef;" horiz-adv-x="313" 
d="M187 625c0 19.333 6.66699 35.5 20 48.5s29.666 19.5 48.999 19.5c18.667 0 34.5 -6.5 47.5 -19.5s19.5 -29.167 19.5 -48.5c0 -18.667 -6.5 -34.667 -19.5 -48s-28.833 -20 -47.5 -20c-19.333 0 -35.666 6.66699 -48.999 20s-20 29.333 -20 48zM-10 625
c0 19.333 6.5 35.5 19.5 48.5s29.167 19.5 48.5 19.5c18.667 0 34.667 -6.5 48 -19.5s20 -29.167 20 -48.5c0 -18.667 -6.66699 -34.667 -20 -48s-29.333 -20 -48 -20c-19.333 0 -35.5 6.66699 -48.5 20s-19.5 29.333 -19.5 48zM94 0v494h127v-494h-127z" />
    <glyph glyph-name="eth" unicode="&#xf0;" horiz-adv-x="523" 
d="M239 549l51.9971 40.9961c-13.333 10 -29 18.833 -47 26.5s-41 13.834 -69 18.501l24 98c37.333 -5.33301 71.166 -13.666 101.499 -24.999s55.833 -26.666 76.5 -45.999l57 46l43 -48l-56 -44c12.667 -18.667 23 -36.667 31 -54s14 -36 18 -56s6.66699 -41.833 8 -65.5
s2 -50.834 2 -81.501v-126c0 -33.333 -4 -64.5 -12 -93.5s-21 -54.167 -39 -75.5s-41.5 -38.166 -70.5 -50.499s-64.5 -18.5 -106.5 -18.5c-29.333 0 -56.666 3.66699 -81.999 11s-47.5 18.5 -66.5 33.5s-34 33.833 -45 56.5s-16.5 49.334 -16.5 80.001v101
c0 30.667 5.83301 58 17.5 82s27 44.333 46 61s40.833 29.334 65.5 38.001s49.667 13 75 13c22 0 43.167 -2.83301 63.5 -8.5s37.5 -14.834 51.5 -27.501c0.666992 0 1.33398 0.166992 2.00098 0.5s1.33398 0.5 2.00098 0.5c-1.33301 23.333 -4.16602 43.5 -8.49902 60.5
s-11.5 32.833 -21.5 47.5l-56 -43zM348.997 267.996c0 16 -2.66602 29.335 -7.99902 40.002s-12.166 19.5 -20.499 26.5s-17.833 12 -28.5 15s-21.334 4.5 -32.001 4.5c-12 0 -23.333 -1.83301 -34 -5.5s-20.334 -9.33398 -29.001 -17.001s-15.5 -17.334 -20.5 -29.001
s-7.5 -25.5 -7.5 -41.5v-63c0 -16 2.5 -29.333 7.5 -40s11.667 -19.5 20 -26.5s17.833 -12 28.5 -15s22 -4.5 34 -4.5c24 0 45 6.83301 63 20.5s27 36.5 27 68.5v67z" />
    <glyph glyph-name="ntilde" unicode="&#xf1;" horiz-adv-x="529" 
d="M356 0l0.000976562 305c0 28 -6.33301 47.5 -19 58.5s-28 16.5 -46 16.5c-15.333 0 -32.333 -3.5 -51 -10.5s-40.334 -18.167 -65.001 -33.5v-336h-127v494h117l10 -43c36.667 22.667 67.5 36.667 92.5 42s45.833 8 62.5 8c54.667 0 94.167 -16.167 118.5 -48.5
s36.5 -75.5 36.5 -129.5v-323h-129zM193.001 711c12.667 -0.666992 25.3301 -3.50098 37.9971 -8.50098s24.667 -10.5 36 -16.5l32 -16.5c10 -5 19 -7.5 27 -7.5c11.333 0 21.5 3.33301 30.5 10s19.833 18.667 32.5 36l64 -38c-17.333 -36.667 -35.166 -63 -53.499 -79
s-39.166 -24 -62.499 -24c-13.333 0 -26.166 2.33301 -38.499 7s-24.333 9.83398 -36 15.501l-33 15.5c-10.333 4.66699 -20.166 7 -29.499 7c-11.333 0 -21.833 -2.5 -31.5 -7.5s-21.834 -16.833 -36.501 -35.5l-64 38c16.667 34 34.667 59.833 54 77.5s43 26.5 71 26.5z
" />
    <glyph glyph-name="ograve" unicode="&#xf2;" horiz-adv-x="519" 
d="M476 176c0 -30.667 -6.16406 -57.335 -18.4971 -80.002s-28.666 -41.5 -48.999 -56.5s-43.5 -26.167 -69.5 -33.5s-52.667 -11 -80 -11c-28 0 -55 3.66699 -81 11s-49.167 18.5 -69.5 33.5s-36.5 33.833 -48.5 56.5s-18 49.334 -18 80.001v143
c0 30.667 6.16699 57.334 18.5 80.001s28.666 41.5 48.999 56.5s43.666 26.333 69.999 34s53.166 11.5 80.499 11.5c29.333 0 57.166 -3.83301 83.499 -11.5s49.333 -19.167 69 -34.5s35.167 -34.5 46.5 -57.5s17 -49.833 17 -80.5v-141zM349.003 296.999
c0 16 -2.66797 29.333 -8.00098 40s-12.333 19.5 -21 26.5s-18.167 12 -28.5 15s-20.833 4.5 -31.5 4.5s-21.5 -1.5 -32.5 -4.5s-20.833 -8 -29.5 -15s-15.667 -15.833 -21 -26.5s-8 -24 -8 -40v-98c0 -16 2.5 -29.5 7.5 -40.5s11.833 -20 20.5 -27s18.334 -12 29.001 -15
s22 -4.5 34 -4.5c10.667 0 21.167 1.5 31.5 4.5s19.833 8 28.5 15s15.667 16 21 27s8 24.5 8 40.5v98zM256.002 540.999l-130 182l116 39l86 -188z" />
    <glyph glyph-name="oacute" unicode="&#xf3;" horiz-adv-x="519" 
d="M476 176c0 -30.667 -6.16406 -57.335 -18.4971 -80.002s-28.666 -41.5 -48.999 -56.5s-43.5 -26.167 -69.5 -33.5s-52.667 -11 -80 -11c-28 0 -55 3.66699 -81 11s-49.167 18.5 -69.5 33.5s-36.5 33.833 -48.5 56.5s-18 49.334 -18 80.001v143
c0 30.667 6.16699 57.334 18.5 80.001s28.666 41.5 48.999 56.5s43.666 26.333 69.999 34s53.166 11.5 80.499 11.5c29.333 0 57.166 -3.83301 83.499 -11.5s49.333 -19.167 69 -34.5s35.167 -34.5 46.5 -57.5s17 -49.833 17 -80.5v-141zM349.003 296.999
c0 16 -2.66797 29.333 -8.00098 40s-12.333 19.5 -21 26.5s-18.167 12 -28.5 15s-20.833 4.5 -31.5 4.5s-21.5 -1.5 -32.5 -4.5s-20.833 -8 -29.5 -15s-15.667 -15.833 -21 -26.5s-8 -24 -8 -40v-98c0 -16 2.5 -29.5 7.5 -40.5s11.833 -20 20.5 -27s18.334 -12 29.001 -15
s22 -4.5 34 -4.5c10.667 0 21.167 1.5 31.5 4.5s19.833 8 28.5 15s15.667 16 21 27s8 24.5 8 40.5v98zM207.002 567.999l81 195l116 -37l-123 -185z" />
    <glyph glyph-name="ocircumflex" unicode="&#xf4;" horiz-adv-x="519" 
d="M476 176c0 -30.667 -6.16406 -57.335 -18.4971 -80.002s-28.666 -41.5 -48.999 -56.5s-43.5 -26.167 -69.5 -33.5s-52.667 -11 -80 -11c-28 0 -55 3.66699 -81 11s-49.167 18.5 -69.5 33.5s-36.5 33.833 -48.5 56.5s-18 49.334 -18 80.001v143
c0 30.667 6.16699 57.334 18.5 80.001s28.666 41.5 48.999 56.5s43.666 26.333 69.999 34s53.166 11.5 80.499 11.5c29.333 0 57.166 -3.83301 83.499 -11.5s49.333 -19.167 69 -34.5s35.167 -34.5 46.5 -57.5s17 -49.833 17 -80.5v-141zM349.003 296.999
c0 16 -2.66797 29.333 -8.00098 40s-12.333 19.5 -21 26.5s-18.167 12 -28.5 15s-20.833 4.5 -31.5 4.5s-21.5 -1.5 -32.5 -4.5s-20.833 -8 -29.5 -15s-15.667 -15.833 -21 -26.5s-8 -24 -8 -40v-98c0 -16 2.5 -29.5 7.5 -40.5s11.833 -20 20.5 -27s18.334 -12 29.001 -15
s22 -4.5 34 -4.5c10.667 0 21.167 1.5 31.5 4.5s19.833 8 28.5 15s15.667 16 21 27s8 24.5 8 40.5v98zM262.002 635.999c-8 -5.33301 -18.5 -12.833 -31.5 -22.5l-40 -29.5l-39.5 -29.5c-12.667 -9.66699 -23 -17.167 -31 -22.5l-49 44l148 155h87l147 -154l-51 -46z" />
    <glyph glyph-name="otilde" unicode="&#xf5;" horiz-adv-x="519" 
d="M476 176c0 -30.667 -6.16406 -57.335 -18.4971 -80.002s-28.666 -41.5 -48.999 -56.5s-43.5 -26.167 -69.5 -33.5s-52.667 -11 -80 -11c-28 0 -55 3.66699 -81 11s-49.167 18.5 -69.5 33.5s-36.5 33.833 -48.5 56.5s-18 49.334 -18 80.001v143
c0 30.667 6.16699 57.334 18.5 80.001s28.666 41.5 48.999 56.5s43.666 26.333 69.999 34s53.166 11.5 80.499 11.5c29.333 0 57.166 -3.83301 83.499 -11.5s49.333 -19.167 69 -34.5s35.167 -34.5 46.5 -57.5s17 -49.833 17 -80.5v-141zM349.003 296.999
c0 16 -2.66797 29.333 -8.00098 40s-12.333 19.5 -21 26.5s-18.167 12 -28.5 15s-20.833 4.5 -31.5 4.5s-21.5 -1.5 -32.5 -4.5s-20.833 -8 -29.5 -15s-15.667 -15.833 -21 -26.5s-8 -24 -8 -40v-98c0 -16 2.5 -29.5 7.5 -40.5s11.833 -20 20.5 -27s18.334 -12 29.001 -15
s22 -4.5 34 -4.5c10.667 0 21.167 1.5 31.5 4.5s19.833 8 28.5 15s15.667 16 21 27s8 24.5 8 40.5v98zM194.002 710.999c12.667 -0.666992 25.3301 -3.50098 37.9971 -8.50098s24.667 -10.5 36 -16.5l32 -16.5c10 -5 19 -7.5 27 -7.5c11.333 0 21.5 3.33301 30.5 10
s19.833 18.667 32.5 36l64 -38c-17.333 -36.667 -35.166 -63 -53.499 -79s-39.166 -24 -62.499 -24c-13.333 0 -26.166 2.33301 -38.499 7s-24.333 9.83398 -36 15.501l-33 15.5c-10.333 4.66699 -20.166 7 -29.499 7c-11.333 0 -21.833 -2.5 -31.5 -7.5
s-21.834 -16.833 -36.501 -35.5l-64 38c16.667 34 34.667 59.833 54 77.5s43 26.5 71 26.5z" />
    <glyph glyph-name="odieresis" unicode="&#xf6;" horiz-adv-x="519" 
d="M476 176c0 -30.667 -6.16406 -57.335 -18.4971 -80.002s-28.666 -41.5 -48.999 -56.5s-43.5 -26.167 -69.5 -33.5s-52.667 -11 -80 -11c-28 0 -55 3.66699 -81 11s-49.167 18.5 -69.5 33.5s-36.5 33.833 -48.5 56.5s-18 49.334 -18 80.001v143
c0 30.667 6.16699 57.334 18.5 80.001s28.666 41.5 48.999 56.5s43.666 26.333 69.999 34s53.166 11.5 80.499 11.5c29.333 0 57.166 -3.83301 83.499 -11.5s49.333 -19.167 69 -34.5s35.167 -34.5 46.5 -57.5s17 -49.833 17 -80.5v-141zM349.003 296.999
c0 16 -2.66797 29.333 -8.00098 40s-12.333 19.5 -21 26.5s-18.167 12 -28.5 15s-20.833 4.5 -31.5 4.5s-21.5 -1.5 -32.5 -4.5s-20.833 -8 -29.5 -15s-15.667 -15.833 -21 -26.5s-8 -24 -8 -40v-98c0 -16 2.5 -29.5 7.5 -40.5s11.833 -20 20.5 -27s18.334 -12 29.001 -15
s22 -4.5 34 -4.5c10.667 0 21.167 1.5 31.5 4.5s19.833 8 28.5 15s15.667 16 21 27s8 24.5 8 40.5v98zM293.002 624.999c0 19.333 6.66699 35.5 20 48.5s29.666 19.5 48.999 19.5s35.5 -6.5 48.5 -19.5s19.5 -29.167 19.5 -48.5c0 -18.667 -6.5 -34.667 -19.5 -48
s-29.167 -20 -48.5 -20s-35.666 6.66699 -48.999 20s-20 29.333 -20 48zM96.002 624.999c0 19.333 6.5 35.5 19.5 48.5s29.167 19.5 48.5 19.5s35.5 -6.5 48.5 -19.5s19.5 -29.167 19.5 -48.5c0 -18.667 -6.5 -34.667 -19.5 -48s-29.167 -20 -48.5 -20
s-35.5 6.66699 -48.5 20s-19.5 29.333 -19.5 48z" />
    <glyph glyph-name="divide" unicode="&#xf7;" horiz-adv-x="534" 
d="M346 495c0 -20.667 -7.66602 -38.333 -22.999 -53s-33.666 -22 -54.999 -22c-10.667 0 -20.834 2 -30.501 6s-18 9.33301 -25 16s-12.667 14.667 -17 24s-6.5 19 -6.5 29c0 20.667 7.83301 38.167 23.5 52.5s34.167 21.5 55.5 21.5s39.666 -7.16699 54.999 -21.5
s23 -31.833 23 -52.5zM21.001 247.001v99h493v-99h-493zM346.001 92.001c0 -21.333 -7.66699 -39 -23 -53s-33.666 -21 -54.999 -21s-39.833 7 -55.5 21s-23.5 31.667 -23.5 53c0 20.667 7.83301 38.167 23.5 52.5s34.167 21.5 55.5 21.5s39.666 -7.16699 54.999 -21.5
s23 -31.833 23 -52.5z" />
    <glyph glyph-name="oslash" unicode="&#xf8;" horiz-adv-x="519" 
d="M475 178c0 -30.667 -6.16602 -57.3301 -18.499 -79.9971s-28.5 -41.667 -48.5 -57s-43 -26.833 -69 -34.5s-52.667 -11.5 -80 -11.5c-28 0 -54.667 3.5 -80 10.5s-48 17.833 -68 32.5l-37 -44c-5.33301 4.66699 -10.833 9.16699 -16.5 13.5s-11.167 9.16602 -16.5 14.499
l38 46c-11.333 14.667 -20.333 31 -27 49s-10 38.333 -10 61v138c0 30 6.16699 56.667 18.5 80s28.666 42.666 48.999 57.999s43.5 27 69.5 35s52.667 12 80 12c57.333 0 106 -14.333 146 -43l36 43l34 -29l-38 -45c12 -14.667 21.333 -31.334 28 -50.001s10 -39.667 10 -63
v-136zM349.001 294.004c0 8.66699 -1.00195 17 -3.00195 25l-153 -184c8.66699 -8 18.667 -13.833 30 -17.5s23.333 -5.5 36 -5.5c10.667 0 21.334 1.66699 32.001 5s20.334 8.5 29.001 15.5s15.667 16 21 27s8 24.5 8 40.5v94zM322.999 359.004
c-18 16 -39.3311 23.999 -63.998 23.999c-10.667 0 -21.334 -1.66699 -32.001 -5s-20.334 -8.66602 -29.001 -15.999s-15.667 -16.5 -21 -27.5s-8 -24.5 -8 -40.5v-94v-11.5c0 -3.66699 0.666992 -7.16699 2 -10.5z" />
    <glyph glyph-name="ugrave" unicode="&#xf9;" horiz-adv-x="531" 
d="M173 494v-305.001c0 -28 7 -47.5 21 -58.5s29 -16.5 45 -16.5c15.333 0 32 3.5 50 10.5s39.667 18.833 65 35.5v334h128v-494h-118l-10 43c-36 -22 -66 -35.833 -90 -41.5s-44.333 -8.5 -61 -8.5c-28 0 -52 4.66699 -72 14s-36.333 22.333 -49 39s-22 36.334 -28 59.001
s-9 47.667 -9 75v314h128zM259 540.999l-130 182l116 39l86 -188z" />
    <glyph glyph-name="uacute" unicode="&#xfa;" horiz-adv-x="531" 
d="M173 494v-305.001c0 -28 7 -47.5 21 -58.5s29 -16.5 45 -16.5c15.333 0 32 3.5 50 10.5s39.667 18.833 65 35.5v334h128v-494h-118l-10 43c-36 -22 -66 -35.833 -90 -41.5s-44.333 -8.5 -61 -8.5c-28 0 -52 4.66699 -72 14s-36.333 22.333 -49 39s-22 36.334 -28 59.001
s-9 47.667 -9 75v314h128zM202 567.999l81 195l116 -37l-123 -185z" />
    <glyph glyph-name="ucircumflex" unicode="&#xfb;" horiz-adv-x="531" 
d="M173 494v-305.001c0 -28 7 -47.5 21 -58.5s29 -16.5 45 -16.5c15.333 0 32 3.5 50 10.5s39.667 18.833 65 35.5v334h128v-494h-118l-10 43c-36 -22 -66 -35.833 -90 -41.5s-44.333 -8.5 -61 -8.5c-28 0 -52 4.66699 -72 14s-36.333 22.333 -49 39s-22 36.334 -28 59.001
s-9 47.667 -9 75v314h128zM263 635.999c-8 -5.33301 -18.5 -12.833 -31.5 -22.5l-40 -29.5l-39.5 -29.5c-12.667 -9.66699 -23 -17.167 -31 -22.5l-49 44l148 155h87l147 -154l-51 -46z" />
    <glyph glyph-name="udieresis" unicode="&#xfc;" horiz-adv-x="531" 
d="M173 494v-305.001c0 -28 7 -47.5 21 -58.5s29 -16.5 45 -16.5c15.333 0 32 3.5 50 10.5s39.667 18.833 65 35.5v334h128v-494h-118l-10 43c-36 -22 -66 -35.833 -90 -41.5s-44.333 -8.5 -61 -8.5c-28 0 -52 4.66699 -72 14s-36.333 22.333 -49 39s-22 36.334 -28 59.001
s-9 47.667 -9 75v314h128zM292 624.999c0 19.333 6.66699 35.5 20 48.5s29.666 19.5 48.999 19.5s35.5 -6.5 48.5 -19.5s19.5 -29.167 19.5 -48.5c0 -18.667 -6.5 -34.667 -19.5 -48s-29.167 -20 -48.5 -20s-35.666 6.66699 -48.999 20s-20 29.333 -20 48zM95 624.999
c0 19.333 6.5 35.5 19.5 48.5s29.167 19.5 48.5 19.5s35.5 -6.5 48.5 -19.5s19.5 -29.167 19.5 -48.5c0 -18.667 -6.5 -34.667 -19.5 -48s-29.167 -20 -48.5 -20s-35.5 6.66699 -48.5 20s-19.5 29.333 -19.5 48z" />
    <glyph glyph-name="yacute" unicode="&#xfd;" horiz-adv-x="492" 
d="M99 -199l76 210l-29 22l-136 463h131l46 -187l43 -165h3l55 167l60 185h132l-253 -695h-128zM191 568l81 195l116 -37l-123 -185z" />
    <glyph glyph-name="thorn" unicode="&#xfe;" horiz-adv-x="523" 
d="M483 173c0 -54 -14.667 -97.5 -44 -130.5s-72.666 -49.5 -129.999 -49.5c-17.333 0 -37.833 1.66699 -61.5 5s-47.5 11.333 -71.5 24v-220h-127v886h127v-239c28 17.333 54.333 30 79 38s45.667 12 63 12c53.333 0 94.166 -14.667 122.499 -44s42.5 -75 42.5 -137v-145z
M354 307c0 28.667 -6 48.1689 -18 58.502s-26.667 15.5 -44 15.5c-8 0 -16.833 -1.16699 -26.5 -3.5s-19.834 -5.5 -30.501 -9.5s-21 -8.5 -31 -13.5s-19.333 -10.5 -28 -16.5v-197c22.667 -10.667 42.334 -17.834 59.001 -21.501s32.667 -5.5 48 -5.5
c19.333 -0.666992 36 4.66602 50 15.999s21 31 21 59v118z" />
    <glyph glyph-name="ydieresis" unicode="&#xff;" horiz-adv-x="492" 
d="M99 -199l76 210l-29 22l-136 463h131l46 -187l43 -165h3l55 167l60 185h132l-253 -695h-128zM277 625c0 19.333 6.66699 35.5 20 48.5s29.666 19.5 48.999 19.5s35.5 -6.5 48.5 -19.5s19.5 -29.167 19.5 -48.5c0 -18.667 -6.5 -34.667 -19.5 -48s-29.167 -20 -48.5 -20
s-35.666 6.66699 -48.999 20s-20 29.333 -20 48zM80 625c0 19.333 6.5 35.5 19.5 48.5s29.167 19.5 48.5 19.5s35.5 -6.5 48.5 -19.5s19.5 -29.167 19.5 -48.5c0 -18.667 -6.5 -34.667 -19.5 -48s-29.167 -20 -48.5 -20s-35.5 6.66699 -48.5 20s-19.5 29.333 -19.5 48z" />
    <glyph glyph-name="Amacron" unicode="&#x100;" horiz-adv-x="638" 
d="M438 142h-240l-45 -142h-146l242 689h140l240 -689h-149zM235 257h166l-27 88l-54 182h-4l-53 -179zM161 765v104h312v-104h-312z" />
    <glyph glyph-name="amacron" unicode="&#x101;" horiz-adv-x="525" 
d="M347 41c-30 -17.333 -56.998 -29.167 -80.998 -35.5s-46.333 -9.5 -67 -9.5c-50.667 0 -89.834 13.5 -117.501 40.5s-41.5 63.833 -41.5 110.5c0 27.333 5.66699 50.5 17 69.5s25.833 34.5 43.5 46.5s37.167 20.667 58.5 26s41.666 8 60.999 8h128v21
c0 23.333 -6.66699 40.833 -20 52.5s-37 17.5 -71 17.5c-16 0 -35.833 -2.33301 -59.5 -7s-47.5 -16.667 -71.5 -36l-57 93c34.667 26.667 69.5 44 104.5 52s67.167 12 96.5 12c70.667 0 122.667 -16 156 -48s50 -80.333 50 -145v-309h-117l-9 40zM349.002 202.999h-106
c-8 0 -15.833 -0.5 -23.5 -1.5s-14.667 -3.33301 -21 -7s-11.5 -8.66699 -15.5 -15s-6 -14.5 -6 -24.5c0 -13.333 4.83301 -24.166 14.5 -32.499s24.167 -12.5 43.5 -12.5c21.333 0 42.333 4.16699 63 12.5s37.667 16.166 51 23.499v57zM116.002 584.999v104h312v-104h-312z
" />
    <glyph glyph-name="Abreve" unicode="&#x102;" horiz-adv-x="638" 
d="M438 142h-240l-45 -142h-146l242 689h140l240 -689h-149zM235 257h166l-27 88l-54 182h-4l-53 -179zM319 731c-28 0 -51.5 5.16699 -70.5 15.5s-34.333 23 -46 38s-20.167 31.333 -25.5 49s-8.66602 33.834 -9.99902 48.501h91c0 -6.66699 1.33301 -14 4 -22
s6.5 -15.333 11.5 -22s11.333 -12.167 19 -16.5s16.5 -6.5 26.5 -6.5s18.833 2.16699 26.5 6.5s14 9.83301 19 16.5s8.83301 14 11.5 22s4 15.333 4 22h91c-2 -14.667 -5.66699 -30.834 -11 -48.501s-13.833 -34 -25.5 -49s-26.834 -27.667 -45.501 -38s-42 -15.5 -70 -15.5
z" />
    <glyph glyph-name="abreve" unicode="&#x103;" horiz-adv-x="525" 
d="M347 41c-30 -17.333 -56.998 -29.167 -80.998 -35.5s-46.333 -9.5 -67 -9.5c-50.667 0 -89.834 13.5 -117.501 40.5s-41.5 63.833 -41.5 110.5c0 27.333 5.66699 50.5 17 69.5s25.833 34.5 43.5 46.5s37.167 20.667 58.5 26s41.666 8 60.999 8h128v21
c0 23.333 -6.66699 40.833 -20 52.5s-37 17.5 -71 17.5c-16 0 -35.833 -2.33301 -59.5 -7s-47.5 -16.667 -71.5 -36l-57 93c34.667 26.667 69.5 44 104.5 52s67.167 12 96.5 12c70.667 0 122.667 -16 156 -48s50 -80.333 50 -145v-309h-117l-9 40zM349.002 202.999h-106
c-8 0 -15.833 -0.5 -23.5 -1.5s-14.667 -3.33301 -21 -7s-11.5 -8.66699 -15.5 -15s-6 -14.5 -6 -24.5c0 -13.333 4.83301 -24.166 14.5 -32.499s24.167 -12.5 43.5 -12.5c21.333 0 42.333 4.16699 63 12.5s37.667 16.166 51 23.499v57zM275.002 562.999
c-28 0 -51.5 5.16699 -70.5 15.5s-34.333 23 -46 38s-20.167 31.333 -25.5 49s-8.66602 33.834 -9.99902 48.501h92c0 -6.66699 1.33301 -13.834 4 -21.501s6.5 -14.834 11.5 -21.501s11.167 -12.167 18.5 -16.5s16 -6.5 26 -6.5c10.667 0 19.834 2.16699 27.501 6.5
s14 9.83301 19 16.5s8.83301 13.834 11.5 21.501s4 14.834 4 21.501h91c-2 -14.667 -5.66699 -30.834 -11 -48.501s-13.833 -34 -25.5 -49s-26.834 -27.667 -45.501 -38s-42.334 -15.5 -71.001 -15.5z" />
    <glyph glyph-name="Aogonek" unicode="&#x104;" horiz-adv-x="638" 
d="M438 142l-239.998 -0.000976562l-45 -142h-146l242 689h140l240 -689h-63c-14 -19.333 -24.167 -35.666 -30.5 -48.999s-9.5 -25.333 -9.5 -36c0 -21.333 12.333 -32 37 -32c13.333 0 33.666 5.33301 60.999 16l26 -65c-15.333 -8.66699 -32 -15.667 -50 -21
s-35.667 -8 -53 -8c-30.667 0 -55.667 9.33301 -75 28s-29 41 -29 67c0 13.333 2.66699 28 8 44s15.666 34.667 30.999 56h-2zM235.002 256.999h166l-27 88l-54 182h-4l-53 -179z" />
    <glyph glyph-name="aogonek" unicode="&#x105;" horiz-adv-x="525" 
d="M347 41c-30 -17.333 -56.9971 -29.168 -80.9971 -35.501s-46.333 -9.5 -67 -9.5c-50.667 0 -89.834 13.5 -117.501 40.5s-41.5 63.833 -41.5 110.5c0 27.333 5.66699 50.5 17 69.5s25.833 34.5 43.5 46.5s37.167 20.667 58.5 26s41.666 8 60.999 8h128v21
c0 23.333 -6.66699 40.833 -20 52.5s-37 17.5 -71 17.5c-16 0 -35.833 -2.33301 -59.5 -7s-47.5 -16.667 -71.5 -36l-57 93c34.667 26.667 69.5 44 104.5 52s67.167 12 96.5 12c70.667 0 122.667 -16 156 -48s50 -80.333 50 -145v-309h-34
c-14 -19.333 -24.167 -35.666 -30.5 -48.999s-9.5 -25.333 -9.5 -36c0 -21.333 12.333 -32 37 -32c13.333 0 33.666 5.33301 60.999 16l26 -65c-15.333 -8.66699 -32 -15.667 -50 -21s-35.667 -8 -53 -8c-30.667 0 -55.667 9.33301 -75 28s-29 41 -29 67
c0 14 2.83301 28.833 8.5 44.5s16.167 34.5 31.5 56.5l-9 39zM349.003 202.998h-106c-8 0 -15.833 -0.5 -23.5 -1.5s-14.667 -3.33301 -21 -7s-11.5 -8.66699 -15.5 -15s-6 -14.5 -6 -24.5c0 -13.333 4.83301 -24.166 14.5 -32.499s24.167 -12.5 43.5 -12.5
c21.333 0 42.333 4.16699 63 12.5s37.667 16.166 51 23.499v57z" />
    <glyph glyph-name="Cacute" unicode="&#x106;" horiz-adv-x="561" 
d="M464 522c-21.333 18 -44.332 30.499 -68.999 37.499s-48.667 10.5 -72 10.5c-15.333 0 -30.666 -2.16699 -45.999 -6.5s-29 -11.5 -41 -21.5s-21.833 -23 -29.5 -39s-11.5 -35.333 -11.5 -58v-201c0 -22.667 3.83301 -41.834 11.5 -57.501s17.667 -28.5 30 -38.5
s26 -17.333 41 -22s30.167 -7 45.5 -7c23.333 0 46.833 3.33301 70.5 10s47.5 19.334 71.5 38.001l65 -106c-25.333 -21.333 -56.333 -38 -93 -50s-75.334 -18 -116.001 -18c-32.667 0 -64.667 4.66699 -96 14s-59.333 23.166 -84 41.499s-44.667 41.333 -60 69
s-23 60.167 -23 97.5v258c0 36.667 7.5 68.834 22.5 96.501s34.667 50.834 59 69.501s52.166 32.667 83.499 42s63.333 14 96 14c40 0 78.5 -5.33301 115.5 -16s68.833 -27.667 95.5 -51zM224.001 794.999l170 126l80 -92l-200 -95z" />
    <glyph glyph-name="cacute" unicode="&#x107;" horiz-adv-x="453" 
d="M436 68c-14.667 -15.333 -29.667 -27.833 -45 -37.5s-31 -17.167 -47 -22.5s-31.833 -8.83301 -47.5 -10.5s-31.5 -2.5 -47.5 -2.5c-27.333 0 -53.333 3.66699 -78 11s-46.334 18.5 -65.001 33.5s-33.5 33.667 -44.5 56s-16.5 48.5 -16.5 78.5v146c0 30 6 56.333 18 79
s27.667 41.5 47 56.5s41.166 26.333 65.499 34s48.833 11.5 73.5 11.5c15.333 0 31 -0.666992 47 -2s31.833 -4.33301 47.5 -9s31.167 -11.5 46.5 -20.5s30.333 -21.167 45 -36.5l-73 -93c-23.333 20.667 -43.166 33.167 -59.499 37.5s-30.5 6.5 -42.5 6.5
c-10 0 -20.333 -1.5 -31 -4.5s-20.167 -8 -28.5 -15s-15.166 -16 -20.499 -27s-8 -24.167 -8 -39.5v-99c0 -16 2.5 -29.5 7.5 -40.5s11.5 -20 19.5 -27s17.167 -12 27.5 -15s20.833 -4.5 31.5 -4.5c13.333 0 29.5 3 48.5 9s36.833 17.333 53.5 34zM188 568l81 195l116 -37
l-123 -185z" />
    <glyph glyph-name="Ccircumflex" unicode="&#x108;" horiz-adv-x="561" 
d="M464 522c-21.333 18 -44.332 30.499 -68.999 37.499s-48.667 10.5 -72 10.5c-15.333 0 -30.666 -2.16699 -45.999 -6.5s-29 -11.5 -41 -21.5s-21.833 -23 -29.5 -39s-11.5 -35.333 -11.5 -58v-201c0 -22.667 3.83301 -41.834 11.5 -57.501s17.667 -28.5 30 -38.5
s26 -17.333 41 -22s30.167 -7 45.5 -7c23.333 0 46.833 3.33301 70.5 10s47.5 19.334 71.5 38.001l65 -106c-25.333 -21.333 -56.333 -38 -93 -50s-75.334 -18 -116.001 -18c-32.667 0 -64.667 4.66699 -96 14s-59.333 23.166 -84 41.499s-44.667 41.333 -60 69
s-23 60.167 -23 97.5v258c0 36.667 7.5 68.834 22.5 96.501s34.667 50.834 59 69.501s52.166 32.667 83.499 42s63.333 14 96 14c40 0 78.5 -5.33301 115.5 -16s68.833 -27.667 95.5 -51zM318.001 811.999l-148 -81l-42 52l150 122h83l149 -122l-44 -53z" />
    <glyph glyph-name="ccircumflex" unicode="&#x109;" horiz-adv-x="453" 
d="M436 68c-14.667 -15.333 -29.667 -27.833 -45 -37.5s-31 -17.167 -47 -22.5s-31.833 -8.83301 -47.5 -10.5s-31.5 -2.5 -47.5 -2.5c-27.333 0 -53.333 3.66699 -78 11s-46.334 18.5 -65.001 33.5s-33.5 33.667 -44.5 56s-16.5 48.5 -16.5 78.5v146c0 30 6 56.333 18 79
s27.667 41.5 47 56.5s41.166 26.333 65.499 34s48.833 11.5 73.5 11.5c15.333 0 31 -0.666992 47 -2s31.833 -4.33301 47.5 -9s31.167 -11.5 46.5 -20.5s30.333 -21.167 45 -36.5l-73 -93c-23.333 20.667 -43.166 33.167 -59.499 37.5s-30.5 6.5 -42.5 6.5
c-10 0 -20.333 -1.5 -31 -4.5s-20.167 -8 -28.5 -15s-15.166 -16 -20.499 -27s-8 -24.167 -8 -39.5v-99c0 -16 2.5 -29.5 7.5 -40.5s11.5 -20 19.5 -27s17.167 -12 27.5 -15s20.833 -4.5 31.5 -4.5c13.333 0 29.5 3 48.5 9s36.833 17.333 53.5 34zM248 636
c-8 -5.33301 -18.5 -12.833 -31.5 -22.5l-40 -29.5l-39.5 -29.5c-12.667 -9.66699 -23 -17.167 -31 -22.5l-49 44l148 155h87l147 -154l-51 -46z" />
    <glyph glyph-name="Cdotaccent" unicode="&#x10a;" horiz-adv-x="561" 
d="M464 522c-21.333 18 -44.332 30.499 -68.999 37.499s-48.667 10.5 -72 10.5c-15.333 0 -30.666 -2.16699 -45.999 -6.5s-29 -11.5 -41 -21.5s-21.833 -23 -29.5 -39s-11.5 -35.333 -11.5 -58v-201c0 -22.667 3.83301 -41.834 11.5 -57.501s17.667 -28.5 30 -38.5
s26 -17.333 41 -22s30.167 -7 45.5 -7c23.333 0 46.833 3.33301 70.5 10s47.5 19.334 71.5 38.001l65 -106c-25.333 -21.333 -56.333 -38 -93 -50s-75.334 -18 -116.001 -18c-32.667 0 -64.667 4.66699 -96 14s-59.333 23.166 -84 41.499s-44.667 41.333 -60 69
s-23 60.167 -23 97.5v258c0 36.667 7.5 68.834 22.5 96.501s34.667 50.834 59 69.501s52.166 32.667 83.499 42s63.333 14 96 14c40 0 78.5 -5.33301 115.5 -16s68.833 -27.667 95.5 -51zM314.001 738.999c-21.333 0 -38.833 7.16699 -52.5 21.5s-20.5 31.833 -20.5 52.5
c0 20 6.83301 37.167 20.5 51.5s30.834 21.5 51.501 21.5s38 -7.16699 52 -21.5s21 -31.5 21 -51.5s-6.33301 -37.333 -19 -52s-30.334 -22 -53.001 -22z" />
    <glyph glyph-name="cdotaccent" unicode="&#x10b;" horiz-adv-x="453" 
d="M436 68c-14.667 -15.333 -29.667 -27.833 -45 -37.5s-31 -17.167 -47 -22.5s-31.833 -8.83301 -47.5 -10.5s-31.5 -2.5 -47.5 -2.5c-27.333 0 -53.333 3.66699 -78 11s-46.334 18.5 -65.001 33.5s-33.5 33.667 -44.5 56s-16.5 48.5 -16.5 78.5v146c0 30 6 56.333 18 79
s27.667 41.5 47 56.5s41.166 26.333 65.499 34s48.833 11.5 73.5 11.5c15.333 0 31 -0.666992 47 -2s31.833 -4.33301 47.5 -9s31.167 -11.5 46.5 -20.5s30.333 -21.167 45 -36.5l-73 -93c-23.333 20.667 -43.166 33.167 -59.499 37.5s-30.5 6.5 -42.5 6.5
c-10 0 -20.333 -1.5 -31 -4.5s-20.167 -8 -28.5 -15s-15.166 -16 -20.499 -27s-8 -24.167 -8 -39.5v-99c0 -16 2.5 -29.5 7.5 -40.5s11.5 -20 19.5 -27s17.167 -12 27.5 -15s20.833 -4.5 31.5 -4.5c13.333 0 29.5 3 48.5 9s36.833 17.333 53.5 34zM254 563
c-21.333 0 -38.833 7.16699 -52.5 21.5s-20.5 31.833 -20.5 52.5c0 20 6.83301 37.167 20.5 51.5s30.834 21.5 51.501 21.5s38 -7.16699 52 -21.5s21 -31.5 21 -51.5s-6.33301 -37.333 -19 -52s-30.334 -22 -53.001 -22z" />
    <glyph glyph-name="Ccaron" unicode="&#x10c;" horiz-adv-x="561" 
d="M464 522c-21.333 18 -44.332 30.499 -68.999 37.499s-48.667 10.5 -72 10.5c-15.333 0 -30.666 -2.16699 -45.999 -6.5s-29 -11.5 -41 -21.5s-21.833 -23 -29.5 -39s-11.5 -35.333 -11.5 -58v-201c0 -22.667 3.83301 -41.834 11.5 -57.501s17.667 -28.5 30 -38.5
s26 -17.333 41 -22s30.167 -7 45.5 -7c23.333 0 46.833 3.33301 70.5 10s47.5 19.334 71.5 38.001l65 -106c-25.333 -21.333 -56.333 -38 -93 -50s-75.334 -18 -116.001 -18c-32.667 0 -64.667 4.66699 -96 14s-59.333 23.166 -84 41.499s-44.667 41.333 -60 69
s-23 60.167 -23 97.5v258c0 36.667 7.5 68.834 22.5 96.501s34.667 50.834 59 69.501s52.166 32.667 83.499 42s63.333 14 96 14c40 0 78.5 -5.33301 115.5 -16s68.833 -27.667 95.5 -51zM448.001 907.999l44 -53l-148 -122h-84l-149 123l41 51l149 -80z" />
    <glyph glyph-name="ccaron" unicode="&#x10d;" horiz-adv-x="453" 
d="M436 68c-14.667 -15.333 -29.667 -27.833 -45 -37.5s-31 -17.167 -47 -22.5s-31.833 -8.83301 -47.5 -10.5s-31.5 -2.5 -47.5 -2.5c-27.333 0 -53.333 3.66699 -78 11s-46.334 18.5 -65.001 33.5s-33.5 33.667 -44.5 56s-16.5 48.5 -16.5 78.5v146c0 30 6 56.333 18 79
s27.667 41.5 47 56.5s41.166 26.333 65.499 34s48.833 11.5 73.5 11.5c15.333 0 31 -0.666992 47 -2s31.833 -4.33301 47.5 -9s31.167 -11.5 46.5 -20.5s30.333 -21.167 45 -36.5l-73 -93c-23.333 20.667 -43.166 33.167 -59.499 37.5s-30.5 6.5 -42.5 6.5
c-10 0 -20.333 -1.5 -31 -4.5s-20.167 -8 -28.5 -15s-15.166 -16 -20.499 -27s-8 -24.167 -8 -39.5v-99c0 -16 2.5 -29.5 7.5 -40.5s11.5 -20 19.5 -27s17.167 -12 27.5 -15s20.833 -4.5 31.5 -4.5c13.333 0 29.5 3 48.5 9s36.833 17.333 53.5 34zM390 731l51 -46.001
l-147 -154h-87l-148 155l49 44c8 -5.33301 18.333 -12.666 31 -21.999l39.5 -29.5l40 -29.5l31.5 -23z" />
    <glyph glyph-name="Dcaron" unicode="&#x10e;" horiz-adv-x="617" 
d="M566 221c0 -36 -6.83496 -67.8301 -20.502 -95.4971s-32 -50.834 -55 -69.501s-49.333 -32.667 -79 -42s-60.167 -14 -91.5 -14h-260v689h261c31.333 0 61.833 -4.5 91.5 -13.5s55.834 -22.833 78.501 -41.5s40.834 -41.834 54.501 -69.501s20.5 -59.834 20.5 -96.501
v-247zM426.998 442.003c0 22.667 -3.83301 41.833 -11.5 57.5s-17.5 28.5 -29.5 38.5s-25.5 17.167 -40.5 21.5s-30.167 6.5 -45.5 6.5h-104v-445h104c14.667 0 29.5 2.16699 44.5 6.5s28.667 11.5 41 21.5s22.333 22.833 30 38.5s11.5 35.167 11.5 58.5v196z
M424.998 908.002l44 -53l-148 -122h-84l-149 123l41 51l149 -80z" />
    <glyph glyph-name="dcaron" unicode="&#x10f;" horiz-adv-x="661" 
d="M515 513c17.333 11.333 30.834 22.667 40.501 34s15.5 24.666 17.5 39.999c-14.667 2.66699 -27.334 10.334 -38.001 23.001s-16 28.667 -16 48c0 21.333 7.66699 39.166 23 53.499s33.333 21.5 54 21.5c27.333 0 48.333 -9.5 63 -28.5s22 -42.5 22 -70.5
c0 -38.667 -11.667 -73.667 -35 -105s-53 -55.666 -89 -72.999zM42.001 322.001c0 54 15 97.332 45 129.999s72.667 49 128 49c17.333 0 38 -1.83301 62 -5.5s47.667 -11.167 71 -22.5v243h128v-716h-118l-10 46c-28 -17.333 -53.833 -30.166 -77.5 -38.499
s-44.167 -12.5 -61.5 -12.5c-54 0 -95.333 14.833 -124 44.5s-43 75.167 -43 136.5v146zM170.001 187c0 -28.667 6.16797 -48.166 18.501 -58.499s27.166 -15.5 44.499 -15.5c8 0 16.833 1.16699 26.5 3.5s19.667 5.5 30 9.5s20.5 8.5 30.5 13.5s19.333 10.5 28 16.5v198
c-21.333 9.33301 -40.333 16.166 -57 20.499s-33 6.5 -49 6.5c-20 0 -37 -6 -51 -18s-21 -32 -21 -60v-116z" />
    <glyph glyph-name="Dcroat" unicode="&#x110;" horiz-adv-x="617" 
d="M6 391l53.998 0.00292969v298h261c31.333 0 61.833 -4.5 91.5 -13.5s55.834 -22.833 78.501 -41.5s40.834 -41.834 54.501 -69.501s20.5 -59.834 20.5 -96.501v-247c0 -36 -6.83301 -67.833 -20.5 -95.5s-32 -50.834 -55 -69.501s-49.333 -32.667 -79 -42
s-60.167 -14 -91.5 -14h-260v296h-54v95zM426.998 442.003c0 22.667 -3.83301 41.833 -11.5 57.5s-17.5 28.5 -29.5 38.5s-25.5 17.167 -40.5 21.5s-30.167 6.5 -45.5 6.5h-104v-175h105v-95h-105v-175h104c14.667 0 29.5 2.16699 44.5 6.5s28.667 11.5 41 21.5
s22.333 22.833 30 38.5s11.5 35.167 11.5 58.5v196z" />
    <glyph glyph-name="dcroat" unicode="&#x111;" horiz-adv-x="525" 
d="M205 638l143 -0.000976562v78h128v-78h45v-81h-45v-557h-118l-10 46c-28 -17.333 -53.833 -30.166 -77.5 -38.499s-44.167 -12.5 -61.5 -12.5c-54 0 -95.333 14.833 -124 44.5s-43 75.167 -43 136.5v146c0 54 15 97.333 45 130s72.667 49 128 49
c17.333 0 38 -1.83301 62 -5.5s47.667 -11.167 71 -22.5v84h-143v81zM170 186.999c0 -28.667 6.16797 -48.166 18.501 -58.499s27.166 -15.5 44.499 -15.5c8 0 16.833 1.16699 26.5 3.5s19.667 5.5 30 9.5s20.5 8.5 30.5 13.5s19.333 10.5 28 16.5v198
c-21.333 9.33301 -40.333 16.166 -57 20.499s-33 6.5 -49 6.5c-20 0 -37 -6 -51 -18s-21 -32 -21 -60v-116z" />
    <glyph glyph-name="Emacron" unicode="&#x112;" horiz-adv-x="577" 
d="M60 689h475v-123h-338v-158h289v-123h-289v-163h338v-122h-475v689zM147 765v104h312v-104h-312z" />
    <glyph glyph-name="emacron" unicode="&#x113;" horiz-adv-x="508" 
d="M172 210l-0.00195312 -15.999c0 -14.667 2.5 -27.334 7.5 -38.001s11.667 -19.334 20 -26.001s17.833 -11.667 28.5 -15s22 -5 34 -5c14 0 31.333 2.16699 52 6.5s42.667 15.833 66 34.5l70 -87c-15.333 -14.667 -30.666 -26.5 -45.999 -35.5s-30.666 -16 -45.999 -21
s-30.833 -8.33301 -46.5 -10s-31.5 -2.5 -47.5 -2.5c-29.333 0 -57.166 3.66699 -83.499 11s-49.5 18.5 -69.5 33.5s-36 33.833 -48 56.5s-18 49.667 -18 81v128c0 30.667 5.5 58.167 16.5 82.5s26.167 44.833 45.5 61.5s41.666 29.334 66.999 38.001s52.666 13 81.999 13
c30.667 0 59 -4.33301 85 -13s48.333 -21.167 67 -37.5s33.334 -36.5 44.001 -60.5s16 -51.333 16 -82v-97h-296zM105.998 585.001v104h312v-104h-312zM340.998 303.001c0 28 -8.33203 48.5 -24.999 61.5s-36.334 19.5 -59.001 19.5c-23.333 0 -43.333 -7.33301 -60 -22
s-25 -35.667 -25 -63v-6h169v10z" />
    <glyph glyph-name="Ebreve" unicode="&#x114;" horiz-adv-x="577" 
d="M60 689h475v-123h-338v-158h289v-123h-289v-163h338v-122h-475v689zM302 731c-28 0 -51.5 5.16699 -70.5 15.5s-34.333 23 -46 38s-20.167 31.333 -25.5 49s-8.66602 33.834 -9.99902 48.501h91c0 -6.66699 1.33301 -14 4 -22s6.5 -15.333 11.5 -22
s11.333 -12.167 19 -16.5s16.5 -6.5 26.5 -6.5s18.833 2.16699 26.5 6.5s14 9.83301 19 16.5s8.83301 14 11.5 22s4 15.333 4 22h91c-2 -14.667 -5.66699 -30.834 -11 -48.501s-13.833 -34 -25.5 -49s-26.834 -27.667 -45.501 -38s-42 -15.5 -70 -15.5z" />
    <glyph glyph-name="ebreve" unicode="&#x115;" horiz-adv-x="508" 
d="M172 210l-0.00195312 -15.999c0 -14.667 2.5 -27.334 7.5 -38.001s11.667 -19.334 20 -26.001s17.833 -11.667 28.5 -15s22 -5 34 -5c14 0 31.333 2.16699 52 6.5s42.667 15.833 66 34.5l70 -87c-15.333 -14.667 -30.666 -26.5 -45.999 -35.5s-30.666 -16 -45.999 -21
s-30.833 -8.33301 -46.5 -10s-31.5 -2.5 -47.5 -2.5c-29.333 0 -57.166 3.66699 -83.499 11s-49.5 18.5 -69.5 33.5s-36 33.833 -48 56.5s-18 49.667 -18 81v128c0 30.667 5.5 58.167 16.5 82.5s26.167 44.833 45.5 61.5s41.666 29.334 66.999 38.001s52.666 13 81.999 13
c30.667 0 59 -4.33301 85 -13s48.333 -21.167 67 -37.5s33.334 -36.5 44.001 -60.5s16 -51.333 16 -82v-97h-296zM261.998 563.001c-28 0 -51.5 5.16699 -70.5 15.5s-34.333 23 -46 38s-20.167 31.333 -25.5 49s-8.66602 33.834 -9.99902 48.501h92
c0 -6.66699 1.33301 -13.834 4 -21.501s6.5 -14.834 11.5 -21.501s11.167 -12.167 18.5 -16.5s16 -6.5 26 -6.5c10.667 0 19.834 2.16699 27.501 6.5s14 9.83301 19 16.5s8.83301 13.834 11.5 21.501s4 14.834 4 21.501h91c-2 -14.667 -5.66699 -30.834 -11 -48.501
s-13.833 -34 -25.5 -49s-26.834 -27.667 -45.501 -38s-42.334 -15.5 -71.001 -15.5zM340.998 303.001c0 28 -8.33203 48.5 -24.999 61.5s-36.334 19.5 -59.001 19.5c-23.333 0 -43.333 -7.33301 -60 -22s-25 -35.667 -25 -63v-6h169v10z" />
    <glyph glyph-name="Edotaccent" unicode="&#x116;" horiz-adv-x="577" 
d="M60 689h475v-123h-338v-158h289v-123h-289v-163h338v-122h-475v689zM305 739c-21.333 0 -38.833 7.16699 -52.5 21.5s-20.5 31.833 -20.5 52.5c0 20 6.83301 37.167 20.5 51.5s30.834 21.5 51.501 21.5s38 -7.16699 52 -21.5s21 -31.5 21 -51.5s-6.33301 -37.333 -19 -52
s-30.334 -22 -53.001 -22z" />
    <glyph glyph-name="edotaccent" unicode="&#x117;" horiz-adv-x="508" 
d="M172 210l-0.00195312 -15.999c0 -14.667 2.5 -27.334 7.5 -38.001s11.667 -19.334 20 -26.001s17.833 -11.667 28.5 -15s22 -5 34 -5c14 0 31.333 2.16699 52 6.5s42.667 15.833 66 34.5l70 -87c-15.333 -14.667 -30.666 -26.5 -45.999 -35.5s-30.666 -16 -45.999 -21
s-30.833 -8.33301 -46.5 -10s-31.5 -2.5 -47.5 -2.5c-29.333 0 -57.166 3.66699 -83.499 11s-49.5 18.5 -69.5 33.5s-36 33.833 -48 56.5s-18 49.667 -18 81v128c0 30.667 5.5 58.167 16.5 82.5s26.167 44.833 45.5 61.5s41.666 29.334 66.999 38.001s52.666 13 81.999 13
c30.667 0 59 -4.33301 85 -13s48.333 -21.167 67 -37.5s33.334 -36.5 44.001 -60.5s16 -51.333 16 -82v-97h-296zM259.998 563.001c-21.333 0 -38.833 7.16699 -52.5 21.5s-20.5 31.833 -20.5 52.5c0 20 6.83301 37.167 20.5 51.5s30.834 21.5 51.501 21.5
s38 -7.16699 52 -21.5s21 -31.5 21 -51.5s-6.33301 -37.333 -19 -52s-30.334 -22 -53.001 -22zM340.998 303.001c0 28 -8.33203 48.5 -24.999 61.5s-36.334 19.5 -59.001 19.5c-23.333 0 -43.333 -7.33301 -60 -22s-25 -35.667 -25 -63v-6h169v10z" />
    <glyph glyph-name="Eogonek" unicode="&#x118;" horiz-adv-x="577" 
d="M60 689l475.002 -0.000976562v-123h-338v-158h289v-123h-289v-163h338v-122c-14 -19.333 -24.167 -35.666 -30.5 -48.999s-9.5 -25.333 -9.5 -36c0 -21.333 12.333 -32 37 -32c13.333 0 33.666 5.33301 60.999 16l26 -65c-15.333 -8.66699 -32 -15.667 -50 -21
s-35.667 -8 -53 -8c-30.667 0 -55.667 9.33301 -75 28s-29 41 -29 67c0 13.333 2.66699 28 8 44s15.666 34.667 30.999 56h-391v689z" />
    <glyph glyph-name="eogonek" unicode="&#x119;" horiz-adv-x="508" 
d="M293 -64c0 9.33301 1.16699 19 3.5 29s6.5 20.667 12.5 32c-7.33301 -0.666992 -14.833 -1.16699 -22.5 -1.5s-15.167 -0.5 -22.5 -0.5c-29.333 0 -57.166 3.66699 -83.499 11s-49.5 18.5 -69.5 33.5s-36 33.833 -48 56.5s-18 49.667 -18 81v128
c0 30.667 5.5 58.167 16.5 82.5s26.167 44.833 45.5 61.5s41.666 29.334 66.999 38.001s52.666 13 81.999 13c30.667 0 59 -4.33301 85 -13s48.333 -21.167 67 -37.5s33.334 -36.5 44.001 -60.5s16 -51.333 16 -82v-97h-296v-16c0 -14.667 2.5 -27.334 7.5 -38.001
s11.667 -19.334 20 -26.001s17.833 -11.667 28.5 -15s22 -5 34 -5c14 0 31.333 2.16699 52 6.5s42.667 15.833 66 34.5l70 -87c-11.333 -10.667 -22.666 -20 -33.999 -28c-14 -19.333 -24.167 -35.666 -30.5 -48.999s-9.5 -25.333 -9.5 -36c0 -21.333 12.333 -32 37 -32
c13.333 0 33.666 5.33301 60.999 16l26 -65c-15.333 -8.66699 -32 -15.667 -50 -21s-35.667 -8 -53 -8c-30.667 0 -55.667 9.33301 -75 28s-29 41 -29 67zM341 303c0 28 -8.33203 48.5 -24.999 61.5s-36.334 19.5 -59.001 19.5c-23.333 0 -43.333 -7.33301 -60 -22
s-25 -35.667 -25 -63v-6h169v10z" />
    <glyph glyph-name="Ecaron" unicode="&#x11a;" horiz-adv-x="577" 
d="M60 689h475v-123h-338v-158h289v-123h-289v-163h338v-122h-475v689zM447 908l44 -53l-148 -122h-84l-149 123l41 51l149 -80z" />
    <glyph glyph-name="ecaron" unicode="&#x11b;" horiz-adv-x="508" 
d="M172 210l-0.00195312 -15.999c0 -14.667 2.5 -27.334 7.5 -38.001s11.667 -19.334 20 -26.001s17.833 -11.667 28.5 -15s22 -5 34 -5c14 0 31.333 2.16699 52 6.5s42.667 15.833 66 34.5l70 -87c-15.333 -14.667 -30.666 -26.5 -45.999 -35.5s-30.666 -16 -45.999 -21
s-30.833 -8.33301 -46.5 -10s-31.5 -2.5 -47.5 -2.5c-29.333 0 -57.166 3.66699 -83.499 11s-49.5 18.5 -69.5 33.5s-36 33.833 -48 56.5s-18 49.667 -18 81v128c0 30.667 5.5 58.167 16.5 82.5s26.167 44.833 45.5 61.5s41.666 29.334 66.999 38.001s52.666 13 81.999 13
c30.667 0 59 -4.33301 85 -13s48.333 -21.167 67 -37.5s33.334 -36.5 44.001 -60.5s16 -51.333 16 -82v-97h-296zM398.998 731.001l51 -46.001l-147 -154h-87l-148 155l49 44c8 -5.33301 18.333 -12.666 31 -21.999l39.5 -29.5l40 -29.5l31.5 -23zM340.998 303
c0 28 -8.33203 48.5 -24.999 61.5s-36.334 19.5 -59.001 19.5c-23.333 0 -43.333 -7.33301 -60 -22s-25 -35.667 -25 -63v-6h169v10z" />
    <glyph glyph-name="Gcircumflex" unicode="&#x11c;" horiz-adv-x="606" 
d="M550 91c-15.333 -18.667 -32.333 -34.166 -51 -46.499s-38 -22.333 -58 -30s-40.167 -13.167 -60.5 -16.5s-39.5 -5 -57.5 -5c-32 0 -63.833 4.66699 -95.5 14s-60 23.166 -85 41.499s-45.333 41.333 -61 69s-23.5 60.167 -23.5 97.5v255c0 36.667 7.5 69.167 22.5 97.5
s35 52 60 71s53.5 33.333 85.5 43s65 14.5 99 14.5c40 0 79 -5.5 117 -16.5s70.333 -28.167 97 -51.5l-67 -106c-21.333 18 -45 30.5 -71 37.5s-50.667 10.5 -74 10.5c-16 0 -31.833 -2.16699 -47.5 -6.5s-29.667 -11.5 -42 -21.5s-22.5 -23 -30.5 -39s-12 -35.333 -12 -58
v-201c0 -22.667 3.66699 -41.834 11 -57.501s17 -28.5 29 -38.5s25.667 -17.333 41 -22s31 -7 47 -7c13.333 0 27.833 1.83301 43.5 5.5s31.167 11.834 46.5 24.501v115h-100v117h237v-290zM314 812.001l-148 -81l-42 52l150 122h83l149 -122l-44 -53z" />
    <glyph glyph-name="gcircumflex" unicode="&#x11d;" horiz-adv-x="524" 
d="M475 -27c0 -30.667 -7.16602 -57.332 -21.499 -79.999s-32.5 -41.334 -54.5 -56.001s-46.5 -25.5 -73.5 -32.5s-53.167 -10.5 -78.5 -10.5c-16 0 -32.5 1.16699 -49.5 3.5s-34.167 6.5 -51.5 12.5s-34.333 14.167 -51 24.5s-32.334 23.5 -47.001 39.5l82 84
c8 -9.33301 17.167 -17 27.5 -23s21 -10.667 32 -14s21.5 -5.83301 31.5 -7.5s18.667 -2.5 26 -2.5c13.333 0 26.166 1.5 38.499 4.5s23 8 32 15s16.167 15.833 21.5 26.5s8 24 8 40v48c-29.333 -17.333 -56.333 -29 -81 -35s-45.667 -9 -63 -9
c-55.333 0 -96.166 16.167 -122.499 48.5s-39.5 75.5 -39.5 129.5v139c0 58.667 14.667 103.667 44 135s70 47 122 47c17.333 0 38 -3.5 62 -10.5s50 -19.167 78 -36.5l10 41h118v-521zM169.001 196.002c0 -28 5.99805 -47.5 17.998 -58.5s27 -16.5 45 -16.5
c16 0 34.167 4 54.5 12s40.5 18.333 60.5 31v173c-17.333 12.667 -36.666 23.167 -57.999 31.5s-40.333 12.5 -57 12.5c-17.333 0 -32.166 -5.83301 -44.499 -17.5s-18.5 -31.167 -18.5 -58.5v-109zM258.999 636.002c-8 -5.33301 -18.5 -12.833 -31.5 -22.5l-40 -29.5
l-39.5 -29.5c-12.667 -9.66699 -23 -17.167 -31 -22.5l-49 44l148 155h87l147 -154l-51 -46z" />
    <glyph glyph-name="Gbreve" unicode="&#x11e;" horiz-adv-x="606" 
d="M550 91c-15.333 -18.667 -32.333 -34.166 -51 -46.499s-38 -22.333 -58 -30s-40.167 -13.167 -60.5 -16.5s-39.5 -5 -57.5 -5c-32 0 -63.833 4.66699 -95.5 14s-60 23.166 -85 41.499s-45.333 41.333 -61 69s-23.5 60.167 -23.5 97.5v255c0 36.667 7.5 69.167 22.5 97.5
s35 52 60 71s53.5 33.333 85.5 43s65 14.5 99 14.5c40 0 79 -5.5 117 -16.5s70.333 -28.167 97 -51.5l-67 -106c-21.333 18 -45 30.5 -71 37.5s-50.667 10.5 -74 10.5c-16 0 -31.833 -2.16699 -47.5 -6.5s-29.667 -11.5 -42 -21.5s-22.5 -23 -30.5 -39s-12 -35.333 -12 -58
v-201c0 -22.667 3.66699 -41.834 11 -57.501s17 -28.5 29 -38.5s25.667 -17.333 41 -22s31 -7 47 -7c13.333 0 27.833 1.83301 43.5 5.5s31.167 11.834 46.5 24.501v115h-100v117h237v-290zM317 731.001c-28 0 -51.5 5.16699 -70.5 15.5s-34.333 23 -46 38
s-20.167 31.333 -25.5 49s-8.66602 33.834 -9.99902 48.501h91c0 -6.66699 1.33301 -14 4 -22s6.5 -15.333 11.5 -22s11.333 -12.167 19 -16.5s16.5 -6.5 26.5 -6.5s18.833 2.16699 26.5 6.5s14 9.83301 19 16.5s8.83301 14 11.5 22s4 15.333 4 22h91
c-2 -14.667 -5.66699 -30.834 -11 -48.501s-13.833 -34 -25.5 -49s-26.834 -27.667 -45.501 -38s-42 -15.5 -70 -15.5z" />
    <glyph glyph-name="gbreve" unicode="&#x11f;" horiz-adv-x="524" 
d="M475 -27c0 -30.667 -7.16602 -57.332 -21.499 -79.999s-32.5 -41.334 -54.5 -56.001s-46.5 -25.5 -73.5 -32.5s-53.167 -10.5 -78.5 -10.5c-16 0 -32.5 1.16699 -49.5 3.5s-34.167 6.5 -51.5 12.5s-34.333 14.167 -51 24.5s-32.334 23.5 -47.001 39.5l82 84
c8 -9.33301 17.167 -17 27.5 -23s21 -10.667 32 -14s21.5 -5.83301 31.5 -7.5s18.667 -2.5 26 -2.5c13.333 0 26.166 1.5 38.499 4.5s23 8 32 15s16.167 15.833 21.5 26.5s8 24 8 40v48c-29.333 -17.333 -56.333 -29 -81 -35s-45.667 -9 -63 -9
c-55.333 0 -96.166 16.167 -122.499 48.5s-39.5 75.5 -39.5 129.5v139c0 58.667 14.667 103.667 44 135s70 47 122 47c17.333 0 38 -3.5 62 -10.5s50 -19.167 78 -36.5l10 41h118v-521zM169.001 196.002c0 -28 5.99805 -47.5 17.998 -58.5s27 -16.5 45 -16.5
c16 0 34.167 4 54.5 12s40.5 18.333 60.5 31v173c-17.333 12.667 -36.666 23.167 -57.999 31.5s-40.333 12.5 -57 12.5c-17.333 0 -32.166 -5.83301 -44.499 -17.5s-18.5 -31.167 -18.5 -58.5v-109zM274.999 563.002c-28 0 -51.5 5.16699 -70.5 15.5s-34.333 23 -46 38
s-20.167 31.333 -25.5 49s-8.66602 33.834 -9.99902 48.501h92c0 -6.66699 1.33301 -13.834 4 -21.501s6.5 -14.834 11.5 -21.501s11.167 -12.167 18.5 -16.5s16 -6.5 26 -6.5c10.667 0 19.834 2.16699 27.501 6.5s14 9.83301 19 16.5s8.83301 13.834 11.5 21.501
s4 14.834 4 21.501h91c-2 -14.667 -5.66699 -30.834 -11 -48.501s-13.833 -34 -25.5 -49s-26.834 -27.667 -45.501 -38s-42.334 -15.5 -71.001 -15.5z" />
    <glyph glyph-name="Gdotaccent" unicode="&#x120;" horiz-adv-x="606" 
d="M550 91c-15.333 -18.667 -32.333 -34.166 -51 -46.499s-38 -22.333 -58 -30s-40.167 -13.167 -60.5 -16.5s-39.5 -5 -57.5 -5c-32 0 -63.833 4.66699 -95.5 14s-60 23.166 -85 41.499s-45.333 41.333 -61 69s-23.5 60.167 -23.5 97.5v255c0 36.667 7.5 69.167 22.5 97.5
s35 52 60 71s53.5 33.333 85.5 43s65 14.5 99 14.5c40 0 79 -5.5 117 -16.5s70.333 -28.167 97 -51.5l-67 -106c-21.333 18 -45 30.5 -71 37.5s-50.667 10.5 -74 10.5c-16 0 -31.833 -2.16699 -47.5 -6.5s-29.667 -11.5 -42 -21.5s-22.5 -23 -30.5 -39s-12 -35.333 -12 -58
v-201c0 -22.667 3.66699 -41.834 11 -57.501s17 -28.5 29 -38.5s25.667 -17.333 41 -22s31 -7 47 -7c13.333 0 27.833 1.83301 43.5 5.5s31.167 11.834 46.5 24.501v115h-100v117h237v-290zM321 739.001c-21.333 0 -38.833 7.16699 -52.5 21.5s-20.5 31.833 -20.5 52.5
c0 20 6.83301 37.167 20.5 51.5s30.834 21.5 51.501 21.5s38 -7.16699 52 -21.5s21 -31.5 21 -51.5s-6.33301 -37.333 -19 -52s-30.334 -22 -53.001 -22z" />
    <glyph glyph-name="gdotaccent" unicode="&#x121;" horiz-adv-x="524" 
d="M475 -27c0 -30.667 -7.16602 -57.332 -21.499 -79.999s-32.5 -41.334 -54.5 -56.001s-46.5 -25.5 -73.5 -32.5s-53.167 -10.5 -78.5 -10.5c-16 0 -32.5 1.16699 -49.5 3.5s-34.167 6.5 -51.5 12.5s-34.333 14.167 -51 24.5s-32.334 23.5 -47.001 39.5l82 84
c8 -9.33301 17.167 -17 27.5 -23s21 -10.667 32 -14s21.5 -5.83301 31.5 -7.5s18.667 -2.5 26 -2.5c13.333 0 26.166 1.5 38.499 4.5s23 8 32 15s16.167 15.833 21.5 26.5s8 24 8 40v48c-29.333 -17.333 -56.333 -29 -81 -35s-45.667 -9 -63 -9
c-55.333 0 -96.166 16.167 -122.499 48.5s-39.5 75.5 -39.5 129.5v139c0 58.667 14.667 103.667 44 135s70 47 122 47c17.333 0 38 -3.5 62 -10.5s50 -19.167 78 -36.5l10 41h118v-521zM169.001 196.002c0 -28 5.99805 -47.5 17.998 -58.5s27 -16.5 45 -16.5
c16 0 34.167 4 54.5 12s40.5 18.333 60.5 31v173c-17.333 12.667 -36.666 23.167 -57.999 31.5s-40.333 12.5 -57 12.5c-17.333 0 -32.166 -5.83301 -44.499 -17.5s-18.5 -31.167 -18.5 -58.5v-109zM271.999 563.002c-21.333 0 -38.833 7.16699 -52.5 21.5
s-20.5 31.833 -20.5 52.5c0 20 6.83301 37.167 20.5 51.5s30.834 21.5 51.501 21.5s38 -7.16699 52 -21.5s21 -31.5 21 -51.5s-6.33301 -37.333 -19 -52s-30.334 -22 -53.001 -22z" />
    <glyph glyph-name="Gcommaaccent" unicode="&#x122;" horiz-adv-x="606" 
d="M550 91c-15.333 -18.667 -32.333 -34.166 -51 -46.499s-38 -22.333 -58 -30s-40.167 -13.167 -60.5 -16.5s-39.5 -5 -57.5 -5c-32 0 -63.833 4.66699 -95.5 14s-60 23.166 -85 41.499s-45.333 41.333 -61 69s-23.5 60.167 -23.5 97.5v255c0 36.667 7.5 69.167 22.5 97.5
s35 52 60 71s53.5 33.333 85.5 43s65 14.5 99 14.5c40 0 79 -5.5 117 -16.5s70.333 -28.167 97 -51.5l-67 -106c-21.333 18 -45 30.5 -71 37.5s-50.667 10.5 -74 10.5c-16 0 -31.833 -2.16699 -47.5 -6.5s-29.667 -11.5 -42 -21.5s-22.5 -23 -30.5 -39s-12 -35.333 -12 -58
v-201c0 -22.667 3.66699 -41.834 11 -57.501s17 -28.5 29 -38.5s25.667 -17.333 41 -22s31 -7 47 -7c13.333 0 27.833 1.83301 43.5 5.5s31.167 11.834 46.5 24.501v115h-100v117h237v-290zM234 -260.999c17.333 11.333 30.834 22.667 40.501 34s15.5 24.666 17.5 39.999
c-14.667 2.66699 -27.334 10.334 -38.001 23.001s-16 28.667 -16 48c0 21.333 7.66699 39.166 23 53.499s33.333 21.5 54 21.5c27.333 0 48.333 -9.5 63 -28.5s22 -42.5 22 -70.5c0 -38.667 -11.667 -73.667 -35 -105s-53 -55.666 -89 -72.999z" />
    <glyph glyph-name="gcommaaccent" unicode="&#x123;" horiz-adv-x="524" 
d="M366 756c-17.333 -11.333 -30.834 -22.667 -40.501 -34s-15.5 -24.666 -17.5 -39.999c14.667 -2.66699 27.334 -10.334 38.001 -23.001s16 -28.667 16 -48c0 -21.333 -7.66699 -39.166 -23 -53.499s-33.333 -21.5 -54 -21.5c-27.333 0 -48.333 9.5 -63 28.5
s-22 42.5 -22 70.5c0 38.667 11.667 73.667 35 105s53 55.666 89 72.999zM474.999 -27.001c0 -30.667 -7.16602 -57.332 -21.499 -79.999s-32.5 -41.334 -54.5 -56.001s-46.5 -25.5 -73.5 -32.5s-53.167 -10.5 -78.5 -10.5c-16 0 -32.5 1.16699 -49.5 3.5
s-34.167 6.5 -51.5 12.5s-34.333 14.167 -51 24.5s-32.334 23.5 -47.001 39.5l82 84c8 -9.33301 17.167 -17 27.5 -23s21 -10.667 32 -14s21.5 -5.83301 31.5 -7.5s18.667 -2.5 26 -2.5c13.333 0 26.166 1.5 38.499 4.5s23 8 32 15s16.167 15.833 21.5 26.5s8 24 8 40v48
c-29.333 -17.333 -56.333 -29 -81 -35s-45.667 -9 -63 -9c-55.333 0 -96.166 16.167 -122.499 48.5s-39.5 75.5 -39.5 129.5v139c0 58.667 14.667 103.667 44 135s70 47 122 47c17.333 0 38 -3.5 62 -10.5s50 -19.167 78 -36.5l10 41h118v-521zM169 196.001
c0 -28 5.99805 -47.5 17.998 -58.5s27 -16.5 45 -16.5c16 0 34.167 4 54.5 12s40.5 18.333 60.5 31v173c-17.333 12.667 -36.666 23.167 -57.999 31.5s-40.333 12.5 -57 12.5c-17.333 0 -32.166 -5.83301 -44.499 -17.5s-18.5 -31.167 -18.5 -58.5v-109z" />
    <glyph glyph-name="Hcircumflex" unicode="&#x124;" horiz-adv-x="646" 
d="M449 0v288h-254v-288h-137v689h137v-277h254v277h139v-689h-139zM319 812l-148 -81l-42 52l150 122h83l149 -122l-44 -53z" />
    <glyph glyph-name="hcircumflex" unicode="&#x125;" horiz-adv-x="529" 
d="M357 0l0.000976562 304.999c0 28 -6.66699 47.5 -20 58.5s-28.333 16.5 -45 16.5c-15.333 0 -32.333 -3.5 -51 -10.5s-40.334 -18.167 -65.001 -33.5v-336h-127v716h127v-266c36 22.667 66.333 36.834 91 42.501s45.667 8.5 63 8.5c56 0 96 -16.5 120 -49.5
s36 -76.5 36 -130.5v-321h-129zM112.001 811.999l-148 -81l-42 52l150 122h83l149 -122l-44 -53z" />
    <glyph glyph-name="Hbar" unicode="&#x126;" horiz-adv-x="646" 
d="M449 0v288h-254v-288h-137v512h-40v85h40v92h137v-92h254v92h139v-92h50v-85h-50v-512h-139zM449 412v100h-254v-100h254z" />
    <glyph glyph-name="hbar" unicode="&#x127;" horiz-adv-x="529" 
d="M357 0l0.000976562 304.999c0 28 -6.66699 47.5 -20 58.5s-28.333 16.5 -45 16.5c-15.333 0 -32.333 -3.5 -51 -10.5s-40.334 -18.167 -65.001 -33.5v-336h-127v563h-49v85h49v68h127v-68h186v-85h-186v-113c36 22.667 66.333 36.834 91 42.501s45.667 8.5 63 8.5
c56 0 96 -16.5 120 -49.5s36 -76.5 36 -130.5v-321h-129z" />
    <glyph glyph-name="Itilde" unicode="&#x128;" horiz-adv-x="297" 
d="M217 689v-689h-137v689h137zM85 881c12.667 -0.666992 25.3301 -3.50098 37.9971 -8.50098s24.667 -10.5 36 -16.5l32 -16.5c10 -5 19 -7.5 27 -7.5c11.333 0 21.5 3.33301 30.5 10s19.833 18.667 32.5 36l64 -38c-17.333 -36.667 -35.166 -63 -53.499 -79
s-39.166 -24 -62.499 -24c-13.333 0 -26.166 2.33301 -38.499 7s-24.333 9.83398 -36 15.501l-33 15.5c-10.333 4.66699 -20.166 7 -29.499 7c-11.333 0 -21.833 -2.5 -31.5 -7.5s-21.834 -16.833 -36.501 -35.5l-64 38c16.667 34 34.667 59.833 54 77.5s43 26.5 71 26.5z
" />
    <glyph glyph-name="itilde" unicode="&#x129;" horiz-adv-x="355" 
d="M116 0v494h127v-494h-127zM110 711c12.667 -0.666992 25.3301 -3.50098 37.9971 -8.50098s24.667 -10.5 36 -16.5l32 -16.5c10 -5 19 -7.5 27 -7.5c11.333 0 21.5 3.33301 30.5 10s19.833 18.667 32.5 36l64 -38c-17.333 -36.667 -35.166 -63 -53.499 -79
s-39.166 -24 -62.499 -24c-13.333 0 -26.166 2.33301 -38.499 7s-24.333 9.83398 -36 15.501l-33 15.5c-10.333 4.66699 -20.166 7 -29.499 7c-11.333 0 -21.833 -2.5 -31.5 -7.5s-21.834 -16.833 -36.501 -35.5l-64 38c16.667 34 34.667 59.833 54 77.5s43 26.5 71 26.5z
" />
    <glyph glyph-name="Imacron" unicode="&#x12a;" horiz-adv-x="297" 
d="M217 689v-689h-137v689h137zM-5 765v104h312v-104h-312z" />
    <glyph glyph-name="imacron" unicode="&#x12b;" horiz-adv-x="302" 
d="M89 0v494h127v-494h-127zM-5 585v104h312v-104h-312z" />
    <glyph glyph-name="Ibreve" unicode="&#x12c;" horiz-adv-x="297" 
d="M152 731c-28 0 -51.5 5.16699 -70.5 15.5s-34.333 23 -46 38s-20.167 31.333 -25.5 49s-8.66602 33.834 -9.99902 48.501h91c0 -6.66699 1.33301 -14 4 -22s6.5 -15.333 11.5 -22s11.333 -12.167 19 -16.5s16.5 -6.5 26.5 -6.5s18.833 2.16699 26.5 6.5
s14 9.83301 19 16.5s8.83301 14 11.5 22s4 15.333 4 22h91c-2 -14.667 -5.66699 -30.834 -11 -48.501s-13.833 -34 -25.5 -49s-26.834 -27.667 -45.501 -38s-42 -15.5 -70 -15.5zM217 689v-689h-137v689h137z" />
    <glyph glyph-name="ibreve" unicode="&#x12d;" horiz-adv-x="295" 
d="M87 0v494h127v-494h-127zM147 569c-28 0 -51.5 5.16699 -70.5 15.5s-34.333 23 -46 38s-20.167 31.333 -25.5 49s-8.66602 33.834 -9.99902 48.501h92c0 -6.66699 1.33301 -13.834 4 -21.501s6.5 -14.834 11.5 -21.501s11.167 -12.167 18.5 -16.5s16 -6.5 26 -6.5
c10.667 0 19.834 2.16699 27.501 6.5s14 9.83301 19 16.5s8.83301 13.834 11.5 21.501s4 14.834 4 21.501h91c-2 -14.667 -5.66699 -30.834 -11 -48.501s-13.833 -34 -25.5 -49s-26.834 -27.667 -45.501 -38s-42.334 -15.5 -71.001 -15.5z" />
    <glyph glyph-name="Iogonek" unicode="&#x12e;" horiz-adv-x="297" 
d="M68 -100c0 13.333 2.66895 27.999 8.00195 43.999s15.666 34.667 30.999 56h-27v689h137v-689h-26c-14 -19.333 -24.167 -35.666 -30.5 -48.999s-9.5 -25.333 -9.5 -36c0 -21.333 12.333 -32 37 -32c13.333 0 33.666 5.33301 60.999 16l26 -65
c-15.333 -8.66699 -32 -15.667 -50 -21s-35.667 -8 -53 -8c-30.667 0 -55.667 9.33301 -75 28s-29 41 -29 67z" />
    <glyph glyph-name="iogonek" unicode="&#x12f;" horiz-adv-x="269" 
d="M55 -99c0 13.333 2.66797 27.833 8.00098 43.5s15.333 34.167 30 55.5h-22v494h127v-494h-21c-26 -36.667 -39 -64.667 -39 -84c0 -21.333 12.333 -32 37 -32c13.333 0 33.666 5.33301 60.999 16l26 -65c-15.333 -8.66699 -32 -15.667 -50 -21s-35.667 -8 -53 -8
c-30.667 0 -55.667 9.33301 -75 28s-29 41 -29 67zM63.001 628c0 20 7 37 21 51s30.667 21 50 21s36 -7 50 -21s21 -31 21 -51s-7 -36.833 -21 -50.5s-30.667 -20.5 -50 -20.5s-36 6.83301 -50 20.5s-21 30.5 -21 50.5z" />
    <glyph glyph-name="Idotaccent" unicode="&#x130;" horiz-adv-x="297" 
d="M217 689v-689h-137v689h137zM150 739c-21.333 0 -38.833 7.16699 -52.5 21.5s-20.5 31.833 -20.5 52.5c0 20 6.83301 37.167 20.5 51.5s30.834 21.5 51.501 21.5s38 -7.16699 52 -21.5s21 -31.5 21 -51.5s-6.33301 -37.333 -19 -52s-30.334 -22 -53.001 -22z" />
    <glyph glyph-name="dotlessi" unicode="&#x131;" horiz-adv-x="269" 
d="M71 0v494h127v-494h-127z" />
    <glyph glyph-name="IJ" unicode="&#x132;" horiz-adv-x="796" 
d="M217 689v-689h-137v689h137zM725 216c0 -37.333 -6.83008 -69.834 -20.4971 -97.501s-31.834 -50.667 -54.501 -69s-48.834 -32.166 -78.501 -41.499s-60.167 -14 -91.5 -14c-38.667 0 -77.167 5.16699 -115.5 15.5s-70.5 26.166 -96.5 47.499l64 106
c23.333 -17.333 45.666 -29.166 66.999 -35.499s42.333 -9.5 63 -9.5c18 0 34.667 2.16699 50 6.5s28.5 11.666 39.5 21.999s19.667 23.833 26 40.5s9.5 37.334 9.5 62.001v440h138v-473z" />
    <glyph glyph-name="ij" unicode="&#x133;" horiz-adv-x="520" 
d="M71 0v494h127v-494h-127zM63 628c0 20 7 37 21 51s30.667 21 50 21s36 -7 50 -21s21 -31 21 -51s-7 -36.833 -21 -50.5s-30.667 -20.5 -50 -20.5s-36 6.83301 -50 20.5s-21 30.5 -21 50.5zM451 -52c0 -48 -14.667 -84.832 -44 -110.499s-67.333 -38.5 -114 -38.5h-57v109
h32c22.667 0 37.5 5.66699 44.5 17s10.5 25.666 10.5 42.999v526h128v-546zM316 629.001c0 19.333 6.83301 36 20.5 50s30.5 21 50.5 21s37 -7 51 -21s21 -30.667 21 -50c0 -20 -7 -36.833 -21 -50.5s-31 -20.5 -51 -20.5s-36.833 6.83301 -50.5 20.5s-20.5 30.5 -20.5 50.5
z" />
    <glyph glyph-name="Jcircumflex" unicode="&#x134;" horiz-adv-x="533" 
d="M462 217c0 -37.333 -6.83008 -69.834 -20.4971 -97.501s-31.834 -50.667 -54.501 -69s-48.834 -32.166 -78.501 -41.499s-60.167 -14 -91.5 -14c-38.667 0 -77.167 5.16699 -115.5 15.5s-70.5 26.166 -96.5 47.499l64 106c23.333 -17.333 45.666 -29.166 66.999 -35.499
s42.333 -9.5 63 -9.5c18 0 34.667 2.16699 50 6.5s28.5 11.666 39.5 21.999s19.667 23.833 26 40.5s9.5 37.334 9.5 62.001v440h138v-473zM394.003 813.999l-148 -81l-42 52l150 122h83l149 -122l-44 -53z" />
    <glyph glyph-name="jcircumflex" unicode="&#x135;" horiz-adv-x="372" 
d="M250 -52c0 -48 -14.667 -84.833 -44 -110.5s-67.333 -38.5 -114 -38.5h-57v108h32c22.667 0 37.5 5.66699 44.5 17s10.5 26 10.5 44v526h128v-546zM186 636c-8 -5.33301 -18.5 -12.833 -31.5 -22.5l-40 -29.5l-39.5 -29.5c-12.667 -9.66699 -23 -17.167 -31 -22.5l-49 44
l148 155h87l147 -154l-51 -46z" />
    <glyph glyph-name="Kcommaaccent" unicode="&#x136;" horiz-adv-x="628" 
d="M200 392l57 66l55 67l135 164h162l-229 -278l245 -411h-161l-174 303l-48 -55.5l-47 -55.5v-192h-137v689h137v-297h5zM239 -241c17.333 11.333 30.834 22.667 40.501 34s15.5 24.666 17.5 39.999c-14.667 2.66699 -27.334 10.334 -38.001 23.001s-16 28.667 -16 48
c0 21.333 7.66699 39.166 23 53.499s33.333 21.5 54 21.5c27.333 0 48.333 -9.5 63 -28.5s22 -42.5 22 -70.5c0 -38.667 -11.667 -73.667 -35 -105s-53 -55.666 -89 -72.999z" />
    <glyph glyph-name="kcommaaccent" unicode="&#x137;" horiz-adv-x="514" 
d="M49 0l0.000976562 716h128v-368h41c19.333 0 35.166 4.33301 47.499 13s23.5 23 33.5 43l46 92h144l-60 -124c-9.33301 -19.333 -19.333 -35.666 -30 -48.999s-26 -23.666 -46 -30.999c14 -4.66699 25.667 -10.834 35 -18.501s17 -16.167 23 -25.5s11 -19.333 15 -30
s7.66699 -21.334 11 -32.001l62 -186h-143l-50 161c-8 24.667 -18.5 42.167 -31.5 52.5s-32.167 15.5 -57.5 15.5h-40v-229h-128zM181.001 -261c17.333 11.333 30.834 22.667 40.501 34s15.5 24.666 17.5 39.999c-14.667 2.66699 -27.334 10.334 -38.001 23.001
s-16 28.667 -16 48c0 21.333 7.66699 39.166 23 53.499s33.333 21.5 54 21.5c27.333 0 48.333 -9.5 63 -28.5s22 -42.5 22 -70.5c0 -38.667 -11.667 -73.667 -35 -105s-53 -55.666 -89 -72.999z" />
    <glyph glyph-name="kgreenlandic" unicode="&#x138;" horiz-adv-x="524" 
d="M50 0l-0.000976562 495.999h128v-184h41c21.333 0 39.5 4.33301 54.5 13s27.5 26.667 37.5 54l43 117h136l-52 -144c-8 -23.333 -17.5 -42.666 -28.5 -57.999s-26.833 -27 -47.5 -35c24.667 -8 42.334 -20.167 53.001 -36.5s20 -36.833 28 -61.5l56 -161h-142l-39 131
c-4.66699 14.667 -10.167 26.5 -16.5 35.5s-13.5 16 -21.5 21s-17 8.16699 -27 9.5s-21 2 -33 2h-42v-199h-128z" />
    <glyph glyph-name="Lacute" unicode="&#x139;" horiz-adv-x="545" 
d="M62 0v689h135v-567h341v-122h-476zM74 795l170 126l80 -92l-200 -95z" />
    <glyph glyph-name="lacute" unicode="&#x13a;" horiz-adv-x="285" 
d="M194 159c0 -11.333 0.834961 -20.332 2.50195 -26.999s5 -11.834 10 -15.501s11.833 -6.16699 20.5 -7.5s20 -2 34 -2l2 -107c-11.333 -2 -22 -3.33301 -32 -4s-19.667 -1 -29 -1c-30 0 -53.833 3.33301 -71.5 10s-31.334 16.167 -41.001 28.5s-15.834 27 -18.501 44
s-4 36.167 -4 57.5v581h127v-557zM79.002 806.001l170 126l80 -92l-200 -95z" />
    <glyph glyph-name="Lcommaaccent" unicode="&#x13b;" horiz-adv-x="545" 
d="M62 0v689h135v-567h341v-122h-476zM210 -261c17.333 11.333 30.834 22.667 40.501 34s15.5 24.666 17.5 39.999c-14.667 2.66699 -27.334 10.334 -38.001 23.001s-16 28.667 -16 48c0 21.333 7.66699 39.166 23 53.499s33.333 21.5 54 21.5
c27.333 0 48.333 -9.5 63 -28.5s22 -42.5 22 -70.5c0 -38.667 -11.667 -73.667 -35 -105s-53 -55.666 -89 -72.999z" />
    <glyph glyph-name="lcommaaccent" unicode="&#x13c;" horiz-adv-x="285" 
d="M194 159c0 -11.333 0.834961 -20.332 2.50195 -26.999s5 -11.834 10 -15.501s11.833 -6.16699 20.5 -7.5s20 -2 34 -2l2 -107c-11.333 -2 -22 -3.33301 -32 -4s-19.667 -1 -29 -1c-30 0 -53.833 3.33301 -71.5 10s-31.334 16.167 -41.001 28.5s-15.834 27 -18.501 44
s-4 36.167 -4 57.5v581h127v-557zM68.002 -257.999c17.333 11.333 30.834 22.667 40.501 34s15.5 24.666 17.5 39.999c-14.667 2.66699 -27.334 10.334 -38.001 23.001s-16 28.667 -16 48c0 21.333 7.66699 39.166 23 53.499s33.333 21.5 54 21.5
c27.333 0 48.333 -9.5 63 -28.5s22 -42.5 22 -70.5c0 -38.667 -11.667 -73.667 -35 -105s-53 -55.666 -89 -72.999z" />
    <glyph glyph-name="Lcaron" unicode="&#x13d;" horiz-adv-x="545" 
d="M62 0v689h135v-567h341v-122h-476zM298 473c17.333 11.333 30.834 22.667 40.501 34s15.5 24.666 17.5 39.999c-14.667 2.66699 -27.334 10.334 -38.001 23.001s-16 28.667 -16 48c0 21.333 7.66699 39.166 23 53.499s33.333 21.5 54 21.5c27.333 0 48.333 -9.5 63 -28.5
s22 -42.5 22 -70.5c0 -38.667 -11.667 -73.667 -35 -105s-53 -55.666 -89 -72.999z" />
    <glyph glyph-name="lcaron" unicode="&#x13e;" horiz-adv-x="392" 
d="M227 497c17.333 11.333 30.834 22.667 40.501 34s15.5 24.666 17.5 39.999c-14.667 2.66699 -27.334 10.334 -38.001 23.001s-16 28.667 -16 48c0 21.333 7.66699 39.166 23 53.499s33.333 21.5 54 21.5c27.333 0 48.333 -9.5 63 -28.5s22 -42.5 22 -70.5
c0 -38.667 -11.667 -73.667 -35 -105s-53 -55.666 -89 -72.999zM194.001 159.001c0 -11.333 0.834961 -20.332 2.50195 -26.999s5 -11.834 10 -15.501s11.833 -6.16699 20.5 -7.5s20 -2 34 -2l2 -107c-11.333 -2 -22 -3.33301 -32 -4s-19.667 -1 -29 -1
c-30 0 -53.833 3.33301 -71.5 10s-31.334 16.167 -41.001 28.5s-15.834 27 -18.501 44s-4 36.167 -4 57.5v581h127v-557z" />
    <glyph glyph-name="Ldot" unicode="&#x13f;" horiz-adv-x="545" 
d="M62 0v689h135v-567h341v-122h-476zM374 291c-21.333 0 -38.833 7.16699 -52.5 21.5s-20.5 31.833 -20.5 52.5c0 20 6.83301 37.167 20.5 51.5s30.834 21.5 51.501 21.5s38 -7.16699 52 -21.5s21 -31.5 21 -51.5s-6.33301 -37.333 -19 -52s-30.334 -22 -53.001 -22z" />
    <glyph glyph-name="ldot" unicode="&#x140;" horiz-adv-x="383" 
d="M313 304c-21.333 0 -38.833 7.16699 -52.5 21.5s-20.5 31.833 -20.5 52.5c0 20 6.83301 37.167 20.5 51.5s30.834 21.5 51.501 21.5s38 -7.16699 52 -21.5s21 -31.5 21 -51.5s-6.33301 -37.333 -19 -52s-30.334 -22 -53.001 -22zM194 159
c0 -11.333 0.834961 -20.332 2.50195 -26.999s5 -11.834 10 -15.501s11.833 -6.16699 20.5 -7.5s20 -2 34 -2l2 -107c-11.333 -2 -22 -3.33301 -32 -4s-19.667 -1 -29 -1c-30 0 -53.833 3.33301 -71.5 10s-31.334 16.167 -41.001 28.5s-15.834 27 -18.501 44
s-4 36.167 -4 57.5v581h127v-557z" />
    <glyph glyph-name="Lslash" unicode="&#x141;" horiz-adv-x="558" 
d="M75 0v203l-35 -20l-45 78l80 46v382h135v-303l125 73l45 -78l-170 -99v-160h341v-122h-476z" />
    <glyph glyph-name="lslash" unicode="&#x142;" horiz-adv-x="318" 
d="M220 0c-41.333 0 -74.333 10.168 -99 30.501s-37 55.166 -37 104.499v129l-45 -27l-44 77l89 54v348h126v-272l59 36l22 -38l22 -39l-51.5 -32.5l-51.5 -30.5v-182c0 -20 4.16699 -33.667 12.5 -41s19.833 -11 34.5 -11h22v-106h-59z" />
    <glyph glyph-name="Nacute" unicode="&#x143;" horiz-adv-x="675" 
d="M196 434v-434h-136v689h124l160 -236l131 -200h4v436h137v-689h-125l-175 260l-114 174h-6zM253 795l170 126l80 -92l-200 -95z" />
    <glyph glyph-name="nacute" unicode="&#x144;" horiz-adv-x="529" 
d="M356 0l0.000976562 305c0 28 -6.33301 47.5 -19 58.5s-28 16.5 -46 16.5c-15.333 0 -32.333 -3.5 -51 -10.5s-40.334 -18.167 -65.001 -33.5v-336h-127v494h117l10 -43c36.667 22.667 67.5 36.667 92.5 42s45.833 8 62.5 8c54.667 0 94.167 -16.167 118.5 -48.5
s36.5 -75.5 36.5 -129.5v-323h-129zM199.001 568l81 195l116 -37l-123 -185z" />
    <glyph glyph-name="Ncommaaccent" unicode="&#x145;" horiz-adv-x="675" 
d="M196 434v-434h-136v689h124l160 -236l131 -200h4v436h137v-689h-125l-175 260l-114 174h-6zM264 -241c17.333 11.333 30.834 22.667 40.501 34s15.5 24.666 17.5 39.999c-14.667 2.66699 -27.334 10.334 -38.001 23.001s-16 28.667 -16 48
c0 21.333 7.66699 39.166 23 53.499s33.333 21.5 54 21.5c27.333 0 48.333 -9.5 63 -28.5s22 -42.5 22 -70.5c0 -38.667 -11.667 -73.667 -35 -105s-53 -55.666 -89 -72.999z" />
    <glyph glyph-name="ncommaaccent" unicode="&#x146;" horiz-adv-x="529" 
d="M356 0l0.000976562 305c0 28 -6.33301 47.5 -19 58.5s-28 16.5 -46 16.5c-15.333 0 -32.333 -3.5 -51 -10.5s-40.334 -18.167 -65.001 -33.5v-336h-127v494h117l10 -43c36.667 22.667 67.5 36.667 92.5 42s45.833 8 62.5 8c54.667 0 94.167 -16.167 118.5 -48.5
s36.5 -75.5 36.5 -129.5v-323h-129zM184.001 -261c17.333 11.333 30.834 22.667 40.501 34s15.5 24.666 17.5 39.999c-14.667 2.66699 -27.334 10.334 -38.001 23.001s-16 28.667 -16 48c0 21.333 7.66699 39.166 23 53.499s33.333 21.5 54 21.5
c27.333 0 48.333 -9.5 63 -28.5s22 -42.5 22 -70.5c0 -38.667 -11.667 -73.667 -35 -105s-53 -55.666 -89 -72.999z" />
    <glyph glyph-name="Ncaron" unicode="&#x147;" horiz-adv-x="675" 
d="M196 434v-434h-136v689h124l160 -236l131 -200h4v436h137v-689h-125l-175 260l-114 174h-6zM478 908l44 -53l-148 -122h-84l-149 123l41 51l149 -80z" />
    <glyph glyph-name="ncaron" unicode="&#x148;" horiz-adv-x="529" 
d="M356 0l0.000976562 305c0 28 -6.33301 47.5 -19 58.5s-28 16.5 -46 16.5c-15.333 0 -32.333 -3.5 -51 -10.5s-40.334 -18.167 -65.001 -33.5v-336h-127v494h117l10 -43c36.667 22.667 67.5 36.667 92.5 42s45.833 8 62.5 8c54.667 0 94.167 -16.167 118.5 -48.5
s36.5 -75.5 36.5 -129.5v-323h-129zM394.001 731l51 -46.001l-147 -154h-87l-148 155l49 44c8 -5.33301 18.333 -12.666 31 -21.999l39.5 -29.5l40 -29.5l31.5 -23z" />
    <glyph glyph-name="napostrophe" unicode="&#x149;" horiz-adv-x="652" 
d="M479 0l0.000976562 305c0 28 -6.33301 47.5 -19 58.5s-28 16.5 -46 16.5c-15.333 0 -32.333 -3.5 -51 -10.5s-40.334 -18.167 -65.001 -33.5v-336h-127v494h117l10 -43c36.667 22.667 67.5 36.667 92.5 42s45.833 8 62.5 8c54.667 0 94.167 -16.167 118.5 -48.5
s36.5 -75.5 36.5 -129.5v-323h-129zM1.00098 466c17.333 11.333 30.834 22.667 40.501 34s15.5 24.666 17.5 39.999c-14.667 2.66699 -27.334 10.334 -38.001 23.001s-16 28.667 -16 48c0 21.333 7.66699 39.166 23 53.499s33.333 21.5 54 21.5
c27.333 0 48.333 -9.5 63 -28.5s22 -42.5 22 -70.5c0 -38.667 -11.667 -73.667 -35 -105s-53 -55.666 -89 -72.999z" />
    <glyph glyph-name="Eng" unicode="&#x14a;" horiz-adv-x="675" 
d="M196 434l0.00195312 -434h-136v689h124l160 -236l131 -200h4v436h137l-1 -771c0 -21.333 -3.33301 -39.333 -10 -54s-15.834 -26.667 -27.501 -36s-25 -16 -40 -20s-30.833 -6 -47.5 -6c-18.667 0 -37.334 2 -56.001 6s-36.667 9.66699 -54 17l26 100
c15.333 -3.33301 28 -5 38 -5c14 0 24.667 3.5 32 10.5s11 18.833 11 35.5v40l-171 254l-114 174h-6z" />
    <glyph glyph-name="eng" unicode="&#x14b;" horiz-adv-x="529" 
d="M485 -82c0 -21.333 -3.33203 -39.333 -9.99902 -54s-15.834 -26.667 -27.501 -36s-25.167 -16 -40.5 -20s-31.333 -6 -48 -6c-18 0 -36.5 2 -55.5 6s-37.167 9.66699 -54.5 17l26 100c16.667 -3.33301 29.334 -5 38.001 -5c14.667 0 25.667 3.5 33 10.5
s11 18.833 11 35.5l-1 339c0 28 -6.33301 47.5 -19 58.5s-28 16.5 -46 16.5c-15.333 0 -32.333 -3.5 -51 -10.5s-40.334 -18.167 -65.001 -33.5v-336h-127v494h113l10 -43c37.333 22.667 69 36.667 95 42s47.333 8 64 8c54.667 0 94.167 -16.167 118.5 -48.5
s36.5 -75.5 36.5 -129.5v-405v0z" />
    <glyph glyph-name="Omacron" unicode="&#x14c;" horiz-adv-x="638" 
d="M584 220c0 -37.333 -7.00195 -70 -21.002 -98s-33 -51.667 -57 -71s-52.167 -33.833 -84.5 -43.5s-66.5 -14.5 -102.5 -14.5s-70.167 4.83301 -102.5 14.5s-60.5 24.167 -84.5 43.5s-43 43 -57 71s-21 60.667 -21 98v253c0 36.667 7.33301 69 22 97
s34.334 51.333 59.001 70s53 32.667 85 42s65 14 99 14s67 -5 99 -15s60.333 -24.5 85 -43.5s44.334 -42.667 59.001 -71s22 -60.833 22 -97.5v-249zM445.998 445c0 22.667 -3.66699 41.834 -11 57.501s-17 28.5 -29 38.5s-25.5 17.333 -40.5 22s-30.5 7 -46.5 7
s-31.667 -2.33301 -47 -7s-29 -12 -41 -22s-21.667 -22.833 -29 -38.5s-11 -34.834 -11 -57.501v-201c0 -22.667 3.66699 -42 11 -58s17 -29 29 -39s25.667 -17.167 41 -21.5s31 -6.5 47 -6.5s31.5 2.16699 46.5 6.5s28.5 11.5 40.5 21.5s21.667 23 29 39s11 35.333 11 58
v201zM166.998 765v104h312v-104h-312z" />
    <glyph glyph-name="omacron" unicode="&#x14d;" horiz-adv-x="519" 
d="M476 176c0 -30.667 -6.16406 -57.335 -18.4971 -80.002s-28.666 -41.5 -48.999 -56.5s-43.5 -26.167 -69.5 -33.5s-52.667 -11 -80 -11c-28 0 -55 3.66699 -81 11s-49.167 18.5 -69.5 33.5s-36.5 33.833 -48.5 56.5s-18 49.334 -18 80.001v143
c0 30.667 6.16699 57.334 18.5 80.001s28.666 41.5 48.999 56.5s43.666 26.333 69.999 34s53.166 11.5 80.499 11.5c29.333 0 57.166 -3.83301 83.499 -11.5s49.333 -19.167 69 -34.5s35.167 -34.5 46.5 -57.5s17 -49.833 17 -80.5v-141zM349.003 296.999
c0 16 -2.66797 29.333 -8.00098 40s-12.333 19.5 -21 26.5s-18.167 12 -28.5 15s-20.833 4.5 -31.5 4.5s-21.5 -1.5 -32.5 -4.5s-20.833 -8 -29.5 -15s-15.667 -15.833 -21 -26.5s-8 -24 -8 -40v-98c0 -16 2.5 -29.5 7.5 -40.5s11.833 -20 20.5 -27s18.334 -12 29.001 -15
s22 -4.5 34 -4.5c10.667 0 21.167 1.5 31.5 4.5s19.833 8 28.5 15s15.667 16 21 27s8 24.5 8 40.5v98zM104.002 584.999v104h312v-104h-312z" />
    <glyph glyph-name="Obreve" unicode="&#x14e;" horiz-adv-x="638" 
d="M584 220c0 -37.333 -7.00195 -70 -21.002 -98s-33 -51.667 -57 -71s-52.167 -33.833 -84.5 -43.5s-66.5 -14.5 -102.5 -14.5s-70.167 4.83301 -102.5 14.5s-60.5 24.167 -84.5 43.5s-43 43 -57 71s-21 60.667 -21 98v253c0 36.667 7.33301 69 22 97
s34.334 51.333 59.001 70s53 32.667 85 42s65 14 99 14s67 -5 99 -15s60.333 -24.5 85 -43.5s44.334 -42.667 59.001 -71s22 -60.833 22 -97.5v-249zM445.998 445c0 22.667 -3.66699 41.834 -11 57.501s-17 28.5 -29 38.5s-25.5 17.333 -40.5 22s-30.5 7 -46.5 7
s-31.667 -2.33301 -47 -7s-29 -12 -41 -22s-21.667 -22.833 -29 -38.5s-11 -34.834 -11 -57.501v-201c0 -22.667 3.66699 -42 11 -58s17 -29 29 -39s25.667 -17.167 41 -21.5s31 -6.5 47 -6.5s31.5 2.16699 46.5 6.5s28.5 11.5 40.5 21.5s21.667 23 29 39s11 35.333 11 58
v201zM320.998 731c-28 0 -51.5 5.16699 -70.5 15.5s-34.333 23 -46 38s-20.167 31.333 -25.5 49s-8.66602 33.834 -9.99902 48.501h91c0 -6.66699 1.33301 -14 4 -22s6.5 -15.333 11.5 -22s11.333 -12.167 19 -16.5s16.5 -6.5 26.5 -6.5s18.833 2.16699 26.5 6.5
s14 9.83301 19 16.5s8.83301 14 11.5 22s4 15.333 4 22h91c-2 -14.667 -5.66699 -30.834 -11 -48.501s-13.833 -34 -25.5 -49s-26.834 -27.667 -45.501 -38s-42 -15.5 -70 -15.5z" />
    <glyph glyph-name="obreve" unicode="&#x14f;" horiz-adv-x="519" 
d="M476 176c0 -30.667 -6.16406 -57.335 -18.4971 -80.002s-28.666 -41.5 -48.999 -56.5s-43.5 -26.167 -69.5 -33.5s-52.667 -11 -80 -11c-28 0 -55 3.66699 -81 11s-49.167 18.5 -69.5 33.5s-36.5 33.833 -48.5 56.5s-18 49.334 -18 80.001v143
c0 30.667 6.16699 57.334 18.5 80.001s28.666 41.5 48.999 56.5s43.666 26.333 69.999 34s53.166 11.5 80.499 11.5c29.333 0 57.166 -3.83301 83.499 -11.5s49.333 -19.167 69 -34.5s35.167 -34.5 46.5 -57.5s17 -49.833 17 -80.5v-141zM349.003 296.999
c0 16 -2.66797 29.333 -8.00098 40s-12.333 19.5 -21 26.5s-18.167 12 -28.5 15s-20.833 4.5 -31.5 4.5s-21.5 -1.5 -32.5 -4.5s-20.833 -8 -29.5 -15s-15.667 -15.833 -21 -26.5s-8 -24 -8 -40v-98c0 -16 2.5 -29.5 7.5 -40.5s11.833 -20 20.5 -27s18.334 -12 29.001 -15
s22 -4.5 34 -4.5c10.667 0 21.167 1.5 31.5 4.5s19.833 8 28.5 15s15.667 16 21 27s8 24.5 8 40.5v98zM260.002 562.999c-28 0 -51.5 5.16699 -70.5 15.5s-34.333 23 -46 38s-20.167 31.333 -25.5 49s-8.66602 33.834 -9.99902 48.501h92
c0 -6.66699 1.33301 -13.834 4 -21.501s6.5 -14.834 11.5 -21.501s11.167 -12.167 18.5 -16.5s16 -6.5 26 -6.5c10.667 0 19.834 2.16699 27.501 6.5s14 9.83301 19 16.5s8.83301 13.834 11.5 21.501s4 14.834 4 21.501h91c-2 -14.667 -5.66699 -30.834 -11 -48.501
s-13.833 -34 -25.5 -49s-26.834 -27.667 -45.501 -38s-42.334 -15.5 -71.001 -15.5z" />
    <glyph glyph-name="Ohungarumlaut" unicode="&#x150;" horiz-adv-x="638" 
d="M584 220c0 -37.333 -7.00195 -70 -21.002 -98s-33 -51.667 -57 -71s-52.167 -33.833 -84.5 -43.5s-66.5 -14.5 -102.5 -14.5s-70.167 4.83301 -102.5 14.5s-60.5 24.167 -84.5 43.5s-43 43 -57 71s-21 60.667 -21 98v253c0 36.667 7.33301 69 22 97
s34.334 51.333 59.001 70s53 32.667 85 42s65 14 99 14s67 -5 99 -15s60.333 -24.5 85 -43.5s44.334 -42.667 59.001 -71s22 -60.833 22 -97.5v-249zM445.998 445c0 22.667 -3.66699 41.834 -11 57.501s-17 28.5 -29 38.5s-25.5 17.333 -40.5 22s-30.5 7 -46.5 7
s-31.667 -2.33301 -47 -7s-29 -12 -41 -22s-21.667 -22.833 -29 -38.5s-11 -34.834 -11 -57.501v-201c0 -22.667 3.66699 -42 11 -58s17 -29 29 -39s25.667 -17.167 41 -21.5s31 -6.5 47 -6.5s31.5 2.16699 46.5 6.5s28.5 11.5 40.5 21.5s21.667 23 29 39s11 35.333 11 58
v201zM141.998 783l157 141l89 -83l-190 -113zM339.998 783l157 141l89 -83l-190 -113z" />
    <glyph glyph-name="ohungarumlaut" unicode="&#x151;" horiz-adv-x="519" 
d="M476 176c0 -30.667 -6.16406 -57.335 -18.4971 -80.002s-28.666 -41.5 -48.999 -56.5s-43.5 -26.167 -69.5 -33.5s-52.667 -11 -80 -11c-28 0 -55 3.66699 -81 11s-49.167 18.5 -69.5 33.5s-36.5 33.833 -48.5 56.5s-18 49.334 -18 80.001v143
c0 30.667 6.16699 57.334 18.5 80.001s28.666 41.5 48.999 56.5s43.666 26.333 69.999 34s53.166 11.5 80.499 11.5c29.333 0 57.166 -3.83301 83.499 -11.5s49.333 -19.167 69 -34.5s35.167 -34.5 46.5 -57.5s17 -49.833 17 -80.5v-141zM349.003 296.999
c0 16 -2.66797 29.333 -8.00098 40s-12.333 19.5 -21 26.5s-18.167 12 -28.5 15s-20.833 4.5 -31.5 4.5s-21.5 -1.5 -32.5 -4.5s-20.833 -8 -29.5 -15s-15.667 -15.833 -21 -26.5s-8 -24 -8 -40v-98c0 -16 2.5 -29.5 7.5 -40.5s11.833 -20 20.5 -27s18.334 -12 29.001 -15
s22 -4.5 34 -4.5c10.667 0 21.167 1.5 31.5 4.5s19.833 8 28.5 15s15.667 16 21 27s8 24.5 8 40.5v98zM128.002 567.999l81 195l116 -37l-123 -185zM296.002 567.999l81 195l116 -37l-124 -185z" />
    <glyph glyph-name="OE" unicode="&#x152;" horiz-adv-x="909" 
d="M319 696c12.667 0 25.165 -0.666992 37.498 -2s24.5 -3 36.5 -5h474v-123h-338v-158h289v-123h-289v-163h338v-122h-473c-12 -2 -24.167 -3.66699 -36.5 -5s-25.166 -2 -38.499 -2c-36 0 -70.167 4.83301 -102.5 14.5s-60.5 24.167 -84.5 43.5s-43 43 -57 71
s-21 60.667 -21 98v253c0 36.667 7.33301 69 22 97s34.334 51.333 59.001 70s53 32.667 85 42s65 14 99 14zM318.998 119c13.333 0 26.166 1.00098 38.499 3.00098s24.166 6.66699 35.499 14v415c-11.333 7.33301 -23.166 12.333 -35.499 15s-25.166 4 -38.499 4
c-16 0 -31.667 -2.33301 -47 -7s-29 -12 -41 -22s-21.667 -22.833 -29 -38.5s-11 -34.834 -11 -57.501v-201c0 -22.667 3.66699 -42 11 -58s17 -29 29 -39s25.667 -17.167 41 -21.5s31 -6.5 47 -6.5z" />
    <glyph glyph-name="oe" unicode="&#x153;" horiz-adv-x="815" 
d="M478 210l-0.00390625 -15.9971c0 -15.333 2.83301 -28.333 8.5 -39s13 -19.167 22 -25.5s19.333 -10.833 31 -13.5s23.834 -4 36.501 -4c15.333 0 32.333 2.33301 51 7s38.667 15.334 60 32.001c11.333 -15.333 22.833 -30 34.5 -44l35.5 -43
c-15.333 -14.667 -30.666 -26.5 -45.999 -35.5s-30.666 -16 -45.999 -21s-30.833 -8.33301 -46.5 -10s-31.5 -2.5 -47.5 -2.5c-30.667 0 -59.5 4 -86.5 12s-50.5 20.333 -70.5 37c-20.667 -16.667 -44.334 -29 -71.001 -37s-54.334 -12 -83.001 -12
c-28 0 -55 3.83301 -81 11.5s-49 19 -69 34s-36 33.833 -48 56.5s-18 49 -18 79v143c0 30 6.16699 56.5 18.5 79.5s28.5 42 48.5 57s43 26.333 69 34s52.667 11.5 80 11.5c31.333 0 60.333 -4.33301 87 -13s49.667 -21.334 69 -38.001c39.333 33.333 88.333 50 147 50
c30.667 0 58.834 -4.33301 84.501 -13s47.834 -21.334 66.501 -38.001s33.334 -36.834 44.001 -60.501s16 -50.834 16 -81.501v-97h-296zM350.996 298.003c0 16 -2.83496 29.3311 -8.50195 39.998s-12.667 19.334 -21 26.001s-17.833 11.5 -28.5 14.5
s-21.334 4.5 -32.001 4.5s-21.5 -1.5 -32.5 -4.5s-20.833 -8 -29.5 -15s-15.667 -15.833 -21 -26.5s-8 -24 -8 -40v-99c0 -16 2.5 -29.333 7.5 -40s11.833 -19.5 20.5 -26.5s18.334 -12 29.001 -15s22 -4.5 34 -4.5c10 0 20.333 1.5 31 4.5s20.334 7.83301 29.001 14.5
s15.834 15.334 21.501 26.001s8.5 23.667 8.5 39v102zM646.994 303.001c0 28 -8.33203 48.5 -24.999 61.5s-36.334 19.5 -59.001 19.5c-23.333 0 -43.333 -7.16699 -60 -21.5s-25 -35.5 -25 -63.5v-6h169v10z" />
    <glyph glyph-name="Racute" unicode="&#x154;" horiz-adv-x="594" 
d="M366 689c34.667 0 64.501 -6.49902 89.501 -19.499s45.667 -29.833 62 -50.5s28.333 -43.834 36 -69.501s11.5 -50.834 11.5 -75.501c0 -18 -2.5 -36.5 -7.5 -55.5s-12.333 -37 -22 -54s-21.5 -32.667 -35.5 -47s-30 -26.166 -48 -35.499l124 -282h-148
c-2.66699 7.33301 -6.83398 17.833 -12.501 31.5l-19 45.5l-22 52.5l-22 52.5l-19 45.5c-5.66699 13.667 -10.167 24.167 -13.5 31.5h-124v-259h-137v689h307zM196.001 383.001h138.999c32 0 56 8.5 72 25.5s24 38.833 24 65.5s-8.16699 48.667 -24.5 66
s-40.166 26 -71.499 26h-139v-183zM218 795.001l170 126l80 -92l-200 -95z" />
    <glyph glyph-name="racute" unicode="&#x155;" horiz-adv-x="380" 
d="M371 371c-44 -4 -80.168 -10.833 -108.501 -20.5s-54.166 -21.5 -77.499 -35.5v-315h-127v496h117l9 -73h1c8.66699 8.66699 20.167 17.667 34.5 27s29.833 17.833 46.5 25.5s34 14 52 19s35.667 7.5 53 7.5v-131zM126.999 568l81 195l116 -37l-123 -185z" />
    <glyph glyph-name="Rcommaaccent" unicode="&#x156;" horiz-adv-x="594" 
d="M366 689c34.667 0 64.501 -6.49902 89.501 -19.499s45.667 -29.833 62 -50.5s28.333 -43.834 36 -69.501s11.5 -50.834 11.5 -75.501c0 -18 -2.5 -36.5 -7.5 -55.5s-12.333 -37 -22 -54s-21.5 -32.667 -35.5 -47s-30 -26.166 -48 -35.499l124 -282h-148
c-2.66699 7.33301 -6.83398 17.833 -12.501 31.5l-19 45.5l-22 52.5l-22 52.5l-19 45.5c-5.66699 13.667 -10.167 24.167 -13.5 31.5h-124v-259h-137v689h307zM196.001 383.001h138.999c32 0 56 8.5 72 25.5s24 38.833 24 65.5s-8.16699 48.667 -24.5 66
s-40.166 26 -71.499 26h-139v-183zM223 -240.999c17.333 11.333 30.834 22.667 40.501 34s15.5 24.666 17.5 39.999c-14.667 2.66699 -27.334 10.334 -38.001 23.001s-16 28.667 -16 48c0 21.333 7.66699 39.166 23 53.499s33.333 21.5 54 21.5
c27.333 0 48.333 -9.5 63 -28.5s22 -42.5 22 -70.5c0 -38.667 -11.667 -73.667 -35 -105s-53 -55.666 -89 -72.999z" />
    <glyph glyph-name="rcommaaccent" unicode="&#x157;" horiz-adv-x="380" 
d="M371 371c-44 -4 -80.168 -10.833 -108.501 -20.5s-54.166 -21.5 -77.499 -35.5v-315h-127v496h117l9 -73h1c8.66699 8.66699 20.167 17.667 34.5 27s29.833 17.833 46.5 25.5s34 14 52 19s35.667 7.5 53 7.5v-131zM37.999 -261c17.333 11.333 30.834 22.667 40.501 34
s15.5 24.666 17.5 39.999c-14.667 2.66699 -27.334 10.334 -38.001 23.001s-16 28.667 -16 48c0 21.333 7.66699 39.166 23 53.499s33.333 21.5 54 21.5c27.333 0 48.333 -9.5 63 -28.5s22 -42.5 22 -70.5c0 -38.667 -11.667 -73.667 -35 -105s-53 -55.666 -89 -72.999z" />
    <glyph glyph-name="Rcaron" unicode="&#x158;" horiz-adv-x="594" 
d="M366 689c34.667 0 64.501 -6.49902 89.501 -19.499s45.667 -29.833 62 -50.5s28.333 -43.834 36 -69.501s11.5 -50.834 11.5 -75.501c0 -18 -2.5 -36.5 -7.5 -55.5s-12.333 -37 -22 -54s-21.5 -32.667 -35.5 -47s-30 -26.166 -48 -35.499l124 -282h-148
c-2.66699 7.33301 -6.83398 17.833 -12.501 31.5l-19 45.5l-22 52.5l-22 52.5l-19 45.5c-5.66699 13.667 -10.167 24.167 -13.5 31.5h-124v-259h-137v689h307zM196.001 383.001h138.999c32 0 56 8.5 72 25.5s24 38.833 24 65.5s-8.16699 48.667 -24.5 66
s-40.166 26 -71.499 26h-139v-183zM436 908.001l44 -53l-148 -122h-84l-149 123l41 51l149 -80z" />
    <glyph glyph-name="rcaron" unicode="&#x159;" horiz-adv-x="380" 
d="M371 371c-44 -4 -80.168 -10.833 -108.501 -20.5s-54.166 -21.5 -77.499 -35.5v-315h-127v496h117l9 -73h1c8.66699 8.66699 20.167 17.667 34.5 27s29.833 17.833 46.5 25.5s34 14 52 19s35.667 7.5 53 7.5v-131zM324.999 731l51 -46.001l-147 -154h-87l-148 155l49 44
c8 -5.33301 18.333 -12.666 31 -21.999l39.5 -29.5l40 -29.5l31.5 -23z" />
    <glyph glyph-name="Sacute" unicode="&#x15a;" horiz-adv-x="599" 
d="M565 199c0 -33.333 -6.66504 -62.8369 -19.998 -88.5039s-31.833 -47 -55.5 -64s-51.5 -29.833 -83.5 -38.5s-66.667 -13 -104 -13c-50 0 -97 7 -141 21s-87 38.667 -129 74l77 100c30 -23.333 61.167 -41.166 93.5 -53.499s64.5 -18.5 96.5 -18.5
c22 0 40.667 2.16699 56 6.5s27.666 10.333 36.999 18s16.166 16.334 20.499 26.001s6.5 19.5 6.5 29.5c0 15.333 -3.83301 28 -11.5 38s-18.667 18.5 -33 25.5s-31.333 13.333 -51 19l-65.5 18.5c-26.667 6.66699 -52.167 14.834 -76.5 24.501s-45.833 22 -64.5 37
s-33.5 33.333 -44.5 55s-16.5 47.834 -16.5 78.501c0 30 5.66699 57.667 17 83s27.166 47.166 47.499 65.499s45 32.666 74 42.999s61.167 15.5 96.5 15.5c42 0.666992 84 -3.33301 126 -12s82.667 -26 122 -52l-60 -110c-32 19.333 -62.333 32.666 -91 39.999
s-57 11 -85 11c-13.333 0 -26.5 -1.66699 -39.5 -5s-24.667 -8.16602 -35 -14.499s-18.666 -14.666 -24.999 -24.999s-9.5 -22.5 -9.5 -36.5s3.5 -25.833 10.5 -35.5s17.167 -18 30.5 -25s29.5 -13.167 48.5 -18.5s40.5 -10.666 64.5 -15.999
c72.667 -16 127 -40.333 163 -73s54 -76 54 -130zM220.002 794.996l170 126l80 -92l-200 -95z" />
    <glyph glyph-name="sacute" unicode="&#x15b;" horiz-adv-x="467" 
d="M236 -5c-18 0 -36.166 0.831055 -54.499 2.49805s-36.666 5 -54.999 10s-36.666 12.167 -54.999 21.5s-36.833 22 -55.5 38l69 91c24.667 -20.667 49.334 -34.834 74.001 -42.501s49.667 -11.5 75 -11.5c22.667 0 41.334 4.16699 56.001 12.5s22 19.833 22 34.5
c0 12 -4.5 21.667 -13.5 29s-24.833 13 -47.5 17s-46.167 8.5 -70.5 13.5s-46.5 12.5 -66.5 22.5s-36.333 23.667 -49 41s-19 40.333 -19 69c0 26 5.33301 48.833 16 68.5s24.667 36 42 49s37.166 22.833 59.499 29.5s45.5 10 69.5 10c39.333 0 75 -3.5 107 -10.5
s63.667 -22.5 95 -46.5l-60 -95c-25.333 17.333 -49.833 28.5 -73.5 33.5s-45.834 7.5 -66.501 7.5c-22 0 -38.167 -4.33301 -48.5 -13s-15.5 -18.667 -15.5 -30c0 -12.667 6.66699 -21.667 20 -27s30.166 -10 50.499 -14l65.5 -13
c23.333 -4.66699 45.166 -12.167 65.499 -22.5s37.166 -24.666 50.499 -42.999s20 -43.166 20 -74.499c0 -26 -5.5 -48.667 -16.5 -68s-26 -35.666 -45 -48.999s-41 -23.333 -66 -30s-51.5 -10 -79.5 -10zM180.001 567.998l81 195l116 -37l-123 -185z" />
    <glyph glyph-name="Scircumflex" unicode="&#x15c;" horiz-adv-x="599" 
d="M565 199c0 -33.333 -6.66504 -62.8369 -19.998 -88.5039s-31.833 -47 -55.5 -64s-51.5 -29.833 -83.5 -38.5s-66.667 -13 -104 -13c-50 0 -97 7 -141 21s-87 38.667 -129 74l77 100c30 -23.333 61.167 -41.166 93.5 -53.499s64.5 -18.5 96.5 -18.5
c22 0 40.667 2.16699 56 6.5s27.666 10.333 36.999 18s16.166 16.334 20.499 26.001s6.5 19.5 6.5 29.5c0 15.333 -3.83301 28 -11.5 38s-18.667 18.5 -33 25.5s-31.333 13.333 -51 19l-65.5 18.5c-26.667 6.66699 -52.167 14.834 -76.5 24.501s-45.833 22 -64.5 37
s-33.5 33.333 -44.5 55s-16.5 47.834 -16.5 78.501c0 30 5.66699 57.667 17 83s27.166 47.166 47.499 65.499s45 32.666 74 42.999s61.167 15.5 96.5 15.5c42 0.666992 84 -3.33301 126 -12s82.667 -26 122 -52l-60 -110c-32 19.333 -62.333 32.666 -91 39.999
s-57 11 -85 11c-13.333 0 -26.5 -1.66699 -39.5 -5s-24.667 -8.16602 -35 -14.499s-18.666 -14.666 -24.999 -24.999s-9.5 -22.5 -9.5 -36.5s3.5 -25.833 10.5 -35.5s17.167 -18 30.5 -25s29.5 -13.167 48.5 -18.5s40.5 -10.666 64.5 -15.999
c72.667 -16 127 -40.333 163 -73s54 -76 54 -130zM302.002 811.996l-148 -81l-42 52l150 122h83l149 -122l-44 -53z" />
    <glyph glyph-name="scircumflex" unicode="&#x15d;" horiz-adv-x="467" 
d="M236 -5c-18 0 -36.166 0.831055 -54.499 2.49805s-36.666 5 -54.999 10s-36.666 12.167 -54.999 21.5s-36.833 22 -55.5 38l69 91c24.667 -20.667 49.334 -34.834 74.001 -42.501s49.667 -11.5 75 -11.5c22.667 0 41.334 4.16699 56.001 12.5s22 19.833 22 34.5
c0 12 -4.5 21.667 -13.5 29s-24.833 13 -47.5 17s-46.167 8.5 -70.5 13.5s-46.5 12.5 -66.5 22.5s-36.333 23.667 -49 41s-19 40.333 -19 69c0 26 5.33301 48.833 16 68.5s24.667 36 42 49s37.166 22.833 59.499 29.5s45.5 10 69.5 10c39.333 0 75 -3.5 107 -10.5
s63.667 -22.5 95 -46.5l-60 -95c-25.333 17.333 -49.833 28.5 -73.5 33.5s-45.834 7.5 -66.501 7.5c-22 0 -38.167 -4.33301 -48.5 -13s-15.5 -18.667 -15.5 -30c0 -12.667 6.66699 -21.667 20 -27s30.166 -10 50.499 -14l65.5 -13
c23.333 -4.66699 45.166 -12.167 65.499 -22.5s37.166 -24.666 50.499 -42.999s20 -43.166 20 -74.499c0 -26 -5.5 -48.667 -16.5 -68s-26 -35.666 -45 -48.999s-41 -23.333 -66 -30s-51.5 -10 -79.5 -10zM244.001 635.998c-8 -5.33301 -18.5 -12.833 -31.5 -22.5l-40 -29.5
l-39.5 -29.5c-12.667 -9.66699 -23 -17.167 -31 -22.5l-49 44l148 155h87l147 -154l-51 -46z" />
    <glyph glyph-name="Scedilla" unicode="&#x15e;" horiz-adv-x="599" 
d="M565 199c0 -32 -6.16797 -60.502 -18.501 -85.502s-29.5 -46 -51.5 -63s-48 -30 -78 -39s-62.333 -14.167 -97 -15.5l-10 -33c18 -1.33301 33.333 -5 46 -11s22.834 -13 30.501 -21s13.167 -16.833 16.5 -26.5s5 -19.167 5 -28.5c0 -10.667 -2.5 -21.5 -7.5 -32.5
s-12.167 -20.833 -21.5 -29.5s-21.166 -15.667 -35.499 -21s-30.833 -8 -49.5 -8s-37.334 2.16699 -56.001 6.5s-35.667 10.5 -51 18.5c3.33301 9.33301 7 18.5 11 27.5s7.66699 18.167 11 27.5c16 -7.33301 29.833 -11.833 41.5 -13.5s22.834 -2.5 33.501 -2.5
c11.333 0 21.333 3 30 9s13 13.667 13 23s-3.16699 16.666 -9.5 21.999s-15.166 8 -26.499 8c-6 0 -12 -1 -18 -3c-6 3.33301 -12 6.5 -18 9.5s-12 6.16699 -18 9.5c3.33301 12 6.83301 23.833 10.5 35.5s7.5 23.167 11.5 34.5c-42 3.33301 -81.333 12.166 -118 26.499
s-73 36.5 -109 66.5l77 100c30 -23.333 61.167 -41.166 93.5 -53.499s64.5 -18.5 96.5 -18.5c22 0 40.667 2.16699 56 6.5s27.666 10.333 36.999 18s16.166 16.334 20.499 26.001s6.5 19.5 6.5 29.5c0 15.333 -3.83301 28 -11.5 38s-18.667 18.5 -33 25.5
s-31.333 13.333 -51 19l-65.5 18.5c-26.667 6.66699 -52.167 14.834 -76.5 24.501s-45.833 22 -64.5 37s-33.5 33.333 -44.5 55s-16.5 47.834 -16.5 78.501c0 30 5.66699 57.667 17 83s27.166 47.166 47.499 65.499s45 32.666 74 42.999s61.167 15.5 96.5 15.5
c42 0.666992 84 -3.33301 126 -12s82.667 -26 122 -52l-60 -110c-32 19.333 -62.333 32.666 -91 39.999s-57 11 -85 11c-13.333 0 -26.5 -1.66699 -39.5 -5s-24.667 -8.16602 -35 -14.499s-18.666 -14.666 -24.999 -24.999s-9.5 -22.5 -9.5 -36.5s3.5 -25.833 10.5 -35.5
s17.167 -18 30.5 -25s29.5 -13.167 48.5 -18.5s40.5 -10.666 64.5 -15.999c72.667 -16 127 -40.333 163 -73s54 -76 54 -130z" />
    <glyph glyph-name="scedilla" unicode="&#x15f;" horiz-adv-x="467" 
d="M443 152c0 -24 -4.66699 -45.167 -14 -63.5s-22.333 -34 -39 -47s-36 -23.333 -58 -31s-45.333 -12.5 -70 -14.5l-10 -33c18 -1.33301 33.333 -5 46 -11s22.834 -13 30.501 -21s13.167 -16.833 16.5 -26.5s5 -19.167 5 -28.5c0 -10.667 -2.5 -21.5 -7.5 -32.5
s-12.167 -20.833 -21.5 -29.5s-21.166 -15.667 -35.499 -21s-30.833 -8 -49.5 -8s-37.334 2.16699 -56.001 6.5s-35.667 10.5 -51 18.5c3.33301 9.33301 7 18.5 11 27.5s7.66699 18.167 11 27.5c16 -7.33301 29.833 -11.833 41.5 -13.5s22.834 -2.5 33.501 -2.5
c11.333 0 21.333 3 30 9s13 13.667 13 23s-3.16699 16.666 -9.5 21.999s-15.166 8 -26.499 8c-6 0 -12 -1 -18 -3c-6 3.33301 -12 6.5 -18 9.5s-12 6.16699 -18 9.5c6.66699 24 14 47 22 69c-30.667 2 -61.167 7.66699 -91.5 17s-61.5 27.333 -93.5 54l69 91
c24.667 -20.667 49.334 -34.834 74.001 -42.501s49.667 -11.5 75 -11.5c22.667 0 41.334 4.16699 56.001 12.5s22 19.833 22 34.5c0 12 -4.5 21.667 -13.5 29s-24.833 13 -47.5 17s-46.167 8.5 -70.5 13.5s-46.5 12.5 -66.5 22.5s-36.333 23.667 -49 41s-19 40.333 -19 69
c0 26 5.33301 48.833 16 68.5s24.667 36 42 49s37.166 22.833 59.499 29.5s45.5 10 69.5 10c39.333 0 75 -3.5 107 -10.5s63.667 -22.5 95 -46.5l-60 -95c-25.333 17.333 -49.833 28.5 -73.5 33.5s-45.834 7.5 -66.501 7.5c-22 0 -38.167 -4.33301 -48.5 -13
s-15.5 -18.667 -15.5 -30c0 -12.667 6.66699 -21.667 20 -27s30.166 -10 50.499 -14l65.5 -13c23.333 -4.66699 45.166 -12.167 65.499 -22.5s37.166 -24.666 50.499 -42.999s20 -43.166 20 -74.499z" />
    <glyph glyph-name="Scaron" unicode="&#x160;" horiz-adv-x="599" 
d="M565 199c0 -33.333 -6.66504 -62.8369 -19.998 -88.5039s-31.833 -47 -55.5 -64s-51.5 -29.833 -83.5 -38.5s-66.667 -13 -104 -13c-50 0 -97 7 -141 21s-87 38.667 -129 74l77 100c30 -23.333 61.167 -41.166 93.5 -53.499s64.5 -18.5 96.5 -18.5
c22 0 40.667 2.16699 56 6.5s27.666 10.333 36.999 18s16.166 16.334 20.499 26.001s6.5 19.5 6.5 29.5c0 15.333 -3.83301 28 -11.5 38s-18.667 18.5 -33 25.5s-31.333 13.333 -51 19l-65.5 18.5c-26.667 6.66699 -52.167 14.834 -76.5 24.501s-45.833 22 -64.5 37
s-33.5 33.333 -44.5 55s-16.5 47.834 -16.5 78.501c0 30 5.66699 57.667 17 83s27.166 47.166 47.499 65.499s45 32.666 74 42.999s61.167 15.5 96.5 15.5c42 0.666992 84 -3.33301 126 -12s82.667 -26 122 -52l-60 -110c-32 19.333 -62.333 32.666 -91 39.999
s-57 11 -85 11c-13.333 0 -26.5 -1.66699 -39.5 -5s-24.667 -8.16602 -35 -14.499s-18.666 -14.666 -24.999 -24.999s-9.5 -22.5 -9.5 -36.5s3.5 -25.833 10.5 -35.5s17.167 -18 30.5 -25s29.5 -13.167 48.5 -18.5s40.5 -10.666 64.5 -15.999
c72.667 -16 127 -40.333 163 -73s54 -76 54 -130zM453.002 907.996l44 -53l-148 -122h-84l-149 123l41 51l149 -80z" />
    <glyph glyph-name="scaron" unicode="&#x161;" horiz-adv-x="467" 
d="M236 -5c-18 0 -36.166 0.831055 -54.499 2.49805s-36.666 5 -54.999 10s-36.666 12.167 -54.999 21.5s-36.833 22 -55.5 38l69 91c24.667 -20.667 49.334 -34.834 74.001 -42.501s49.667 -11.5 75 -11.5c22.667 0 41.334 4.16699 56.001 12.5s22 19.833 22 34.5
c0 12 -4.5 21.667 -13.5 29s-24.833 13 -47.5 17s-46.167 8.5 -70.5 13.5s-46.5 12.5 -66.5 22.5s-36.333 23.667 -49 41s-19 40.333 -19 69c0 26 5.33301 48.833 16 68.5s24.667 36 42 49s37.166 22.833 59.499 29.5s45.5 10 69.5 10c39.333 0 75 -3.5 107 -10.5
s63.667 -22.5 95 -46.5l-60 -95c-25.333 17.333 -49.833 28.5 -73.5 33.5s-45.834 7.5 -66.501 7.5c-22 0 -38.167 -4.33301 -48.5 -13s-15.5 -18.667 -15.5 -30c0 -12.667 6.66699 -21.667 20 -27s30.166 -10 50.499 -14l65.5 -13
c23.333 -4.66699 45.166 -12.167 65.499 -22.5s37.166 -24.666 50.499 -42.999s20 -43.166 20 -74.499c0 -26 -5.5 -48.667 -16.5 -68s-26 -35.666 -45 -48.999s-41 -23.333 -66 -30s-51.5 -10 -79.5 -10zM381.001 730.998l51 -46.001l-147 -154h-87l-148 155l49 44
c8 -5.33301 18.333 -12.666 31 -21.999l39.5 -29.5l40 -29.5l31.5 -23z" />
    <glyph glyph-name="Tcommaaccent" unicode="&#x162;" horiz-adv-x="526" 
d="M332 565v-565h-137v565h-183v124h502v-124h-182zM180 -261c17.333 11.333 30.834 22.667 40.501 34s15.5 24.666 17.5 39.999c-14.667 2.66699 -27.334 10.334 -38.001 23.001s-16 28.667 -16 48c0 21.333 7.66699 39.166 23 53.499s33.333 21.5 54 21.5
c27.333 0 48.333 -9.5 63 -28.5s22 -42.5 22 -70.5c0 -38.667 -11.667 -73.667 -35 -105s-53 -55.666 -89 -72.999z" />
    <glyph glyph-name="tcommaaccent" unicode="&#x163;" horiz-adv-x="377" 
d="M24 391v102.997h64l22 124h102v-124h120v-103h-120v-206c0 -23.333 3.83301 -41.666 11.5 -54.999s25.5 -20 53.5 -20c9.33301 0 20 0.833008 32 2.5s25.333 4.5 40 8.5l23 -108c-21.333 -8 -43.5 -13.167 -66.5 -15.5s-42.5 -3.5 -58.5 -3.5
c-32 0 -58.5 4.33301 -79.5 13s-37.5 20.834 -49.5 36.501s-20.333 34.334 -25 56.001s-7 45.167 -7 70.5v221h-62zM88 -261.003c17.333 11.333 30.834 22.667 40.501 34s15.5 24.666 17.5 39.999c-14.667 2.66699 -27.334 10.334 -38.001 23.001s-16 28.667 -16 48
c0 21.333 7.66699 39.166 23 53.499s33.333 21.5 54 21.5c27.333 0 48.333 -9.5 63 -28.5s22 -42.5 22 -70.5c0 -38.667 -11.667 -73.667 -35 -105s-53 -55.666 -89 -72.999z" />
    <glyph glyph-name="Tcaron" unicode="&#x164;" horiz-adv-x="526" 
d="M332 565v-565h-137v565h-183v124h502v-124h-182zM413 908l44 -53l-148 -122h-84l-149 123l41 51l149 -80z" />
    <glyph glyph-name="tcaron" unicode="&#x165;" horiz-adv-x="419" 
d="M266 598c17.333 11.333 30.834 22.667 40.501 34s15.5 24.666 17.5 39.999c-14.667 2.66699 -27.334 10.334 -38.001 23.001s-16 28.667 -16 48c0 21.333 7.66699 39.166 23 53.499s33.333 21.5 54 21.5c27.333 0 48.333 -9.5 63 -28.5s22 -42.5 22 -70.5
c0 -38.667 -11.667 -73.667 -35 -105s-53 -55.666 -89 -72.999zM24.001 391.001v102.997h64l22 124h102v-124h120v-103h-120v-206c0 -23.333 3.83301 -41.666 11.5 -54.999s25.5 -20 53.5 -20c9.33301 0 20 0.833008 32 2.5s25.333 4.5 40 8.5l23 -108
c-21.333 -8 -43.5 -13.167 -66.5 -15.5s-42.5 -3.5 -58.5 -3.5c-32 0 -58.5 4.33301 -79.5 13s-37.5 20.834 -49.5 36.501s-20.333 34.334 -25 56.001s-7 45.167 -7 70.5v221h-62z" />
    <glyph glyph-name="Tbar" unicode="&#x166;" horiz-adv-x="526" 
d="M332 565v-162h156v-90h-156v-313h-137v313h-153v90h153v162h-183v124h502v-124h-182z" />
    <glyph glyph-name="tbar" unicode="&#x167;" horiz-adv-x="377" 
d="M24 391l-0.000976562 102.997h64l22 124h102v-124h120v-103h-120v-80h120v-85h-120v-41c0 -23.333 3.83301 -41.666 11.5 -54.999s25.5 -20 53.5 -20c9.33301 0 20.333 0.833008 33 2.5s26.334 4.5 41.001 8.5l23 -108c-21.333 -8 -43.833 -13.167 -67.5 -15.5
s-43.5 -3.5 -59.5 -3.5c-32 0 -58.5 4.33301 -79.5 13s-37.5 20.834 -49.5 36.501s-20.333 34.334 -25 56.001s-7 45.167 -7 70.5v56h-62v85h62v80h-62z" />
    <glyph glyph-name="Utilde" unicode="&#x168;" horiz-adv-x="644" 
d="M587 219c0 -37.333 -7.33105 -70.001 -21.998 -98.001s-34.334 -51.5 -59.001 -70.5s-53 -33.333 -85 -43s-65 -14.5 -99 -14.5s-67 4.66699 -99 14s-60.167 23.333 -84.5 42s-43.833 41.834 -58.5 69.501s-22 60.167 -22 97.5v473h136v-447
c0 -22.667 3.66699 -41.834 11 -57.501s17 -28.5 29 -38.5s25.667 -17.333 41 -22s31 -7 47 -7c15.333 0 30.666 2.33301 45.999 7s29 12 41 22s21.667 22.833 29 38.5s11 34.834 11 57.501v447h138v-470zM256.002 880.999
c12.667 -0.666992 25.3301 -3.50098 37.9971 -8.50098s24.667 -10.5 36 -16.5l32 -16.5c10 -5 19 -7.5 27 -7.5c11.333 0 21.5 3.33301 30.5 10s19.833 18.667 32.5 36l64 -38c-17.333 -36.667 -35.166 -63 -53.499 -79s-39.166 -24 -62.499 -24
c-13.333 0 -26.166 2.33301 -38.499 7s-24.333 9.83398 -36 15.501l-33 15.5c-10.333 4.66699 -20.166 7 -29.499 7c-11.333 0 -21.833 -2.5 -31.5 -7.5s-21.834 -16.833 -36.501 -35.5l-64 38c16.667 34 34.667 59.833 54 77.5s43 26.5 71 26.5z" />
    <glyph glyph-name="utilde" unicode="&#x169;" horiz-adv-x="531" 
d="M173 494v-305.001c0 -28 7 -47.5 21 -58.5s29 -16.5 45 -16.5c15.333 0 32 3.5 50 10.5s39.667 18.833 65 35.5v334h128v-494h-118l-10 43c-36 -22 -66 -35.833 -90 -41.5s-44.333 -8.5 -61 -8.5c-28 0 -52 4.66699 -72 14s-36.333 22.333 -49 39s-22 36.334 -28 59.001
s-9 47.667 -9 75v314h128zM194 710.999c12.667 -0.666992 25.3301 -3.50098 37.9971 -8.50098s24.667 -10.5 36 -16.5l32 -16.5c10 -5 19 -7.5 27 -7.5c11.333 0 21.5 3.33301 30.5 10s19.833 18.667 32.5 36l64 -38c-17.333 -36.667 -35.166 -63 -53.499 -79
s-39.166 -24 -62.499 -24c-13.333 0 -26.166 2.33301 -38.499 7s-24.333 9.83398 -36 15.501l-33 15.5c-10.333 4.66699 -20.166 7 -29.499 7c-11.333 0 -21.833 -2.5 -31.5 -7.5s-21.834 -16.833 -36.501 -35.5l-64 38c16.667 34 34.667 59.833 54 77.5s43 26.5 71 26.5z
" />
    <glyph glyph-name="Umacron" unicode="&#x16a;" horiz-adv-x="644" 
d="M587 219c0 -37.333 -7.33105 -70.001 -21.998 -98.001s-34.334 -51.5 -59.001 -70.5s-53 -33.333 -85 -43s-65 -14.5 -99 -14.5s-67 4.66699 -99 14s-60.167 23.333 -84.5 42s-43.833 41.834 -58.5 69.501s-22 60.167 -22 97.5v473h136v-447
c0 -22.667 3.66699 -41.834 11 -57.501s17 -28.5 29 -38.5s25.667 -17.333 41 -22s31 -7 47 -7c15.333 0 30.666 2.33301 45.999 7s29 12 41 22s21.667 22.833 29 38.5s11 34.834 11 57.501v447h138v-470zM166.002 764.999v104h312v-104h-312z" />
    <glyph glyph-name="umacron" unicode="&#x16b;" horiz-adv-x="531" 
d="M173 494v-305.001c0 -28 7 -47.5 21 -58.5s29 -16.5 45 -16.5c15.333 0 32 3.5 50 10.5s39.667 18.833 65 35.5v334h128v-494h-118l-10 43c-36 -22 -66 -35.833 -90 -41.5s-44.333 -8.5 -61 -8.5c-28 0 -52 4.66699 -72 14s-36.333 22.333 -49 39s-22 36.334 -28 59.001
s-9 47.667 -9 75v314h128zM113 584.999v104h312v-104h-312z" />
    <glyph glyph-name="Ubreve" unicode="&#x16c;" horiz-adv-x="644" 
d="M587 219c0 -37.333 -7.33105 -70.001 -21.998 -98.001s-34.334 -51.5 -59.001 -70.5s-53 -33.333 -85 -43s-65 -14.5 -99 -14.5s-67 4.66699 -99 14s-60.167 23.333 -84.5 42s-43.833 41.834 -58.5 69.501s-22 60.167 -22 97.5v473h136v-447
c0 -22.667 3.66699 -41.834 11 -57.501s17 -28.5 29 -38.5s25.667 -17.333 41 -22s31 -7 47 -7c15.333 0 30.666 2.33301 45.999 7s29 12 41 22s21.667 22.833 29 38.5s11 34.834 11 57.501v447h138v-470zM325.002 726.999c-28 0 -51.502 5.16699 -70.502 15.5
s-34.333 23 -46 38s-20.167 31.167 -25.5 48.5s-8.66602 33.333 -9.99902 48h91c0 -6.66699 1.5 -13.834 4.5 -21.501s7 -14.834 12 -21.501s11.167 -12.167 18.5 -16.5s16 -6.5 26 -6.5c10.667 0 19.834 2.16699 27.501 6.5s14 9.83301 19 16.5s8.83301 13.834 11.5 21.501
s4 14.834 4 21.501h90c-1.33301 -14.667 -4.83301 -30.667 -10.5 -48s-14.167 -33.5 -25.5 -48.5s-26.5 -27.667 -45.5 -38s-42.5 -15.5 -70.5 -15.5z" />
    <glyph glyph-name="ubreve" unicode="&#x16d;" horiz-adv-x="531" 
d="M173 494v-305.001c0 -28 7 -47.5 21 -58.5s29 -16.5 45 -16.5c15.333 0 32 3.5 50 10.5s39.667 18.833 65 35.5v334h128v-494h-118l-10 43c-36 -22 -66 -35.833 -90 -41.5s-44.333 -8.5 -61 -8.5c-28 0 -52 4.66699 -72 14s-36.333 22.333 -49 39s-22 36.334 -28 59.001
s-9 47.667 -9 75v314h128zM269 562.999c-28 0 -51.5 5.16699 -70.5 15.5s-34.333 23 -46 38s-20.167 31.333 -25.5 49s-8.66602 33.834 -9.99902 48.501h92c0 -6.66699 1.33301 -13.834 4 -21.501s6.5 -14.834 11.5 -21.501s11.167 -12.167 18.5 -16.5s16 -6.5 26 -6.5
c10.667 0 19.834 2.16699 27.501 6.5s14 9.83301 19 16.5s8.83301 13.834 11.5 21.501s4 14.834 4 21.501h91c-2 -14.667 -5.66699 -30.834 -11 -48.501s-13.833 -34 -25.5 -49s-26.834 -27.667 -45.501 -38s-42.334 -15.5 -71.001 -15.5z" />
    <glyph glyph-name="Uring" unicode="&#x16e;" horiz-adv-x="644" 
d="M587 219c0 -37.333 -7.33105 -70.001 -21.998 -98.001s-34.334 -51.5 -59.001 -70.5s-53 -33.333 -85 -43s-65 -14.5 -99 -14.5s-67 4.66699 -99 14s-60.167 23.333 -84.5 42s-43.833 41.834 -58.5 69.501s-22 60.167 -22 97.5v473h136v-447
c0 -22.667 3.66699 -41.834 11 -57.501s17 -28.5 29 -38.5s25.667 -17.333 41 -22s31 -7 47 -7c15.333 0 30.666 2.33301 45.999 7s29 12 41 22s21.667 22.833 29 38.5s11 34.834 11 57.501v447h138v-470zM370.002 809.999c0 12 -4.33301 22.167 -13 30.5
s-19.334 12.5 -32.001 12.5c-13.333 0 -24.333 -4.16699 -33 -12.5s-13 -18.5 -13 -30.5s4.33301 -22.167 13 -30.5s19.667 -12.5 33 -12.5c12.667 0 23.334 4.16699 32.001 12.5s13 18.5 13 30.5zM207.002 809.999c0 15.333 3.16699 29.833 9.5 43.5s14.833 25.5 25.5 35.5
s23.167 18 37.5 24s29.5 9 45.5 9s31.167 -3 45.5 -9s26.666 -14 36.999 -24s18.666 -21.833 24.999 -35.5s9.5 -28.167 9.5 -43.5s-3.16699 -29.833 -9.5 -43.5s-14.833 -25.5 -25.5 -35.5s-23.167 -18 -37.5 -24s-29.5 -9 -45.5 -9s-31.167 3 -45.5 9
s-26.666 14 -36.999 24s-18.666 21.833 -24.999 35.5s-9.5 28.167 -9.5 43.5z" />
    <glyph glyph-name="uring" unicode="&#x16f;" horiz-adv-x="531" 
d="M173 494v-305.001c0 -28 7 -47.5 21 -58.5s29 -16.5 45 -16.5c15.333 0 32 3.5 50 10.5s39.667 18.833 65 35.5v334h128v-494h-118l-10 43c-36 -22 -66 -35.833 -90 -41.5s-44.333 -8.5 -61 -8.5c-28 0 -52 4.66699 -72 14s-36.333 22.333 -49 39s-22 36.334 -28 59.001
s-9 47.667 -9 75v314h128zM314 642.999c0 12 -4.33301 22.167 -13 30.5s-19.334 12.5 -32.001 12.5c-13.333 0 -24.333 -4.16699 -33 -12.5s-13 -18.5 -13 -30.5s4.33301 -22.167 13 -30.5s19.667 -12.5 33 -12.5c12.667 0 23.334 4.16699 32.001 12.5s13 18.5 13 30.5z
M151 642.999c0 15.333 3.16699 29.833 9.5 43.5s14.833 25.5 25.5 35.5s23.167 18 37.5 24s29.5 9 45.5 9s31.167 -3 45.5 -9s26.666 -14 36.999 -24s18.666 -21.833 24.999 -35.5s9.5 -28.167 9.5 -43.5s-3.16699 -29.833 -9.5 -43.5s-14.833 -25.5 -25.5 -35.5
s-23.167 -18 -37.5 -24s-29.5 -9 -45.5 -9s-31.167 3 -45.5 9s-26.666 14 -36.999 24s-18.666 21.833 -24.999 35.5s-9.5 28.167 -9.5 43.5z" />
    <glyph glyph-name="Uhungarumlaut" unicode="&#x170;" horiz-adv-x="644" 
d="M587 219c0 -37.333 -7.33105 -70.001 -21.998 -98.001s-34.334 -51.5 -59.001 -70.5s-53 -33.333 -85 -43s-65 -14.5 -99 -14.5s-67 4.66699 -99 14s-60.167 23.333 -84.5 42s-43.833 41.834 -58.5 69.501s-22 60.167 -22 97.5v473h136v-447
c0 -22.667 3.66699 -41.834 11 -57.501s17 -28.5 29 -38.5s25.667 -17.333 41 -22s31 -7 47 -7c15.333 0 30.666 2.33301 45.999 7s29 12 41 22s21.667 22.833 29 38.5s11 34.834 11 57.501v447h138v-470zM141.002 782.999l157 141l89 -83l-190 -113zM339.002 782.999
l157 141l89 -83l-190 -113z" />
    <glyph glyph-name="uhungarumlaut" unicode="&#x171;" horiz-adv-x="531" 
d="M173 494v-305.001c0 -28 7 -47.5 21 -58.5s29 -16.5 45 -16.5c15.333 0 32 3.5 50 10.5s39.667 18.833 65 35.5v334h128v-494h-118l-10 43c-36 -22 -66 -35.833 -90 -41.5s-44.333 -8.5 -61 -8.5c-28 0 -52 4.66699 -72 14s-36.333 22.333 -49 39s-22 36.334 -28 59.001
s-9 47.667 -9 75v314h128zM112 567.999l81 195l116 -37l-123 -185zM280 567.999l81 195l116 -37l-124 -185z" />
    <glyph glyph-name="Uogonek" unicode="&#x172;" horiz-adv-x="644" 
d="M251 -98c0 13.333 2.33594 27.168 7.00293 41.501s13.667 31.5 27 51.5c-30.667 2.66699 -59.667 9.5 -87 20.5s-51.333 25.667 -72 44s-37.167 40.5 -49.5 66.5s-18.5 56 -18.5 90v473h136v-447c0 -22.667 3.66699 -41.834 11 -57.501s17 -28.5 29 -38.5
s25.667 -17.333 41 -22s31 -7 47 -7c15.333 0 30.666 2.33301 45.999 7s29 12 41 22s21.667 22.833 29 38.5s11 34.834 11 57.501v447h138v-470c0 -33.333 -5.83301 -62.833 -17.5 -88.5s-27.334 -47.834 -47.001 -66.501s-42.667 -33.667 -69 -45s-54.166 -19 -83.499 -23
c-12.667 -17.333 -21.834 -32.333 -27.501 -45s-8.5 -24 -8.5 -34c0 -21.333 12.333 -32 37 -32c13.333 0 33.666 5.33301 60.999 16l26 -65c-15.333 -8.66699 -32 -15.667 -50 -21s-35.667 -8 -53 -8c-30.667 0 -55.667 9.33301 -75 28s-29 41 -29 67z" />
    <glyph glyph-name="uogonek" unicode="&#x173;" horiz-adv-x="531" 
d="M324 -98c0 14 2.66895 28.833 8.00195 44.5s15.666 34.167 30.999 55.5l-9 41c-36 -22 -66 -35.833 -90 -41.5s-44.333 -8.5 -61 -8.5c-28 0 -52 4.66699 -72 14s-36.333 22.333 -49 39s-22 36.334 -28 59.001s-9 47.667 -9 75v314h128v-305c0 -28 7 -47.5 21 -58.5
s29 -16.5 45 -16.5c15.333 0 32 3.5 50 10.5s39.667 18.833 65 35.5v334h128v-494h-37c-13.333 -19.333 -23 -35.333 -29 -48s-9 -24.334 -9 -35.001c0 -21.333 12.333 -32 37 -32c13.333 0 33.666 5.33301 60.999 16l26 -65c-15.333 -8.66699 -32 -15.667 -50 -21
s-35.667 -8 -53 -8c-30.667 0 -55.667 9.33301 -75 28s-29 41 -29 67z" />
    <glyph glyph-name="Wcircumflex" unicode="&#x174;" horiz-adv-x="908" 
d="M450 455l-49 -196l-64 -259h-151l-176 689h146l60 -272l46 -213h7l53 215l68 270h128l72 -284l50 -201h6l43 203l63 282h146l-178 -689h-149l-64 260l-50 195h-7zM451 812l-148 -81l-42 52l150 122h83l149 -122l-44 -53z" />
    <glyph glyph-name="wcircumflex" unicode="&#x175;" horiz-adv-x="736" 
d="M224 181c1.33301 4.66699 4.33398 14.167 9.00098 28.5l15 46l15 46c4.66699 14.333 8 24.166 10 29.499c1.33301 4.66699 3.83301 12.667 7.5 24l11.5 35.5l11 34.5c3.33301 10.667 5.66602 18.334 6.99902 23.001h108l42 -128l44 -144h4
c1.33301 6 3.83301 16.667 7.5 32l11.5 49l11 49.5l7 32.5l38 157h133l-137 -496h-129l-43 132l-42 133l-4 1c-2 -4.66699 -5 -13.5 -9 -26.5l-13 -42l-13 -42c-4 -13 -6.66699 -21.833 -8 -26.5l-42 -129h-127l-139 496h134l40 -164l35 -151h5zM367.001 636
c-8 -5.33301 -18.5 -12.833 -31.5 -22.5l-40 -29.5l-39.5 -29.5c-12.667 -9.66699 -23 -17.167 -31 -22.5l-49 44l148 155h87l147 -154l-51 -46z" />
    <glyph glyph-name="Ycircumflex" unicode="&#x176;" horiz-adv-x="576" 
d="M292 401l58 134l69 154h146l-208 -419v-270h-137v270l-210 419h147l71 -158l57 -130h7zM287 812l-148 -81l-42 52l150 122h83l149 -122l-44 -53z" />
    <glyph glyph-name="ycircumflex" unicode="&#x177;" horiz-adv-x="492" 
d="M99 -199l76 210l-29 22l-136 463h131l46 -187l43 -165h3l55 167l60 185h132l-253 -695h-128zM244 636c-8 -5.33301 -18.5 -12.833 -31.5 -22.5l-40 -29.5l-39.5 -29.5c-12.667 -9.66699 -23 -17.167 -31 -22.5l-49 44l148 155h87l147 -154l-51 -46z" />
    <glyph glyph-name="Ydieresis" unicode="&#x178;" horiz-adv-x="576" 
d="M292 401l58 134l69 154h146l-208 -419v-270h-137v270l-210 419h147l71 -158l57 -130h7zM319 812c0 18.667 6.5 34.5 19.5 47.5s29.167 19.5 48.5 19.5s35.333 -6.5 48 -19.5s19 -28.833 19 -47.5c0 -19.333 -6.33301 -35.666 -19 -48.999s-28.667 -20 -48 -20
s-35.5 6.66699 -48.5 20s-19.5 29.666 -19.5 48.999zM121 812c0 18.667 6.66699 34.5 20 47.5s29.333 19.5 48 19.5c19.333 0 35.5 -6.5 48.5 -19.5s19.5 -28.833 19.5 -47.5c0 -19.333 -6.5 -35.666 -19.5 -48.999s-29.167 -20 -48.5 -20c-18.667 0 -34.667 6.66699 -48 20
s-20 29.666 -20 48.999z" />
    <glyph glyph-name="Zacute" unicode="&#x179;" horiz-adv-x="540" 
d="M32 118l311 449h-298v122h463v-114l-315 -453h315v-122h-476v118zM187 795l170 126l80 -92l-200 -95z" />
    <glyph glyph-name="zacute" unicode="&#x17a;" horiz-adv-x="474" 
d="M37 0v102l246 286h-232v107h387v-100l-246 -284h246v-111h-401zM180 568l81 195l116 -37l-123 -185z" />
    <glyph glyph-name="Zdotaccent" unicode="&#x17b;" horiz-adv-x="540" 
d="M32 118l311 449h-298v122h463v-114l-315 -453h315v-122h-476v118zM291 739c-21.333 0 -38.833 7.16699 -52.5 21.5s-20.5 31.833 -20.5 52.5c0 20 6.83301 37.167 20.5 51.5s30.834 21.5 51.501 21.5s38 -7.16699 52 -21.5s21 -31.5 21 -51.5s-6.33301 -37.333 -19 -52
s-30.334 -22 -53.001 -22z" />
    <glyph glyph-name="zdotaccent" unicode="&#x17c;" horiz-adv-x="474" 
d="M37 0v102l246 286h-232v107h387v-100l-246 -284h246v-111h-401zM256 563c-21.333 0 -38.833 7.16699 -52.5 21.5s-20.5 31.833 -20.5 52.5c0 20 6.83301 37.167 20.5 51.5s30.834 21.5 51.501 21.5s38 -7.16699 52 -21.5s21 -31.5 21 -51.5s-6.33301 -37.333 -19 -52
s-30.334 -22 -53.001 -22z" />
    <glyph glyph-name="Zcaron" unicode="&#x17d;" horiz-adv-x="540" 
d="M32 118l311 449h-298v122h463v-114l-315 -453h315v-122h-476v118zM424 908l44 -53l-148 -122h-84l-149 123l41 51l149 -80z" />
    <glyph glyph-name="zcaron" unicode="&#x17e;" horiz-adv-x="474" 
d="M37 0v102l246 286h-232v107h387v-100l-246 -284h246v-111h-401zM386 731l51 -46.001l-147 -154h-87l-148 155l49 44c8 -5.33301 18.333 -12.666 31 -21.999l39.5 -29.5l40 -29.5l31.5 -23z" />
    <glyph glyph-name="florin" unicode="&#x192;" horiz-adv-x="534" 
d="M126 428l94.001 -0.000976562l8.5 55c3 20 7.16699 40 12.5 60s12.166 39.5 20.499 58.5s19.5 35.833 33.5 50.5s31.333 26.334 52 35.001s45.667 13 75 13c16.667 -0.666992 33 -2.16699 49 -4.5s33 -7.16602 51 -14.499l-26 -103c-15.333 6 -28.5 9.66699 -39.5 11
s-20.833 2 -29.5 2c-17.333 0 -31 -5.83301 -41 -17.5s-17.833 -26 -23.5 -43s-9.66699 -34.833 -12 -53.5s-4.5 -35 -6.5 -49h99v-107h-111l-27 -202c-4 -30 -10 -58.167 -18 -84.5s-19 -49.333 -33 -69s-31.5 -35.334 -52.5 -47.001s-45.833 -17.5 -74.5 -17.5
c-8 0 -17 0.666992 -27 2s-20.333 3.16602 -31 5.49902s-21.167 5 -31.5 8s-19.833 6.5 -28.5 10.5l33 101c17.333 -7.33301 31.166 -11.666 41.499 -12.999s19.5 -2 27.5 -2c18 0 32 9 42 27s18.167 41.5 24.5 70.5s11.333 62 15 99s7.83398 74.167 12.501 111.5h-79v107z
" />
    <glyph glyph-name="Ohorn" unicode="&#x1a0;" horiz-adv-x="667" 
d="M584 220c0 -37.333 -7.00098 -70 -21.001 -98s-33 -51.667 -57 -71s-52.167 -33.833 -84.5 -43.5s-66.5 -14.5 -102.5 -14.5s-70.167 4.83301 -102.5 14.5s-60.5 24.167 -84.5 43.5s-43 43 -57 71s-21 60.667 -21 98v253c0 36.667 7.33301 69 22 97
s34.334 51.333 59.001 70s53 32.667 85 42s65 14 99 14c32.667 0 64.334 -4.66699 95.001 -14s58 -22.666 82 -39.999c21.333 1.33301 37.166 8.16602 47.499 20.499s15.5 36.5 15.5 72.5v35h95v-41c0 -41.333 -7 -76.5 -21 -105.5s-37 -49.5 -69 -61.5
c13.333 -28 20 -59 20 -93v-249zM445.999 445c0 22.667 -3.66699 41.834 -11 57.501s-17 28.5 -29 38.5s-25.5 17.333 -40.5 22s-30.5 7 -46.5 7s-31.667 -2.33301 -47 -7s-29 -12 -41 -22s-21.667 -22.833 -29 -38.5s-11 -34.834 -11 -57.501v-201
c0 -22.667 3.66699 -42 11 -58s17 -29 29 -39s25.667 -17.167 41 -21.5s31 -6.5 47 -6.5s31.5 2.16699 46.5 6.5s28.5 11.5 40.5 21.5s21.667 23 29 39s11 35.333 11 58v201z" />
    <glyph glyph-name="ohorn" unicode="&#x1a1;" horiz-adv-x="565" 
d="M476 176c0 -30.667 -6.16504 -57.3359 -18.498 -80.0029s-28.666 -41.5 -48.999 -56.5s-43.5 -26.167 -69.5 -33.5s-52.667 -11 -80 -11c-28 0 -55 3.66699 -81 11s-49.167 18.5 -69.5 33.5s-36.5 33.833 -48.5 56.5s-18 49.334 -18 80.001v143
c0 30.667 6.16699 57.334 18.5 80.001s28.666 41.5 48.999 56.5s43.666 26.333 69.999 34s53.166 11.5 80.499 11.5c28 0 54.667 -3.5 80 -10.5s47.666 -17.833 66.999 -32.5c19.333 2.66699 33.833 10 43.5 22s14.5 35.333 14.5 70v34h95v-40
c0 -41.333 -7.16699 -77 -21.5 -107s-38.166 -50.667 -71.499 -62c6 -17.333 9 -36.666 9 -57.999v-141zM349.002 296.998c0 16 -2.66797 29.333 -8.00098 40s-12.333 19.5 -21 26.5s-18.167 12 -28.5 15s-20.833 4.5 -31.5 4.5s-21.5 -1.5 -32.5 -4.5s-20.833 -8 -29.5 -15
s-15.667 -15.833 -21 -26.5s-8 -24 -8 -40v-98c0 -16 2.5 -29.5 7.5 -40.5s11.833 -20 20.5 -27s18.334 -12 29.001 -15s22 -4.5 34 -4.5c10.667 0 21.167 1.5 31.5 4.5s19.833 8 28.5 15s15.667 16 21 27s8 24.5 8 40.5v98z" />
    <glyph glyph-name="Uhorn" unicode="&#x1af;" horiz-adv-x="721" 
d="M587 219c0 -37.333 -7.33105 -69.999 -21.998 -97.999s-34.334 -51.5 -59.001 -70.5s-53 -33.333 -85 -43s-65 -14.5 -99 -14.5s-67 4.66699 -99 14s-60.167 23.333 -84.5 42s-43.833 41.834 -58.5 69.501s-22 60.167 -22 97.5v473h136v-447
c0 -22.667 3.66699 -41.834 11 -57.501s17 -28.5 29 -38.5s25.667 -17.333 41 -22s31 -7 47 -7c15.333 0 30.666 2.33301 45.999 7s29 12 41 22s21.667 22.833 29 38.5s11 34.834 11 57.501v447h138v-47c10 0.666992 18.667 2.66699 26 6s13.5 8.5 18.5 15.5
s8.83301 16.333 11.5 28s4 26.167 4 43.5v35h95v-41c0 -52.667 -11.833 -95.334 -35.5 -128.001s-63.5 -49.334 -119.5 -50.001v-332v0z" />
    <glyph glyph-name="uhorn" unicode="&#x1b0;" horiz-adv-x="625" 
d="M173 494l0.000976562 -305.001c0 -28 7 -47.5 21 -58.5s29 -16.5 45 -16.5c15.333 0 32 3.5 50 10.5s39.667 18.833 65 35.5v334h128v-35c17.333 3.33301 30.166 11.166 38.499 23.499s12.5 34.833 12.5 67.5v35h95v-41c0 -51.333 -11.167 -93.166 -33.5 -125.499
s-59.833 -49.833 -112.5 -52.5v-366h-118l-10 43c-36 -22 -66 -35.833 -90 -41.5s-44.333 -8.5 -61 -8.5c-28 0 -52 4.66699 -72 14s-36.333 22.333 -49 39s-22 36.334 -28 59.001s-9 47.667 -9 75v314h128z" />
    </font>
</defs>
</svg>
